M48
;Layer_Color=9474304
;FILE_FORMAT=2:4
INCH,TZ
;TYPE=PLATED
T1F00S00C0.0157
T2F00S00C0.0197
T3F00S00C0.0315
;TYPE=NON_PLATED
T4F00S00C0.0591
%
T01
X13366Y470
X6811Y4685
X6890Y5522
X7441Y5484
X7362Y6378
X6142Y5827
X4882Y5925
X3937Y5906
X3465Y5906
X2992
X2520
X1575Y5354
X709Y5630
X866Y6535
X1870Y7756
Y8228
X1929Y8661
X2323Y9803
X2930Y9830
X3504Y10118
X3504Y9528
X4055Y9488
X3976Y9094
X5157Y9213
X5130Y9588
X5157Y9961
X5157Y10433
X5157Y10976
X5157Y11378
X7120Y11339
X7078Y11693
X7120Y10748
Y10354
Y9764
Y9370
X7008Y9016
X6940Y8661
X6940Y8307
X7008Y7953
X8268Y7992
X8661Y8110
X9055Y8189
X9449Y8307
X9449Y9724
X9449Y10079
X9449Y10433
X9449Y10787
X9449Y11142
X9449Y12205
X9449Y12717
X9449Y13071
X3465Y13307
X3465Y12677
X2894Y12244
X2356Y12002
X1969Y11890
X1890Y11496
X1378Y11220
X1535Y10866
X1701Y12402
X2894Y13189
X5394Y7465
X5118Y4961
X4724Y4996
X4961Y4606
X5329Y4671
X5748Y4252
X3701Y4134
X3701Y4606
X3701Y4980
X4449Y5394
X2953Y4094
X3031Y3740
X15652Y8110
X15612Y10630
X15516Y13228
T02
X14961Y787
X15748
X15354Y1181
X16142
X16535Y787
Y1575
Y2362
X17126
X17520
X17913
X18307
X18701
X19094
Y394
X18701
X18307
X17913
X17520
X17126
X16142
X15354
X15748Y1575
X14961
Y2362
X15748
X15354Y1969
X16142
X14567
X14173Y1575
Y787
X14567Y1181
Y394
X12402
Y787
Y1181
Y1575
Y1969
X12008Y1772
Y1378
Y984
Y591
X11614Y394
Y787
Y1181
Y1575
Y1969
X11220Y1772
Y1378
Y984
Y591
X10827Y394
Y787
Y1181
Y1575
Y1969
X10433Y1772
Y1378
Y984
Y591
X10039Y394
Y787
Y1181
Y1575
Y1969
X10374Y2402
X14173Y2362
X14075Y2874
X5906Y1969
X5000Y1575
X3819Y1457
X3150Y1850
Y2165
X3346Y394
X3937
X5157
X4921Y3228
X6102
X3920Y3762
X2598Y2953
X2756Y4980
X1575Y4528
X1417Y6969
X3031Y8071
X2087Y9252
X709Y10394
X1811Y12776
X2480Y12756
X5315Y12992
X5709Y12598
X6102Y12992
X6496Y12598
Y11811
Y11417
X6102
Y11024
X5748
Y10630
X6102
X6496
Y10236
Y9843
X6102
X5748
Y10236
X6102
Y9449
X5748
X5866Y8976
X6378
X6496Y9449
X6457Y8268
X5906Y8465
X6063Y7835
X6220Y7244
X6654Y7244
X6260Y6299
X5354Y7087
X5335Y7953
X5709Y11417
Y11811
X6102
Y12205
X5315Y12205
X6496Y11024
X8110Y12362
X8701Y12717
X10551Y12480
Y12126
X10551Y11772
X10906
Y12126
Y12480
X10906Y11417
X10551
X10551Y9764
X10906
Y9409
Y9055
Y8701
X10551
X10551Y9055
X10551Y9409
X10551Y7283
X10906
Y6929
Y6575
X10551
X10551Y6220
X10906
X10551Y6929
X8898Y7087
Y6732
X9803Y5709
X10374Y4291
Y3661
Y3031
X8740Y3504
X8780Y4488
X12835Y5236
X6990Y13524
X15669Y12441
X16142
Y11929
X15669
Y11417
X16142
X17126Y11220
X17520
X17913
X18307
X18701
X19094
Y10433
X18701
X18307
X17913
X17520
X17126
X16142Y9882
X15669
Y9409
X16142
Y8858
X15669
Y7283
Y6811
X16132Y6831
X16142Y7283
Y6299
X15669
X15748Y4921
X16535
X17126
X17520
X17913
X18307
X18701
X19094
Y5709
X18701
X18307
X17913
X17520
X17126
Y7677
X17520
X17913
X18307
X18701
X19094
Y8465
X18701
X18307
X17913
X17520
X17126
Y13189
X17520
X17913
X18307
X18701
X19094
Y2953
X18701
X18307
X17913
X17520
X17126
X16535Y3346
Y4134
X15748
Y3346
X16142Y3740
Y2953
Y4528
T03
X654Y1445
Y2445
X1654Y1945
Y945
X6201Y535
X7201
X8201
X7701Y1535
X6701
X8701
X1654Y2945
Y3945
X654Y4445
Y3445
T04
X945Y394
X9252Y827
M30
