G04 Layer_Color=32896*
%FSLAX24Y24*%
%MOIN*%
G70*
G01*
G75*
%ADD43C,0.0079*%
%ADD74C,0.0039*%
D43*
X7480Y4803D02*
X7638D01*
X7480Y4528D02*
X7638D01*
X6358Y5433D02*
Y5591D01*
X6083Y5433D02*
Y5591D01*
X8071Y6240D02*
X8228D01*
X8071Y6516D02*
X8228D01*
X8701Y5177D02*
X8858D01*
X8701Y5453D02*
X8858D01*
X8701Y5650D02*
X8858D01*
X8701Y5925D02*
X8858D01*
X7289Y5010D02*
X7356D01*
X7289D02*
Y6033D01*
X7356Y5010D02*
Y5967D01*
X7289Y6033D02*
X7356Y5967D01*
X11575Y3524D02*
X11732D01*
X11575Y3799D02*
X11732D01*
X10591D02*
X10748D01*
X10591Y3524D02*
X10748D01*
X11575Y2264D02*
X11732D01*
X11575Y2539D02*
X11732D01*
X10591D02*
X10748D01*
X10591Y2264D02*
X10748D01*
X11575Y2894D02*
X11732D01*
X11575Y3169D02*
X11732D01*
X10591Y3169D02*
X10748D01*
X10591Y2894D02*
X10748D01*
X5020Y5551D02*
Y5709D01*
X4744Y5551D02*
Y5709D01*
X4272Y5551D02*
Y5709D01*
X4547Y5551D02*
Y5709D01*
X13839Y1614D02*
Y1772D01*
X13563Y1614D02*
Y1772D01*
X1437Y6181D02*
X1713D01*
X11181Y6122D02*
X12677D01*
X11181Y7421D02*
X12677D01*
X11181Y8563D02*
X12677D01*
X11181Y9862D02*
X12677D01*
X11181Y11280D02*
X12677D01*
X11181Y12579D02*
X12677D01*
X1746Y7474D02*
X3614D01*
X1746D02*
Y9848D01*
X4120D01*
Y7980D02*
Y9848D01*
X3614Y7474D02*
X4120Y7980D01*
X13317Y1791D02*
X13366D01*
Y650D02*
Y1791D01*
X12697D02*
X12746D01*
X12697Y650D02*
Y1791D01*
X13317Y650D02*
X13366D01*
X12697D02*
X12746D01*
X11575Y4429D02*
X11732D01*
X11575Y4154D02*
X11732D01*
X10591Y4429D02*
X10748D01*
X10591Y4154D02*
X10748D01*
X3760Y10945D02*
X4035D01*
D74*
X13337Y433D02*
G03*
X13337Y433I-20J0D01*
G01*
M02*
