G04 Layer_Color=8388736*
%FSLAX24Y24*%
%MOIN*%
G70*
G01*
G75*
%ADD46R,0.0354X0.0433*%
%ADD47R,0.0433X0.0394*%
%ADD48O,0.0472X0.0354*%
%ADD49R,0.0472X0.0354*%
%ADD50R,0.0551X0.0315*%
%ADD51O,0.0551X0.0315*%
%ADD52O,0.0650X0.0197*%
%ADD53R,0.0650X0.0197*%
%ADD54R,0.0512X0.0748*%
%ADD55R,0.0394X0.0433*%
%ADD56R,0.1496X0.2598*%
%ADD57R,0.0689X0.0197*%
%ADD58O,0.0689X0.0197*%
G04:AMPARAMS|DCode=59|XSize=145.7mil|YSize=70.9mil|CornerRadius=11.8mil|HoleSize=0mil|Usage=FLASHONLY|Rotation=0.000|XOffset=0mil|YOffset=0mil|HoleType=Round|Shape=RoundedRectangle|*
%AMROUNDEDRECTD59*
21,1,0.1457,0.0472,0,0,0.0*
21,1,0.1220,0.0709,0,0,0.0*
1,1,0.0236,0.0610,-0.0236*
1,1,0.0236,-0.0610,-0.0236*
1,1,0.0236,-0.0610,0.0236*
1,1,0.0236,0.0610,0.0236*
%
%ADD59ROUNDEDRECTD59*%
%ADD60R,0.0748X0.0512*%
%ADD61R,0.0433X0.0354*%
%ADD62R,0.1899X0.1859*%
%ADD63R,0.0729X0.0319*%
%ADD64R,0.0472X0.0472*%
%ADD65C,0.0079*%
%ADD66C,0.0591*%
G36*
X19611Y5157D02*
X19617Y5156D01*
X19621Y5155D01*
X19626Y5152D01*
X19630Y5149D01*
X19634Y5146D01*
X19638Y5142D01*
X19640Y5138D01*
X19643Y5133D01*
X19644Y5128D01*
X19645Y5123D01*
X19646Y5118D01*
Y4764D01*
X19646Y4764D01*
X19646Y4763D01*
X19646Y4761D01*
X19645Y4759D01*
X19645Y4758D01*
X19645Y4758D01*
X19645Y4756D01*
X19644Y4754D01*
X19644Y4753D01*
X19644Y4753D01*
X19644Y4751D01*
X19643Y4749D01*
X19643Y4748D01*
X19643Y4748D01*
X19642Y4746D01*
X19640Y4744D01*
X19640Y4744D01*
X19640Y4744D01*
X19639Y4742D01*
X19638Y4740D01*
X19637Y4740D01*
X19637Y4739D01*
X19636Y4738D01*
X19634Y4736D01*
X19634Y4736D01*
X19634Y4736D01*
X19632Y4734D01*
X19630Y4732D01*
X19630Y4732D01*
X19630Y4732D01*
X19628Y4731D01*
X19626Y4730D01*
X19626Y4730D01*
X19626Y4729D01*
X19624Y4728D01*
X19621Y4727D01*
X19621Y4727D01*
X19621Y4727D01*
X19619Y4726D01*
X19617Y4726D01*
X19616Y4726D01*
X19616Y4726D01*
X19614Y4725D01*
X19611Y4725D01*
X19611Y4725D01*
X19611Y4725D01*
X19609Y4724D01*
X19606Y4724D01*
X19606Y4724D01*
X19606Y4724D01*
X19256Y4728D01*
X19191Y4715D01*
X19138Y4680D01*
X19104Y4628D01*
X19093Y4576D01*
X19094Y4575D01*
X19094Y4572D01*
Y4572D01*
X19094Y4572D01*
X19094Y4570D01*
X19095Y4567D01*
Y4567D01*
Y4567D01*
X19094Y4564D01*
X19094Y4562D01*
X19094Y4562D01*
Y4562D01*
X19094Y4559D01*
X19093Y4557D01*
X19093Y4557D01*
X19093Y4557D01*
X19093Y4555D01*
X19092Y4552D01*
X19092Y4552D01*
X19092Y4552D01*
X19091Y4550D01*
X19089Y4547D01*
X19089Y4547D01*
X19089Y4547D01*
X19088Y4545D01*
X19086Y4543D01*
X19086Y4543D01*
X19086Y4543D01*
X19085Y4541D01*
X19083Y4539D01*
X19083Y4539D01*
X19083Y4539D01*
X19081Y4537D01*
X19079Y4536D01*
X19079Y4536D01*
X19079Y4536D01*
X19077Y4535D01*
X19075Y4533D01*
X19075Y4533D01*
X19075Y4533D01*
X19072Y4531D01*
X19070Y4530D01*
X19070Y4530D01*
X19070Y4530D01*
X19067Y4529D01*
X19065Y4529D01*
X19065Y4529D01*
X19065Y4529D01*
X19063Y4528D01*
X19060Y4528D01*
X19060D01*
X19060Y4528D01*
X19059Y4528D01*
X19055Y4527D01*
X19051Y4527D01*
X19051Y4527D01*
X16890Y4527D01*
X16885Y4528D01*
X16880Y4529D01*
X16875Y4530D01*
X16870Y4533D01*
X16866Y4536D01*
X16862Y4539D01*
X16858Y4543D01*
X16856Y4547D01*
X16853Y4552D01*
X16852Y4557D01*
X16851Y4562D01*
X16850Y4567D01*
Y5118D01*
X16851Y5123D01*
X16852Y5128D01*
X16853Y5133D01*
X16856Y5138D01*
X16858Y5142D01*
X16862Y5146D01*
X16866Y5149D01*
X16870Y5152D01*
X16875Y5155D01*
X16880Y5156D01*
X16885Y5157D01*
X16890Y5158D01*
X19606D01*
X19611Y5157D01*
D02*
G37*
G36*
X19058Y6102D02*
X19060Y6102D01*
X19060Y6102D01*
X19060D01*
X19063Y6102D01*
X19065Y6101D01*
X19065Y6101D01*
X19065Y6101D01*
X19067Y6101D01*
X19070Y6099D01*
X19070Y6099D01*
X19070Y6099D01*
X19072Y6098D01*
X19075Y6097D01*
X19075Y6097D01*
X19075Y6097D01*
X19077Y6095D01*
X19079Y6094D01*
X19079Y6094D01*
X19079Y6094D01*
X19081Y6092D01*
X19083Y6091D01*
X19083Y6091D01*
X19083Y6091D01*
X19085Y6089D01*
X19086Y6087D01*
X19086Y6087D01*
X19086Y6087D01*
X19088Y6085D01*
X19089Y6083D01*
X19089Y6083D01*
X19089Y6083D01*
X19091Y6080D01*
X19092Y6078D01*
X19092Y6078D01*
X19092Y6078D01*
X19093Y6075D01*
X19093Y6073D01*
X19093Y6073D01*
X19093Y6073D01*
X19094Y6071D01*
X19094Y6068D01*
Y6068D01*
X19094Y6068D01*
X19094Y6066D01*
X19095Y6063D01*
Y6063D01*
Y6063D01*
X19094Y6060D01*
X19094Y6058D01*
X19094Y6058D01*
Y6058D01*
X19094Y6055D01*
X19093Y6054D01*
X19104Y6002D01*
X19138Y5950D01*
X19191Y5915D01*
X19256Y5902D01*
X19606Y5906D01*
X19606Y5906D01*
X19606Y5906D01*
X19609Y5905D01*
X19611Y5905D01*
X19611Y5905D01*
X19611Y5905D01*
X19614Y5905D01*
X19616Y5904D01*
X19616Y5904D01*
X19617Y5904D01*
X19619Y5903D01*
X19621Y5903D01*
X19621Y5903D01*
X19621Y5903D01*
X19624Y5902D01*
X19626Y5901D01*
X19626Y5900D01*
X19626Y5900D01*
X19628Y5899D01*
X19630Y5898D01*
X19630Y5898D01*
X19630Y5897D01*
X19632Y5896D01*
X19634Y5894D01*
X19634Y5894D01*
X19634Y5894D01*
X19636Y5892D01*
X19637Y5890D01*
X19637Y5890D01*
X19638Y5890D01*
X19639Y5888D01*
X19640Y5886D01*
X19640Y5886D01*
X19640Y5886D01*
X19641Y5884D01*
X19643Y5882D01*
X19643Y5881D01*
X19643Y5881D01*
X19644Y5879D01*
X19644Y5877D01*
X19644Y5877D01*
X19644Y5876D01*
X19645Y5874D01*
X19645Y5872D01*
X19645Y5871D01*
X19645Y5871D01*
X19646Y5869D01*
X19646Y5867D01*
X19646Y5866D01*
X19646Y5866D01*
Y5512D01*
X19645Y5507D01*
X19644Y5502D01*
X19643Y5497D01*
X19640Y5492D01*
X19638Y5488D01*
X19634Y5484D01*
X19630Y5481D01*
X19626Y5478D01*
X19621Y5475D01*
X19617Y5474D01*
X19611Y5473D01*
X19606Y5472D01*
X16890D01*
X16885Y5473D01*
X16880Y5474D01*
X16875Y5475D01*
X16870Y5478D01*
X16866Y5481D01*
X16862Y5484D01*
X16858Y5488D01*
X16856Y5492D01*
X16853Y5497D01*
X16852Y5502D01*
X16851Y5507D01*
X16850Y5512D01*
Y6063D01*
X16851Y6068D01*
X16852Y6073D01*
X16853Y6078D01*
X16856Y6083D01*
X16858Y6087D01*
X16862Y6091D01*
X16866Y6094D01*
X16870Y6097D01*
X16875Y6099D01*
X16880Y6101D01*
X16885Y6102D01*
X16890Y6102D01*
X19055D01*
X19058Y6102D01*
D02*
G37*
G36*
Y3346D02*
X19060Y3346D01*
X19060Y3346D01*
X19060D01*
X19063Y3346D01*
X19065Y3345D01*
X19065Y3345D01*
X19065Y3345D01*
X19067Y3345D01*
X19070Y3344D01*
X19070Y3344D01*
X19070Y3344D01*
X19072Y3343D01*
X19075Y3341D01*
X19075Y3341D01*
X19075Y3341D01*
X19077Y3340D01*
X19079Y3338D01*
X19079Y3338D01*
X19079Y3338D01*
X19081Y3337D01*
X19083Y3335D01*
X19083Y3335D01*
X19083Y3335D01*
X19085Y3333D01*
X19086Y3331D01*
X19086Y3331D01*
X19086Y3331D01*
X19088Y3329D01*
X19089Y3327D01*
X19089Y3327D01*
X19089Y3327D01*
X19091Y3324D01*
X19092Y3322D01*
X19092Y3322D01*
X19092Y3322D01*
X19093Y3319D01*
X19093Y3317D01*
X19093Y3317D01*
X19093Y3317D01*
X19094Y3315D01*
X19094Y3312D01*
Y3312D01*
X19094Y3312D01*
X19094Y3310D01*
X19095Y3307D01*
Y3307D01*
Y3307D01*
X19094Y3304D01*
X19094Y3302D01*
X19094Y3302D01*
Y3302D01*
X19094Y3299D01*
X19093Y3298D01*
X19104Y3246D01*
X19138Y3194D01*
X19191Y3159D01*
X19256Y3146D01*
X19606Y3150D01*
X19606Y3150D01*
X19606Y3150D01*
X19609Y3150D01*
X19611Y3149D01*
X19611Y3149D01*
X19611Y3149D01*
X19614Y3149D01*
X19616Y3148D01*
X19616Y3148D01*
X19617Y3148D01*
X19619Y3148D01*
X19621Y3147D01*
X19621Y3147D01*
X19621Y3147D01*
X19624Y3146D01*
X19626Y3145D01*
X19626Y3144D01*
X19626Y3144D01*
X19628Y3143D01*
X19630Y3142D01*
X19630Y3142D01*
X19630Y3142D01*
X19632Y3140D01*
X19634Y3138D01*
X19634Y3138D01*
X19634Y3138D01*
X19636Y3136D01*
X19637Y3135D01*
X19637Y3134D01*
X19638Y3134D01*
X19639Y3132D01*
X19640Y3130D01*
X19640Y3130D01*
X19640Y3130D01*
X19641Y3128D01*
X19643Y3126D01*
X19643Y3126D01*
X19643Y3125D01*
X19644Y3123D01*
X19644Y3121D01*
X19644Y3121D01*
X19644Y3120D01*
X19645Y3118D01*
X19645Y3116D01*
X19645Y3116D01*
X19645Y3115D01*
X19646Y3113D01*
X19646Y3111D01*
X19646Y3110D01*
X19646Y3110D01*
Y2756D01*
X19645Y2751D01*
X19644Y2746D01*
X19643Y2741D01*
X19640Y2736D01*
X19638Y2732D01*
X19634Y2728D01*
X19630Y2725D01*
X19626Y2722D01*
X19621Y2719D01*
X19617Y2718D01*
X19611Y2717D01*
X19606Y2716D01*
X16890D01*
X16885Y2717D01*
X16880Y2718D01*
X16875Y2719D01*
X16870Y2722D01*
X16866Y2725D01*
X16862Y2728D01*
X16858Y2732D01*
X16856Y2736D01*
X16853Y2741D01*
X16852Y2746D01*
X16851Y2751D01*
X16850Y2756D01*
Y3307D01*
X16851Y3312D01*
X16852Y3317D01*
X16853Y3322D01*
X16856Y3327D01*
X16858Y3331D01*
X16862Y3335D01*
X16866Y3338D01*
X16870Y3341D01*
X16875Y3344D01*
X16880Y3345D01*
X16885Y3346D01*
X16890Y3347D01*
X19055D01*
X19058Y3346D01*
D02*
G37*
G36*
Y787D02*
X19060Y787D01*
X19060Y787D01*
X19060D01*
X19063Y787D01*
X19065Y786D01*
X19065Y786D01*
X19065Y786D01*
X19067Y786D01*
X19070Y784D01*
X19070Y784D01*
X19070Y784D01*
X19072Y783D01*
X19075Y782D01*
X19075Y782D01*
X19075Y782D01*
X19077Y780D01*
X19079Y779D01*
X19079Y779D01*
X19079Y779D01*
X19081Y777D01*
X19083Y776D01*
X19083Y776D01*
X19083Y776D01*
X19085Y774D01*
X19086Y772D01*
X19086Y772D01*
X19086Y772D01*
X19088Y770D01*
X19089Y768D01*
X19089Y768D01*
X19089Y768D01*
X19091Y765D01*
X19092Y763D01*
X19092Y763D01*
X19092Y763D01*
X19093Y760D01*
X19093Y758D01*
X19093Y758D01*
X19093Y758D01*
X19094Y756D01*
X19094Y753D01*
Y753D01*
X19094Y753D01*
X19094Y751D01*
X19095Y748D01*
Y748D01*
Y748D01*
X19094Y745D01*
X19094Y743D01*
X19094Y743D01*
Y743D01*
X19094Y740D01*
X19093Y739D01*
X19104Y687D01*
X19138Y635D01*
X19191Y600D01*
X19256Y587D01*
X19606Y591D01*
X19606Y591D01*
X19606Y591D01*
X19609Y590D01*
X19611Y590D01*
X19611Y590D01*
X19611Y590D01*
X19614Y590D01*
X19616Y589D01*
X19616Y589D01*
X19617Y589D01*
X19619Y589D01*
X19621Y588D01*
X19621Y588D01*
X19621Y588D01*
X19624Y587D01*
X19626Y586D01*
X19626Y585D01*
X19626Y585D01*
X19628Y584D01*
X19630Y583D01*
X19630Y583D01*
X19630Y582D01*
X19632Y581D01*
X19634Y579D01*
X19634Y579D01*
X19634Y579D01*
X19636Y577D01*
X19637Y576D01*
X19637Y575D01*
X19638Y575D01*
X19639Y573D01*
X19640Y571D01*
X19640Y571D01*
X19640Y571D01*
X19641Y569D01*
X19643Y567D01*
X19643Y566D01*
X19643Y566D01*
X19644Y564D01*
X19644Y562D01*
X19644Y562D01*
X19644Y561D01*
X19645Y559D01*
X19645Y557D01*
X19645Y557D01*
X19645Y556D01*
X19646Y554D01*
X19646Y552D01*
X19646Y551D01*
X19646Y551D01*
Y197D01*
X19645Y192D01*
X19644Y187D01*
X19643Y182D01*
X19640Y177D01*
X19638Y173D01*
X19634Y169D01*
X19630Y166D01*
X19626Y163D01*
X19621Y160D01*
X19617Y159D01*
X19611Y158D01*
X19606Y157D01*
X16890D01*
X16885Y158D01*
X16880Y159D01*
X16875Y160D01*
X16870Y163D01*
X16866Y166D01*
X16862Y169D01*
X16858Y173D01*
X16856Y177D01*
X16853Y182D01*
X16852Y187D01*
X16851Y192D01*
X16850Y197D01*
Y748D01*
X16851Y753D01*
X16852Y758D01*
X16853Y763D01*
X16856Y768D01*
X16858Y772D01*
X16862Y776D01*
X16866Y779D01*
X16870Y782D01*
X16875Y784D01*
X16880Y786D01*
X16885Y787D01*
X16890Y787D01*
X19055D01*
X19058Y787D01*
D02*
G37*
G36*
X19611Y2598D02*
X19617Y2597D01*
X19621Y2596D01*
X19626Y2593D01*
X19630Y2590D01*
X19634Y2587D01*
X19638Y2583D01*
X19640Y2579D01*
X19643Y2574D01*
X19644Y2569D01*
X19645Y2564D01*
X19646Y2559D01*
Y2205D01*
X19646Y2205D01*
X19646Y2204D01*
X19646Y2202D01*
X19645Y2200D01*
X19645Y2199D01*
X19645Y2199D01*
X19645Y2197D01*
X19644Y2195D01*
X19644Y2194D01*
X19644Y2194D01*
X19644Y2192D01*
X19643Y2190D01*
X19643Y2189D01*
X19643Y2189D01*
X19642Y2187D01*
X19640Y2185D01*
X19640Y2185D01*
X19640Y2185D01*
X19639Y2183D01*
X19638Y2181D01*
X19637Y2181D01*
X19637Y2180D01*
X19636Y2179D01*
X19634Y2177D01*
X19634Y2177D01*
X19634Y2177D01*
X19632Y2175D01*
X19630Y2173D01*
X19630Y2173D01*
X19630Y2173D01*
X19628Y2172D01*
X19626Y2171D01*
X19626Y2170D01*
X19626Y2170D01*
X19624Y2169D01*
X19621Y2168D01*
X19621Y2168D01*
X19621Y2168D01*
X19619Y2167D01*
X19617Y2167D01*
X19616Y2167D01*
X19616Y2167D01*
X19614Y2166D01*
X19611Y2166D01*
X19611Y2166D01*
X19611Y2166D01*
X19609Y2165D01*
X19606Y2165D01*
X19606Y2165D01*
X19606Y2165D01*
X19256Y2169D01*
X19191Y2156D01*
X19138Y2121D01*
X19104Y2069D01*
X19093Y2017D01*
X19094Y2016D01*
X19094Y2013D01*
Y2013D01*
X19094Y2013D01*
X19094Y2011D01*
X19095Y2008D01*
Y2008D01*
Y2008D01*
X19094Y2005D01*
X19094Y2003D01*
X19094Y2003D01*
Y2003D01*
X19094Y2000D01*
X19093Y1998D01*
X19093Y1998D01*
X19093Y1998D01*
X19093Y1996D01*
X19092Y1993D01*
X19092Y1993D01*
X19092Y1993D01*
X19091Y1991D01*
X19089Y1988D01*
X19089Y1988D01*
X19089Y1988D01*
X19088Y1986D01*
X19086Y1984D01*
X19086Y1984D01*
X19086Y1984D01*
X19085Y1982D01*
X19083Y1980D01*
X19083Y1980D01*
X19083Y1980D01*
X19081Y1978D01*
X19079Y1977D01*
X19079Y1977D01*
X19079Y1977D01*
X19077Y1975D01*
X19075Y1974D01*
X19075Y1974D01*
X19075Y1974D01*
X19072Y1972D01*
X19070Y1971D01*
X19070Y1971D01*
X19070Y1971D01*
X19067Y1970D01*
X19065Y1970D01*
X19065Y1970D01*
X19065Y1970D01*
X19063Y1969D01*
X19060Y1969D01*
X19060D01*
X19060Y1969D01*
X19059Y1969D01*
X19055Y1968D01*
X19051Y1968D01*
X19051Y1968D01*
X16890Y1968D01*
X16885Y1969D01*
X16880Y1970D01*
X16875Y1971D01*
X16870Y1974D01*
X16866Y1977D01*
X16862Y1980D01*
X16858Y1984D01*
X16856Y1988D01*
X16853Y1993D01*
X16852Y1998D01*
X16851Y2003D01*
X16850Y2008D01*
Y2559D01*
X16851Y2564D01*
X16852Y2569D01*
X16853Y2574D01*
X16856Y2579D01*
X16858Y2583D01*
X16862Y2587D01*
X16866Y2590D01*
X16870Y2593D01*
X16875Y2596D01*
X16880Y2597D01*
X16885Y2598D01*
X16890Y2599D01*
X19606D01*
X19611Y2598D01*
D02*
G37*
G36*
X19058Y11614D02*
X19060Y11614D01*
X19060Y11614D01*
X19060D01*
X19063Y11613D01*
X19065Y11613D01*
X19065Y11613D01*
X19065Y11613D01*
X19067Y11612D01*
X19070Y11611D01*
X19070Y11611D01*
X19070Y11611D01*
X19072Y11610D01*
X19075Y11609D01*
X19075Y11609D01*
X19075Y11609D01*
X19077Y11607D01*
X19079Y11606D01*
X19079Y11606D01*
X19079Y11606D01*
X19081Y11604D01*
X19083Y11603D01*
X19083Y11603D01*
X19083Y11603D01*
X19085Y11601D01*
X19086Y11599D01*
X19086Y11599D01*
X19086Y11599D01*
X19088Y11597D01*
X19089Y11595D01*
X19089Y11595D01*
X19089Y11595D01*
X19091Y11592D01*
X19092Y11590D01*
X19092Y11590D01*
X19092Y11590D01*
X19093Y11586D01*
X19093Y11585D01*
X19093Y11585D01*
X19093Y11585D01*
X19094Y11582D01*
X19094Y11580D01*
Y11580D01*
X19094Y11580D01*
X19094Y11578D01*
X19095Y11575D01*
Y11575D01*
Y11575D01*
X19094Y11571D01*
X19094Y11570D01*
X19094Y11570D01*
Y11570D01*
X19094Y11567D01*
X19093Y11565D01*
X19104Y11513D01*
X19138Y11461D01*
X19191Y11427D01*
X19256Y11414D01*
X19606Y11417D01*
X19606Y11417D01*
X19606Y11417D01*
X19609Y11417D01*
X19611Y11417D01*
X19611Y11417D01*
X19611Y11417D01*
X19614Y11417D01*
X19616Y11416D01*
X19616Y11416D01*
X19617Y11416D01*
X19619Y11415D01*
X19621Y11415D01*
X19621Y11414D01*
X19621Y11414D01*
X19624Y11413D01*
X19626Y11412D01*
X19626Y11412D01*
X19626Y11412D01*
X19628Y11411D01*
X19630Y11410D01*
X19630Y11409D01*
X19630Y11409D01*
X19632Y11408D01*
X19634Y11406D01*
X19634Y11406D01*
X19634Y11406D01*
X19636Y11404D01*
X19637Y11402D01*
X19637Y11402D01*
X19638Y11402D01*
X19639Y11400D01*
X19640Y11398D01*
X19640Y11398D01*
X19640Y11398D01*
X19641Y11396D01*
X19643Y11393D01*
X19643Y11393D01*
X19643Y11393D01*
X19644Y11391D01*
X19644Y11389D01*
X19644Y11388D01*
X19644Y11388D01*
X19645Y11386D01*
X19645Y11384D01*
X19645Y11383D01*
X19645Y11383D01*
X19646Y11381D01*
X19646Y11378D01*
X19646Y11378D01*
X19646Y11378D01*
Y11024D01*
X19645Y11018D01*
X19644Y11013D01*
X19643Y11009D01*
X19640Y11004D01*
X19638Y11000D01*
X19634Y10996D01*
X19630Y10992D01*
X19626Y10989D01*
X19621Y10987D01*
X19617Y10986D01*
X19611Y10985D01*
X19606Y10984D01*
X16890D01*
X16885Y10985D01*
X16880Y10986D01*
X16875Y10987D01*
X16870Y10989D01*
X16866Y10992D01*
X16862Y10996D01*
X16858Y11000D01*
X16856Y11004D01*
X16853Y11009D01*
X16852Y11013D01*
X16851Y11018D01*
X16850Y11024D01*
Y11575D01*
X16851Y11580D01*
X16852Y11585D01*
X16853Y11590D01*
X16856Y11595D01*
X16858Y11599D01*
X16862Y11603D01*
X16866Y11606D01*
X16870Y11609D01*
X16875Y11611D01*
X16880Y11613D01*
X16885Y11614D01*
X16890Y11614D01*
X19055D01*
X19058Y11614D01*
D02*
G37*
G36*
X19611Y13425D02*
X19617Y13424D01*
X19621Y13422D01*
X19626Y13420D01*
X19630Y13417D01*
X19634Y13414D01*
X19638Y13410D01*
X19640Y13406D01*
X19643Y13401D01*
X19644Y13396D01*
X19645Y13391D01*
X19646Y13386D01*
Y13032D01*
X19646Y13031D01*
X19646Y13031D01*
X19646Y13029D01*
X19645Y13026D01*
X19645Y13026D01*
X19645Y13026D01*
X19645Y13024D01*
X19644Y13021D01*
X19644Y13021D01*
X19644Y13021D01*
X19644Y13019D01*
X19643Y13016D01*
X19643Y13016D01*
X19643Y13016D01*
X19642Y13014D01*
X19640Y13012D01*
X19640Y13012D01*
X19640Y13011D01*
X19639Y13009D01*
X19638Y13007D01*
X19637Y13007D01*
X19637Y13007D01*
X19636Y13005D01*
X19634Y13004D01*
X19634Y13003D01*
X19634Y13003D01*
X19632Y13002D01*
X19630Y13000D01*
X19630Y13000D01*
X19630Y13000D01*
X19628Y12999D01*
X19626Y12997D01*
X19626Y12997D01*
X19626Y12997D01*
X19624Y12996D01*
X19621Y12995D01*
X19621Y12995D01*
X19621Y12995D01*
X19619Y12994D01*
X19617Y12993D01*
X19616Y12993D01*
X19616Y12993D01*
X19614Y12993D01*
X19611Y12992D01*
X19611Y12992D01*
X19611Y12992D01*
X19609Y12992D01*
X19606Y12992D01*
X19606Y12992D01*
X19606Y12992D01*
X19256Y12996D01*
X19191Y12983D01*
X19138Y12948D01*
X19104Y12896D01*
X19093Y12844D01*
X19094Y12842D01*
X19094Y12840D01*
Y12840D01*
X19094Y12840D01*
X19094Y12838D01*
X19095Y12835D01*
Y12835D01*
Y12835D01*
X19094Y12831D01*
X19094Y12830D01*
X19094Y12830D01*
Y12830D01*
X19094Y12827D01*
X19093Y12824D01*
X19093Y12824D01*
X19093Y12824D01*
X19093Y12823D01*
X19092Y12820D01*
X19092Y12820D01*
X19092Y12820D01*
X19091Y12818D01*
X19089Y12815D01*
X19089Y12815D01*
X19089Y12815D01*
X19088Y12812D01*
X19086Y12811D01*
X19086Y12811D01*
X19086Y12811D01*
X19085Y12809D01*
X19083Y12807D01*
X19083Y12807D01*
X19083Y12807D01*
X19081Y12805D01*
X19079Y12803D01*
X19079Y12803D01*
X19079Y12803D01*
X19077Y12802D01*
X19075Y12800D01*
X19075Y12800D01*
X19075Y12800D01*
X19072Y12799D01*
X19070Y12798D01*
X19070Y12798D01*
X19070Y12798D01*
X19067Y12797D01*
X19065Y12797D01*
X19065Y12797D01*
X19065Y12797D01*
X19063Y12796D01*
X19060Y12796D01*
X19060D01*
X19060Y12796D01*
X19059Y12795D01*
X19055Y12795D01*
X19051Y12795D01*
X19051Y12795D01*
X16890Y12795D01*
X16885Y12796D01*
X16880Y12797D01*
X16875Y12798D01*
X16870Y12800D01*
X16866Y12803D01*
X16862Y12807D01*
X16858Y12811D01*
X16856Y12815D01*
X16853Y12820D01*
X16852Y12824D01*
X16851Y12829D01*
X16850Y12835D01*
Y13386D01*
X16851Y13391D01*
X16852Y13396D01*
X16853Y13401D01*
X16856Y13406D01*
X16858Y13410D01*
X16862Y13414D01*
X16866Y13417D01*
X16870Y13420D01*
X16875Y13422D01*
X16880Y13424D01*
X16885Y13425D01*
X16890Y13425D01*
X19606D01*
X19611Y13425D01*
D02*
G37*
G36*
X19611Y10669D02*
X19617Y10668D01*
X19621Y10666D01*
X19626Y10664D01*
X19630Y10661D01*
X19634Y10658D01*
X19638Y10654D01*
X19640Y10650D01*
X19643Y10645D01*
X19644Y10640D01*
X19645Y10635D01*
X19646Y10630D01*
Y10276D01*
X19646Y10275D01*
X19646Y10275D01*
X19646Y10273D01*
X19645Y10270D01*
X19645Y10270D01*
X19645Y10270D01*
X19645Y10268D01*
X19644Y10265D01*
X19644Y10265D01*
X19644Y10265D01*
X19644Y10263D01*
X19643Y10260D01*
X19643Y10260D01*
X19643Y10260D01*
X19642Y10258D01*
X19640Y10256D01*
X19640Y10256D01*
X19640Y10256D01*
X19639Y10254D01*
X19638Y10252D01*
X19637Y10251D01*
X19637Y10251D01*
X19636Y10249D01*
X19634Y10248D01*
X19634Y10248D01*
X19634Y10247D01*
X19632Y10246D01*
X19630Y10244D01*
X19630Y10244D01*
X19630Y10244D01*
X19628Y10243D01*
X19626Y10241D01*
X19626Y10241D01*
X19626Y10241D01*
X19624Y10240D01*
X19621Y10239D01*
X19621Y10239D01*
X19621Y10239D01*
X19619Y10238D01*
X19617Y10237D01*
X19616Y10237D01*
X19616Y10237D01*
X19614Y10237D01*
X19611Y10236D01*
X19611Y10236D01*
X19611Y10236D01*
X19609Y10236D01*
X19606Y10236D01*
X19606Y10236D01*
X19606Y10236D01*
X19256Y10240D01*
X19191Y10227D01*
X19138Y10192D01*
X19104Y10140D01*
X19093Y10088D01*
X19094Y10086D01*
X19094Y10084D01*
Y10084D01*
X19094Y10084D01*
X19094Y10082D01*
X19095Y10079D01*
Y10079D01*
Y10079D01*
X19094Y10075D01*
X19094Y10074D01*
X19094Y10074D01*
Y10074D01*
X19094Y10071D01*
X19093Y10069D01*
X19093Y10069D01*
X19093Y10069D01*
X19093Y10067D01*
X19092Y10064D01*
X19092Y10064D01*
X19092Y10064D01*
X19091Y10062D01*
X19089Y10059D01*
X19089Y10059D01*
X19089Y10059D01*
X19088Y10056D01*
X19086Y10055D01*
X19086Y10055D01*
X19086Y10055D01*
X19085Y10053D01*
X19083Y10051D01*
X19083Y10051D01*
X19083Y10051D01*
X19081Y10049D01*
X19079Y10047D01*
X19079Y10047D01*
X19079Y10047D01*
X19077Y10046D01*
X19075Y10045D01*
X19075Y10045D01*
X19075Y10045D01*
X19072Y10043D01*
X19070Y10042D01*
X19070Y10042D01*
X19070Y10042D01*
X19067Y10041D01*
X19065Y10041D01*
X19065Y10041D01*
X19065Y10041D01*
X19063Y10040D01*
X19060Y10040D01*
X19060D01*
X19060Y10040D01*
X19059Y10040D01*
X19055Y10039D01*
X19051Y10039D01*
X19051Y10039D01*
X16890Y10039D01*
X16885Y10040D01*
X16880Y10041D01*
X16875Y10042D01*
X16870Y10045D01*
X16866Y10047D01*
X16862Y10051D01*
X16858Y10055D01*
X16856Y10059D01*
X16853Y10064D01*
X16852Y10069D01*
X16851Y10074D01*
X16850Y10079D01*
Y10630D01*
X16851Y10635D01*
X16852Y10640D01*
X16853Y10645D01*
X16856Y10650D01*
X16858Y10654D01*
X16862Y10658D01*
X16866Y10661D01*
X16870Y10664D01*
X16875Y10666D01*
X16880Y10668D01*
X16885Y10669D01*
X16890Y10669D01*
X19606D01*
X19611Y10669D01*
D02*
G37*
G36*
X19611Y7913D02*
X19617Y7912D01*
X19621Y7910D01*
X19626Y7908D01*
X19630Y7905D01*
X19634Y7902D01*
X19638Y7898D01*
X19640Y7894D01*
X19643Y7889D01*
X19644Y7884D01*
X19645Y7879D01*
X19646Y7874D01*
Y7520D01*
X19646Y7519D01*
X19646Y7519D01*
X19646Y7517D01*
X19645Y7515D01*
X19645Y7514D01*
X19645Y7514D01*
X19645Y7512D01*
X19644Y7509D01*
X19644Y7509D01*
X19644Y7509D01*
X19644Y7507D01*
X19643Y7505D01*
X19643Y7504D01*
X19643Y7504D01*
X19642Y7502D01*
X19640Y7500D01*
X19640Y7500D01*
X19640Y7500D01*
X19639Y7498D01*
X19638Y7496D01*
X19637Y7496D01*
X19637Y7495D01*
X19636Y7494D01*
X19634Y7492D01*
X19634Y7492D01*
X19634Y7491D01*
X19632Y7490D01*
X19630Y7488D01*
X19630Y7488D01*
X19630Y7488D01*
X19628Y7487D01*
X19626Y7486D01*
X19626Y7485D01*
X19626Y7485D01*
X19624Y7484D01*
X19621Y7483D01*
X19621Y7483D01*
X19621Y7483D01*
X19619Y7482D01*
X19617Y7482D01*
X19616Y7482D01*
X19616Y7481D01*
X19614Y7481D01*
X19611Y7481D01*
X19611Y7481D01*
X19611Y7481D01*
X19609Y7480D01*
X19606Y7480D01*
X19606Y7480D01*
X19606Y7480D01*
X19256Y7484D01*
X19191Y7471D01*
X19138Y7436D01*
X19104Y7384D01*
X19093Y7332D01*
X19094Y7330D01*
X19094Y7328D01*
Y7328D01*
X19094Y7328D01*
X19094Y7326D01*
X19095Y7323D01*
Y7323D01*
Y7323D01*
X19094Y7319D01*
X19094Y7318D01*
X19094Y7318D01*
Y7318D01*
X19094Y7315D01*
X19093Y7313D01*
X19093Y7313D01*
X19093Y7313D01*
X19093Y7311D01*
X19092Y7308D01*
X19092Y7308D01*
X19092Y7308D01*
X19091Y7306D01*
X19089Y7303D01*
X19089Y7303D01*
X19089Y7303D01*
X19088Y7301D01*
X19086Y7299D01*
X19086Y7299D01*
X19086Y7299D01*
X19085Y7297D01*
X19083Y7295D01*
X19083Y7295D01*
X19083Y7295D01*
X19081Y7293D01*
X19079Y7292D01*
X19079Y7292D01*
X19079Y7292D01*
X19077Y7290D01*
X19075Y7289D01*
X19075Y7289D01*
X19075Y7289D01*
X19072Y7287D01*
X19070Y7286D01*
X19070Y7286D01*
X19070Y7286D01*
X19067Y7285D01*
X19065Y7285D01*
X19065Y7285D01*
X19065Y7285D01*
X19063Y7284D01*
X19060Y7284D01*
X19060D01*
X19060Y7284D01*
X19059Y7284D01*
X19055Y7283D01*
X19051Y7283D01*
X19051Y7283D01*
X16890Y7283D01*
X16885Y7284D01*
X16880Y7285D01*
X16875Y7286D01*
X16870Y7289D01*
X16866Y7292D01*
X16862Y7295D01*
X16858Y7299D01*
X16856Y7303D01*
X16853Y7308D01*
X16852Y7313D01*
X16851Y7318D01*
X16850Y7323D01*
Y7874D01*
X16851Y7879D01*
X16852Y7884D01*
X16853Y7889D01*
X16856Y7894D01*
X16858Y7898D01*
X16862Y7902D01*
X16866Y7905D01*
X16870Y7908D01*
X16875Y7910D01*
X16880Y7912D01*
X16885Y7913D01*
X16890Y7913D01*
X19606D01*
X19611Y7913D01*
D02*
G37*
G36*
X19059Y8858D02*
X19060Y8858D01*
X19060Y8858D01*
X19060D01*
X19063Y8858D01*
X19065Y8857D01*
X19065Y8857D01*
X19065Y8857D01*
X19067Y8857D01*
X19070Y8855D01*
X19070Y8855D01*
X19070Y8855D01*
X19072Y8854D01*
X19075Y8853D01*
X19075Y8853D01*
X19075Y8853D01*
X19077Y8851D01*
X19079Y8850D01*
X19079Y8850D01*
X19079Y8850D01*
X19081Y8848D01*
X19083Y8847D01*
X19083Y8847D01*
X19083Y8847D01*
X19085Y8845D01*
X19086Y8843D01*
X19086Y8843D01*
X19086Y8843D01*
X19088Y8841D01*
X19089Y8839D01*
X19089Y8839D01*
X19089Y8839D01*
X19091Y8836D01*
X19092Y8834D01*
X19092Y8834D01*
X19092Y8834D01*
X19093Y8831D01*
X19093Y8829D01*
X19093Y8829D01*
X19093Y8829D01*
X19094Y8827D01*
X19094Y8824D01*
Y8824D01*
X19094Y8824D01*
X19094Y8822D01*
X19095Y8819D01*
Y8819D01*
Y8819D01*
X19094Y8816D01*
X19094Y8814D01*
X19094Y8814D01*
Y8814D01*
X19094Y8811D01*
X19093Y8809D01*
X19104Y8758D01*
X19138Y8705D01*
X19191Y8671D01*
X19256Y8658D01*
X19606Y8662D01*
X19606Y8661D01*
X19606Y8662D01*
X19609Y8661D01*
X19611Y8661D01*
X19611Y8661D01*
X19611Y8661D01*
X19614Y8661D01*
X19616Y8660D01*
X19616Y8660D01*
X19617Y8660D01*
X19619Y8659D01*
X19621Y8659D01*
X19621Y8659D01*
X19621Y8658D01*
X19624Y8657D01*
X19626Y8656D01*
X19626Y8656D01*
X19626Y8656D01*
X19628Y8655D01*
X19630Y8654D01*
X19630Y8653D01*
X19630Y8653D01*
X19632Y8652D01*
X19634Y8650D01*
X19634Y8650D01*
X19634Y8650D01*
X19636Y8648D01*
X19637Y8646D01*
X19637Y8646D01*
X19638Y8646D01*
X19639Y8644D01*
X19640Y8642D01*
X19640Y8642D01*
X19640Y8642D01*
X19642Y8640D01*
X19643Y8638D01*
X19643Y8637D01*
X19643Y8637D01*
X19644Y8635D01*
X19644Y8633D01*
X19644Y8632D01*
X19644Y8632D01*
X19645Y8630D01*
X19645Y8628D01*
X19645Y8627D01*
X19645Y8627D01*
X19646Y8625D01*
X19646Y8622D01*
X19646Y8622D01*
X19646Y8622D01*
Y8268D01*
X19645Y8263D01*
X19644Y8258D01*
X19643Y8253D01*
X19640Y8248D01*
X19638Y8244D01*
X19634Y8240D01*
X19630Y8236D01*
X19626Y8234D01*
X19621Y8231D01*
X19617Y8230D01*
X19611Y8229D01*
X19606Y8228D01*
X16890D01*
X16885Y8229D01*
X16880Y8230D01*
X16875Y8231D01*
X16870Y8234D01*
X16866Y8236D01*
X16862Y8240D01*
X16858Y8244D01*
X16856Y8248D01*
X16853Y8253D01*
X16852Y8258D01*
X16851Y8263D01*
X16850Y8268D01*
Y8819D01*
X16851Y8824D01*
X16852Y8829D01*
X16853Y8834D01*
X16856Y8839D01*
X16858Y8843D01*
X16862Y8847D01*
X16866Y8850D01*
X16870Y8853D01*
X16875Y8855D01*
X16880Y8857D01*
X16885Y8858D01*
X16890Y8858D01*
X19055D01*
X19059Y8858D01*
D02*
G37*
D46*
X7146Y3071D02*
D03*
X6555D02*
D03*
X8484Y13268D02*
D03*
X9075D02*
D03*
X7028Y5551D02*
D03*
X7618D02*
D03*
X2894Y13189D02*
D03*
X3484D02*
D03*
X2894Y12717D02*
D03*
X3484D02*
D03*
X2894Y9528D02*
D03*
X3484D02*
D03*
X1870Y7756D02*
D03*
X2461D02*
D03*
X1870Y8228D02*
D03*
X2461D02*
D03*
X1870Y8701D02*
D03*
X2461D02*
D03*
X3012Y11024D02*
D03*
X3602D02*
D03*
X8484Y8839D02*
D03*
X9075D02*
D03*
X8484Y9488D02*
D03*
X9075D02*
D03*
X8484Y10118D02*
D03*
X9075D02*
D03*
X8484Y10748D02*
D03*
X9075D02*
D03*
X8484Y11378D02*
D03*
X9075D02*
D03*
X8484Y11969D02*
D03*
X9075D02*
D03*
X3484Y12244D02*
D03*
X2894D02*
D03*
D47*
X6417Y4803D02*
D03*
Y5354D02*
D03*
X9803Y4134D02*
D03*
Y3583D02*
D03*
X2598Y1024D02*
D03*
Y472D02*
D03*
X709Y11811D02*
D03*
Y11260D02*
D03*
D48*
X3701Y4606D02*
D03*
Y4980D02*
D03*
Y5354D02*
D03*
X2756Y4606D02*
D03*
Y4980D02*
D03*
D49*
Y5354D02*
D03*
D50*
X1811Y12402D02*
D03*
D51*
Y12776D02*
D03*
Y13150D02*
D03*
X780Y12402D02*
D03*
Y12776D02*
D03*
Y13150D02*
D03*
D52*
X6654Y3622D02*
D03*
Y3819D02*
D03*
Y4016D02*
D03*
Y4213D02*
D03*
Y4409D02*
D03*
X4921Y3622D02*
D03*
Y3819D02*
D03*
Y4016D02*
D03*
Y4213D02*
D03*
D53*
Y4409D02*
D03*
D54*
X7815Y6929D02*
D03*
X8878D02*
D03*
X11791Y5866D02*
D03*
X12854D02*
D03*
X11791Y9409D02*
D03*
X12854D02*
D03*
X11791Y12953D02*
D03*
X12854D02*
D03*
X13406Y3110D02*
D03*
X14468D02*
D03*
D55*
X12205Y3819D02*
D03*
X12756D02*
D03*
X7047Y5079D02*
D03*
X7598D02*
D03*
X906Y8701D02*
D03*
X1457D02*
D03*
X906Y8228D02*
D03*
X1457D02*
D03*
X906Y7756D02*
D03*
X1457D02*
D03*
X6654Y7244D02*
D03*
X7205D02*
D03*
X3031Y10551D02*
D03*
X3583D02*
D03*
X3031Y8898D02*
D03*
X3583D02*
D03*
X3031Y8071D02*
D03*
X3583D02*
D03*
X12283Y3268D02*
D03*
X12835D02*
D03*
D56*
X6083Y10650D02*
D03*
D57*
X4606Y13307D02*
D03*
D58*
Y13110D02*
D03*
Y12913D02*
D03*
Y12717D02*
D03*
Y12520D02*
D03*
Y12323D02*
D03*
Y12126D02*
D03*
Y11929D02*
D03*
Y11732D02*
D03*
Y11535D02*
D03*
Y11339D02*
D03*
Y11142D02*
D03*
Y10945D02*
D03*
Y10748D02*
D03*
Y10551D02*
D03*
Y10354D02*
D03*
Y10157D02*
D03*
Y9961D02*
D03*
Y9764D02*
D03*
Y9567D02*
D03*
Y9370D02*
D03*
Y9173D02*
D03*
Y8976D02*
D03*
Y8780D02*
D03*
Y8583D02*
D03*
Y8386D02*
D03*
Y8189D02*
D03*
Y7992D02*
D03*
X7559Y13307D02*
D03*
Y13110D02*
D03*
Y12913D02*
D03*
Y12717D02*
D03*
Y12520D02*
D03*
Y12323D02*
D03*
Y12126D02*
D03*
Y11929D02*
D03*
Y11732D02*
D03*
Y11535D02*
D03*
Y11339D02*
D03*
Y11142D02*
D03*
Y10945D02*
D03*
Y10748D02*
D03*
Y10551D02*
D03*
Y10354D02*
D03*
Y10157D02*
D03*
Y9961D02*
D03*
Y9764D02*
D03*
Y9567D02*
D03*
Y9370D02*
D03*
Y9173D02*
D03*
Y8976D02*
D03*
Y8780D02*
D03*
Y8583D02*
D03*
Y8386D02*
D03*
Y8189D02*
D03*
Y7992D02*
D03*
D59*
X10827Y7638D02*
D03*
X13031D02*
D03*
X10906Y11181D02*
D03*
X13110D02*
D03*
D60*
X3307Y2028D02*
D03*
Y965D02*
D03*
D61*
X9803Y5256D02*
D03*
Y4665D02*
D03*
X2598Y2106D02*
D03*
Y1516D02*
D03*
X7520Y4114D02*
D03*
Y3524D02*
D03*
D62*
X14461Y12047D02*
D03*
X14461Y9488D02*
D03*
Y6929D02*
D03*
X14869Y1220D02*
D03*
D63*
X15965Y12797D02*
D03*
Y12297D02*
D03*
Y11797D02*
D03*
Y11297D02*
D03*
X15965Y10238D02*
D03*
Y9738D02*
D03*
Y9238D02*
D03*
Y8738D02*
D03*
Y7679D02*
D03*
Y7179D02*
D03*
Y6679D02*
D03*
Y6179D02*
D03*
X13366Y470D02*
D03*
Y970D02*
D03*
Y1470D02*
D03*
Y1970D02*
D03*
D64*
X17520Y2362D02*
D03*
Y4921D02*
D03*
Y7677D02*
D03*
X17520Y10433D02*
D03*
X17520Y13189D02*
D03*
D65*
X9252Y827D02*
D03*
X945Y394D02*
D03*
D66*
X6201Y535D02*
D03*
X6701Y1535D02*
D03*
X7201Y535D02*
D03*
X7701Y1535D02*
D03*
X8201Y535D02*
D03*
X8701Y1535D02*
D03*
X654Y4445D02*
D03*
X1654Y3945D02*
D03*
X654Y3445D02*
D03*
X1654Y2945D02*
D03*
X654Y2445D02*
D03*
X1654Y1945D02*
D03*
X654Y1445D02*
D03*
X1654Y945D02*
D03*
M02*
