G04 Layer_Color=8388736*
%FSLAX24Y24*%
%MOIN*%
G70*
G01*
G75*
%ADD51R,0.0512X0.0748*%
%ADD52O,0.0650X0.0197*%
%ADD53R,0.0650X0.0197*%
%ADD54R,0.0551X0.0315*%
%ADD55O,0.0551X0.0315*%
%ADD56R,0.0394X0.0433*%
%ADD57R,0.1496X0.2598*%
%ADD58R,0.0689X0.0197*%
%ADD59O,0.0689X0.0197*%
G04:AMPARAMS|DCode=60|XSize=145.7mil|YSize=70.9mil|CornerRadius=11.8mil|HoleSize=0mil|Usage=FLASHONLY|Rotation=0.000|XOffset=0mil|YOffset=0mil|HoleType=Round|Shape=RoundedRectangle|*
%AMROUNDEDRECTD60*
21,1,0.1457,0.0472,0,0,0.0*
21,1,0.1220,0.0709,0,0,0.0*
1,1,0.0236,0.0610,-0.0236*
1,1,0.0236,-0.0610,-0.0236*
1,1,0.0236,-0.0610,0.0236*
1,1,0.0236,0.0610,0.0236*
%
%ADD60ROUNDEDRECTD60*%
%ADD61R,0.0472X0.0354*%
%ADD62O,0.0472X0.0354*%
%ADD63R,0.0354X0.0433*%
%ADD64R,0.0748X0.0512*%
%ADD65R,0.0433X0.0394*%
%ADD66R,0.0433X0.0354*%
%ADD67R,0.1899X0.1859*%
%ADD68R,0.0729X0.0319*%
%ADD69R,0.1732X0.2717*%
%ADD70R,0.1732X0.1929*%
%ADD71C,0.0079*%
%ADD72C,0.0591*%
G36*
X19685Y177D02*
X17441D01*
Y4547D01*
X19685D01*
Y177D01*
D02*
G37*
G36*
Y5295D02*
X17441D01*
Y13602D01*
X19685D01*
Y5295D01*
D02*
G37*
D51*
X7815Y6929D02*
D03*
X8878D02*
D03*
X11791Y5866D02*
D03*
X12854D02*
D03*
X11791Y9409D02*
D03*
X12854D02*
D03*
X11791Y12953D02*
D03*
X12854D02*
D03*
X13406Y2874D02*
D03*
X14468D02*
D03*
D52*
X6654Y4409D02*
D03*
Y4213D02*
D03*
Y4016D02*
D03*
Y3819D02*
D03*
Y3622D02*
D03*
X4921Y3819D02*
D03*
Y3622D02*
D03*
Y4213D02*
D03*
Y4016D02*
D03*
D53*
Y4409D02*
D03*
D54*
X1811Y12402D02*
D03*
D55*
Y12776D02*
D03*
Y13150D02*
D03*
X780Y12402D02*
D03*
Y12776D02*
D03*
Y13150D02*
D03*
D56*
X12205Y3819D02*
D03*
X12756D02*
D03*
X7047Y5039D02*
D03*
X7598D02*
D03*
X906Y8701D02*
D03*
X1457D02*
D03*
X906Y8228D02*
D03*
X1457D02*
D03*
X906Y7756D02*
D03*
X1457D02*
D03*
X6654Y7244D02*
D03*
X7205D02*
D03*
X3031Y10551D02*
D03*
X3583D02*
D03*
X3031Y8898D02*
D03*
X3583D02*
D03*
X3031Y8071D02*
D03*
X3583D02*
D03*
X12283Y3031D02*
D03*
X12835D02*
D03*
D57*
X6083Y10650D02*
D03*
D58*
X4606Y13307D02*
D03*
D59*
Y13110D02*
D03*
Y12913D02*
D03*
Y12717D02*
D03*
Y12520D02*
D03*
Y12323D02*
D03*
Y12126D02*
D03*
Y11929D02*
D03*
Y11732D02*
D03*
Y11535D02*
D03*
Y11339D02*
D03*
Y11142D02*
D03*
Y10945D02*
D03*
Y10748D02*
D03*
Y10551D02*
D03*
Y10354D02*
D03*
Y10157D02*
D03*
Y9961D02*
D03*
Y9764D02*
D03*
Y9567D02*
D03*
Y9370D02*
D03*
Y9173D02*
D03*
Y8976D02*
D03*
Y8780D02*
D03*
Y8583D02*
D03*
Y8386D02*
D03*
Y8189D02*
D03*
Y7992D02*
D03*
X7559Y13307D02*
D03*
Y13110D02*
D03*
Y12913D02*
D03*
Y12717D02*
D03*
Y12520D02*
D03*
Y12323D02*
D03*
Y12126D02*
D03*
Y11929D02*
D03*
Y11732D02*
D03*
Y11535D02*
D03*
Y11339D02*
D03*
Y11142D02*
D03*
Y10945D02*
D03*
Y10748D02*
D03*
Y10551D02*
D03*
Y10354D02*
D03*
Y10157D02*
D03*
Y9961D02*
D03*
Y9764D02*
D03*
Y9567D02*
D03*
Y9370D02*
D03*
Y9173D02*
D03*
Y8976D02*
D03*
Y8780D02*
D03*
Y8583D02*
D03*
Y8386D02*
D03*
Y8189D02*
D03*
Y7992D02*
D03*
D60*
X10827Y7638D02*
D03*
X13031D02*
D03*
X10906Y11181D02*
D03*
X13110D02*
D03*
D61*
X2756Y5354D02*
D03*
D62*
Y4606D02*
D03*
Y4980D02*
D03*
X3701Y4606D02*
D03*
Y4980D02*
D03*
Y5354D02*
D03*
D63*
X8484Y13268D02*
D03*
X9075D02*
D03*
X7028Y5551D02*
D03*
X7618D02*
D03*
X2894Y13189D02*
D03*
X3484D02*
D03*
X2894Y12717D02*
D03*
X3484D02*
D03*
X2894Y9528D02*
D03*
X3484D02*
D03*
X1870Y7756D02*
D03*
X2461D02*
D03*
X1870Y8228D02*
D03*
X2461D02*
D03*
X1870Y8701D02*
D03*
X2461D02*
D03*
X3012Y11024D02*
D03*
X3602D02*
D03*
X8484Y8839D02*
D03*
X9075D02*
D03*
X8484Y9488D02*
D03*
X9075D02*
D03*
X8484Y10118D02*
D03*
X9075D02*
D03*
X8484Y10748D02*
D03*
X9075D02*
D03*
X8484Y11378D02*
D03*
X9075D02*
D03*
X8484Y11969D02*
D03*
X9075D02*
D03*
X3484Y12244D02*
D03*
X2894D02*
D03*
D64*
X3307Y2028D02*
D03*
Y965D02*
D03*
D65*
X9803Y4134D02*
D03*
Y3583D02*
D03*
X2598Y1024D02*
D03*
Y472D02*
D03*
X709Y11811D02*
D03*
Y11260D02*
D03*
D66*
X9803Y5256D02*
D03*
Y4665D02*
D03*
X2598Y2106D02*
D03*
Y1516D02*
D03*
X7520Y4114D02*
D03*
Y3524D02*
D03*
D67*
X14461Y12047D02*
D03*
X14461Y9488D02*
D03*
Y6929D02*
D03*
X14869Y1220D02*
D03*
D68*
X15965Y12797D02*
D03*
Y12297D02*
D03*
Y11797D02*
D03*
Y11297D02*
D03*
X15965Y10238D02*
D03*
Y9738D02*
D03*
Y9238D02*
D03*
Y8738D02*
D03*
Y7679D02*
D03*
Y7179D02*
D03*
Y6679D02*
D03*
Y6179D02*
D03*
X13366Y470D02*
D03*
Y970D02*
D03*
Y1470D02*
D03*
Y1970D02*
D03*
D69*
X18307Y12205D02*
D03*
Y9449D02*
D03*
Y6693D02*
D03*
D70*
Y3543D02*
D03*
Y1181D02*
D03*
D71*
X9252Y827D02*
D03*
X945Y394D02*
D03*
D72*
X6201Y535D02*
D03*
X6701Y1535D02*
D03*
X7201Y535D02*
D03*
X7701Y1535D02*
D03*
X8201Y535D02*
D03*
X8701Y1535D02*
D03*
X654Y4445D02*
D03*
X1654Y3945D02*
D03*
X654Y3445D02*
D03*
X1654Y2945D02*
D03*
X654Y2445D02*
D03*
X1654Y1945D02*
D03*
X654Y1445D02*
D03*
X1654Y945D02*
D03*
M02*
