G04 Layer_Color=65535*
%FSLAX24Y24*%
%MOIN*%
G70*
G01*
G75*
%ADD43C,0.0079*%
%ADD44C,0.0060*%
%ADD45C,0.0100*%
G36*
X2283Y5198D02*
X79D01*
Y7402D01*
X2283D01*
Y5198D01*
D02*
G37*
D43*
X5738Y4508D02*
G03*
X5837Y4508I49J0D01*
G01*
X6772Y3209D02*
X6929D01*
X6772Y2933D02*
X6929D01*
X3209Y5551D02*
X3297D01*
X3150Y5492D02*
X3209Y5551D01*
X3150Y4419D02*
Y5492D01*
X3297Y4419D02*
Y5551D01*
X3150Y4419D02*
X3297D01*
X1344Y12215D02*
Y13337D01*
X1246D02*
X1344D01*
X1246Y12215D02*
Y13337D01*
Y12215D02*
X1344D01*
X5535Y3524D02*
Y4508D01*
Y3524D02*
X6039D01*
Y4508D01*
X5837D02*
X6039D01*
X5535D02*
X5738D01*
X8189Y6634D02*
X8504D01*
X8189Y7224D02*
X8504D01*
X6925Y7894D02*
Y13406D01*
X5240Y7894D02*
X6925D01*
X5240D02*
Y13104D01*
X5541Y13406D01*
X6919D01*
X8701Y13130D02*
X8858D01*
X8701Y13406D02*
X8858D01*
X7244Y5413D02*
X7402D01*
X7244Y5689D02*
X7402D01*
X3110Y13051D02*
X3268D01*
X3110Y13327D02*
X3268D01*
X3110Y12579D02*
X3268D01*
X3110Y12854D02*
X3268D01*
X3110Y9390D02*
X3268D01*
X3110Y9665D02*
X3268D01*
X2087Y7618D02*
X2244D01*
X2087Y7894D02*
X2244D01*
X2087Y8091D02*
X2244D01*
X2087Y8366D02*
X2244D01*
X2087Y8563D02*
X2244D01*
X2087Y8839D02*
X2244D01*
X3228Y10886D02*
X3386D01*
X3228Y11161D02*
X3386D01*
X3602Y1339D02*
Y1654D01*
X3012Y1339D02*
Y1654D01*
X8701Y8701D02*
X8858D01*
X8701Y8976D02*
X8858D01*
X8701Y9350D02*
X8858D01*
X8701Y9626D02*
X8858D01*
X8701Y9980D02*
X8858D01*
X8701Y10256D02*
X8858D01*
X8701Y10610D02*
X8858D01*
X8701Y10886D02*
X8858D01*
X8701Y11240D02*
X8858D01*
X8701Y11516D02*
X8858D01*
X8701Y11831D02*
X8858D01*
X8701Y12106D02*
X8858D01*
X12165Y5571D02*
X12480D01*
X12165Y6161D02*
X12480D01*
X12165Y9114D02*
X12480D01*
X12165Y9705D02*
X12480D01*
X12165Y12657D02*
X12480D01*
X12165Y13248D02*
X12480D01*
X9941Y4882D02*
Y5039D01*
X9665Y4882D02*
Y5039D01*
X2461Y1732D02*
Y1890D01*
X2736Y1732D02*
Y1890D01*
X7382Y3740D02*
Y3898D01*
X7657Y3740D02*
Y3898D01*
X3110Y12106D02*
X3268D01*
X3110Y12382D02*
X3268D01*
X13780Y2815D02*
X14094D01*
X13780Y3406D02*
X14094D01*
D44*
X10630Y6339D02*
Y7185D01*
X11772Y6850D02*
Y8425D01*
X10630Y6339D02*
X12795D01*
X10630Y8091D02*
Y8937D01*
X11654Y7638D02*
X11732D01*
X10630Y8937D02*
X12795D01*
X12126Y7638D02*
X12205D01*
X12087Y6850D02*
Y8425D01*
X12795Y6339D02*
X13228Y6772D01*
Y7146D01*
Y8130D02*
Y8504D01*
X12795Y8937D02*
X13228Y8504D01*
X13268Y8898D02*
X13465D01*
X13071D02*
X13268D01*
Y8701D02*
Y9094D01*
X10709Y9882D02*
Y10728D01*
X11850Y10394D02*
Y11969D01*
X10709Y9882D02*
X12874D01*
X10709Y11634D02*
Y12480D01*
X11732Y11181D02*
X11811D01*
X10709Y12480D02*
X12874D01*
X12205Y11181D02*
X12283D01*
X12165Y10394D02*
Y11969D01*
X12874Y9882D02*
X13307Y10315D01*
Y10689D01*
Y11673D02*
Y12047D01*
X12874Y12480D02*
X13307Y12047D01*
X13346Y12441D02*
X13543D01*
X13150D02*
X13346D01*
Y12244D02*
Y12638D01*
D45*
X14685Y3740D02*
X15105D01*
X14895Y3950D02*
Y3530D01*
X12874Y4672D02*
X13084Y4252D01*
X13294Y4672D01*
X13504Y4777D02*
X13609Y4882D01*
X13819D01*
X13924Y4777D01*
Y4357D01*
X13819Y4252D01*
X13609D01*
X13504Y4357D01*
Y4777D01*
X14133Y4252D02*
Y4357D01*
X14238D01*
Y4252D01*
X14133D01*
X14658Y4777D02*
X14763Y4882D01*
X14973D01*
X15078Y4777D01*
Y4672D01*
X14973Y4567D01*
X14868D01*
X14973D01*
X15078Y4462D01*
Y4357D01*
X14973Y4252D01*
X14763D01*
X14658Y4357D01*
M02*
