G04 Layer_Physical_Order=1*
G04 Layer_Color=255*
%FSLAX24Y24*%
%MOIN*%
G70*
G01*
G75*
%ADD10R,0.0433X0.0669*%
%ADD11O,0.0571X0.0118*%
%ADD12R,0.0571X0.0118*%
%ADD13R,0.0472X0.0236*%
%ADD14O,0.0472X0.0236*%
%ADD15R,0.0315X0.0354*%
%ADD16R,0.1417X0.2520*%
%ADD17R,0.0610X0.0118*%
%ADD18O,0.0610X0.0118*%
G04:AMPARAMS|DCode=19|XSize=137.8mil|YSize=63mil|CornerRadius=7.9mil|HoleSize=0mil|Usage=FLASHONLY|Rotation=0.000|XOffset=0mil|YOffset=0mil|HoleType=Round|Shape=RoundedRectangle|*
%AMROUNDEDRECTD19*
21,1,0.1378,0.0472,0,0,0.0*
21,1,0.1220,0.0630,0,0,0.0*
1,1,0.0157,0.0610,-0.0236*
1,1,0.0157,-0.0610,-0.0236*
1,1,0.0157,-0.0610,0.0236*
1,1,0.0157,0.0610,0.0236*
%
%ADD19ROUNDEDRECTD19*%
%ADD20R,0.0394X0.0276*%
%ADD21O,0.0394X0.0276*%
%ADD22R,0.0276X0.0354*%
%ADD23R,0.0669X0.0433*%
%ADD24R,0.0354X0.0315*%
%ADD25R,0.0354X0.0276*%
%ADD26R,0.1820X0.1780*%
%ADD27R,0.0650X0.0240*%
%ADD28C,0.0197*%
%ADD29C,0.0118*%
%ADD30R,0.1654X0.2638*%
%ADD31R,0.1654X0.1850*%
%ADD32C,0.0512*%
%ADD33C,0.0315*%
%ADD34C,0.0276*%
G36*
X5529Y7986D02*
Y7766D01*
X5411Y7682D01*
X5394Y7686D01*
X5309Y7669D01*
X5238Y7621D01*
X5227Y7605D01*
X4522D01*
X4273Y7855D01*
X4227Y7886D01*
X4173Y7896D01*
X3819D01*
Y8048D01*
X3960D01*
X3960Y8048D01*
X4852D01*
X4906Y8059D01*
X4952Y8090D01*
X4982Y8135D01*
X4993Y8189D01*
X4982Y8243D01*
X4978Y8250D01*
X5011Y8356D01*
X5126Y8389D01*
X5529Y7986D01*
D02*
G37*
G36*
X19134Y10787D02*
X19134Y8112D01*
X19134Y8112D01*
X16184Y8112D01*
X16176Y8110D01*
X15872Y8110D01*
X15856Y8195D01*
X15808Y8266D01*
X15736Y8314D01*
X15652Y8331D01*
X15567Y8314D01*
X15553Y8305D01*
X15435Y8368D01*
Y8519D01*
X15450D01*
Y10022D01*
X15561Y10039D01*
Y10039D01*
X16368D01*
Y10437D01*
X16004D01*
X15829Y10611D01*
X15833Y10630D01*
X15825Y10669D01*
X15888Y10771D01*
X15909Y10787D01*
X19134Y10787D01*
D02*
G37*
G36*
X12402Y11541D02*
X12386Y11531D01*
X12352Y11479D01*
X12339Y11417D01*
Y10945D01*
X12352Y10883D01*
X12386Y10831D01*
X12402Y10821D01*
Y8031D01*
X12360Y8022D01*
X12308Y7988D01*
X12273Y7935D01*
X12261Y7874D01*
Y7402D01*
X12273Y7340D01*
X12308Y7288D01*
X12360Y7253D01*
X12402Y7245D01*
Y2953D01*
X13189Y2165D01*
X13780Y2165D01*
X13780Y862D01*
X13770Y669D01*
X13458Y669D01*
X13451Y674D01*
X13366Y691D01*
X13282Y674D01*
X13274Y669D01*
X12962D01*
Y277D01*
X12962Y272D01*
X12949Y80D01*
X9785D01*
X9646Y219D01*
X9646Y3898D01*
X10059D01*
Y4370D01*
X10059D01*
Y4449D01*
X10059D01*
Y4882D01*
X10059D01*
Y5039D01*
X10059D01*
Y5472D01*
X10059Y5472D01*
X10036Y5669D01*
X10044Y5709D01*
X10026Y5801D01*
X9973Y5879D01*
X9895Y5931D01*
X9821Y5946D01*
X9646Y6122D01*
Y8212D01*
X9653Y8223D01*
X9670Y8307D01*
X9653Y8392D01*
X9646Y8402D01*
Y8423D01*
X9647Y8423D01*
X9677Y8469D01*
X9688Y8523D01*
Y9156D01*
X9677Y9210D01*
X9647Y9256D01*
X9646Y9257D01*
Y9629D01*
X9653Y9640D01*
X9670Y9724D01*
X9653Y9809D01*
X9646Y9820D01*
Y9984D01*
X9653Y9994D01*
X9670Y10079D01*
X9653Y10163D01*
X9646Y10174D01*
Y10338D01*
X9653Y10349D01*
X9670Y10433D01*
X9653Y10518D01*
X9646Y10528D01*
Y10692D01*
X9653Y10703D01*
X9670Y10787D01*
X9653Y10872D01*
X9646Y10883D01*
Y11047D01*
X9653Y11057D01*
X9670Y11142D01*
X9653Y11226D01*
X9646Y11237D01*
X9646Y12110D01*
X9653Y12120D01*
X9670Y12205D01*
X9653Y12289D01*
X9646Y12300D01*
Y12621D01*
X9653Y12632D01*
X9670Y12717D01*
X9653Y12801D01*
X9646Y12812D01*
Y12976D01*
X9653Y12986D01*
X9670Y13071D01*
X9653Y13155D01*
X9646Y13166D01*
Y13699D01*
X12402D01*
Y11541D01*
D02*
G37*
G36*
X15354Y13377D02*
X15312Y13313D01*
X15295Y13228D01*
X15312Y13144D01*
X15354Y13080D01*
Y5118D01*
X15945Y4528D01*
X16521D01*
X16524Y4526D01*
X16634Y4480D01*
X16752Y4464D01*
Y4467D01*
X18995D01*
X19134Y4328D01*
X19134Y2559D01*
X13701Y2559D01*
Y3287D01*
X13110D01*
Y3287D01*
X13071Y3287D01*
Y3287D01*
X12657D01*
X12598Y3346D01*
X12598Y13560D01*
X12738Y13699D01*
X15354D01*
Y13377D01*
D02*
G37*
G36*
X505Y5545D02*
X553Y5474D01*
X624Y5426D01*
X709Y5409D01*
X727Y5413D01*
X907Y5233D01*
Y3897D01*
X769Y3759D01*
X741Y3771D01*
X654Y3782D01*
X566Y3771D01*
X495Y3741D01*
X454Y3756D01*
X377Y3803D01*
Y5583D01*
X495Y5595D01*
X505Y5545D01*
D02*
G37*
G36*
X19134Y5459D02*
X19050Y5376D01*
X16752D01*
Y5378D01*
X16634Y5362D01*
X16524Y5317D01*
X16521Y5315D01*
X15518Y5315D01*
X15435Y5398D01*
Y5960D01*
X15450D01*
Y7463D01*
X15561Y7480D01*
Y7480D01*
X16368D01*
Y7878D01*
X16148D01*
X16122Y7913D01*
X16184Y8031D01*
X19134Y8031D01*
X19134Y5459D01*
D02*
G37*
G36*
X8071Y7402D02*
X8071Y6630D01*
X8015Y6575D01*
X7559D01*
X7008Y7025D01*
X7008Y7441D01*
X7145Y7784D01*
X7164Y7797D01*
X7212Y7868D01*
X7229Y7953D01*
X7223Y7980D01*
X7225Y7984D01*
X7290Y8048D01*
X7805D01*
X7852Y8058D01*
X8071Y7402D01*
D02*
G37*
G36*
X6976Y12903D02*
Y12044D01*
X6982Y12015D01*
X6991Y11918D01*
X6936Y11859D01*
X6922Y11849D01*
X6874Y11777D01*
X6857Y11693D01*
X6874Y11608D01*
X6922Y11537D01*
X6938Y11526D01*
X6964Y11495D01*
X6916Y11423D01*
X6899Y11339D01*
X6916Y11254D01*
X6964Y11182D01*
X7036Y11135D01*
X7069Y11128D01*
X7079Y11115D01*
X7114Y11043D01*
X7079Y10971D01*
X7069Y10959D01*
X7036Y10952D01*
X6964Y10904D01*
X6916Y10833D01*
X6899Y10748D01*
X6916Y10664D01*
X6936Y10634D01*
X6955Y10551D01*
X6936Y10469D01*
X6916Y10439D01*
X6899Y10354D01*
X6916Y10270D01*
X6964Y10198D01*
X7036Y10150D01*
X7069Y10144D01*
X7079Y10131D01*
X7114Y10059D01*
X7079Y9987D01*
X7069Y9974D01*
X7036Y9968D01*
X6964Y9920D01*
X6916Y9848D01*
X6899Y9764D01*
X6916Y9679D01*
X6936Y9650D01*
X6955Y9567D01*
X6936Y9484D01*
X6916Y9455D01*
X6899Y9370D01*
X6906Y9337D01*
X6923Y9220D01*
X6852Y9172D01*
X6804Y9100D01*
X6787Y9016D01*
X6804Y8931D01*
X6850Y8862D01*
X6784Y8818D01*
X6736Y8746D01*
X6719Y8661D01*
X6736Y8577D01*
X6784Y8505D01*
Y8463D01*
X6736Y8392D01*
X6719Y8307D01*
X6736Y8223D01*
X6784Y8151D01*
X6850Y8107D01*
X6804Y8037D01*
X6787Y7953D01*
X6804Y7868D01*
X6852Y7797D01*
X6923Y7749D01*
X6992Y7618D01*
X6933Y7471D01*
X6931Y7456D01*
X6928Y7441D01*
X6928Y7025D01*
X6928Y7021D01*
X6928Y7017D01*
X6931Y7005D01*
X6934Y6994D01*
X6936Y6991D01*
X6937Y6987D01*
X6945Y6978D01*
X6951Y6968D01*
X6955Y6966D01*
X6957Y6963D01*
X7508Y6513D01*
X7519Y6507D01*
X7528Y6501D01*
X7532Y6500D01*
X7536Y6498D01*
X7548Y6497D01*
X7559Y6495D01*
X8001Y6495D01*
X8015Y6495D01*
X8015Y6495D01*
X8015Y6495D01*
X8046Y6501D01*
X8048Y6502D01*
X8110Y6516D01*
X8110Y6556D01*
X8128Y6574D01*
X8145Y6600D01*
X8151Y6630D01*
X8151Y7177D01*
X8235Y7260D01*
X9138D01*
X9229Y7169D01*
Y6102D01*
X9243Y6033D01*
X9252Y6019D01*
Y1204D01*
X9154Y1191D01*
X9063Y1153D01*
X8985Y1094D01*
X8925Y1015D01*
X8888Y924D01*
X8875Y827D01*
X8888Y729D01*
X8925Y638D01*
X8985Y560D01*
X9063Y500D01*
X9154Y462D01*
X9252Y450D01*
Y80D01*
X1325D01*
X1266Y198D01*
X1272Y205D01*
X1309Y296D01*
X1322Y394D01*
X1309Y491D01*
X1272Y582D01*
X1212Y660D01*
X1133Y720D01*
X1043Y758D01*
X945Y771D01*
X847Y758D01*
X756Y720D01*
X678Y660D01*
X618Y582D01*
X580Y491D01*
X568Y394D01*
X580Y296D01*
X618Y205D01*
X623Y198D01*
X565Y80D01*
X80D01*
Y1652D01*
X198Y1701D01*
X339Y1561D01*
X328Y1532D01*
X316Y1445D01*
X328Y1358D01*
X361Y1276D01*
X415Y1206D01*
X485Y1153D01*
X566Y1119D01*
X654Y1107D01*
X741Y1119D01*
X822Y1153D01*
X892Y1206D01*
X946Y1276D01*
X958Y1304D01*
X1937D01*
X1991Y1315D01*
X2036Y1346D01*
X2233Y1543D01*
X2343Y1497D01*
Y1299D01*
X2343D01*
Y1260D01*
X2343Y1260D01*
Y827D01*
X2343Y709D01*
X2343Y669D01*
Y531D01*
X2854D01*
Y669D01*
X2854Y787D01*
X2854Y827D01*
Y1260D01*
X2854D01*
Y1299D01*
X2854D01*
Y1630D01*
X2894Y1732D01*
X2972Y1732D01*
X3720D01*
Y2262D01*
X3725Y2283D01*
X3721Y2302D01*
X4468Y3048D01*
X5315D01*
X5369Y3059D01*
X5414Y3090D01*
X5611Y3287D01*
X5630Y3283D01*
X5714Y3300D01*
X5786Y3348D01*
X5834Y3419D01*
X5851Y3504D01*
X5840Y3559D01*
X5890Y3651D01*
X5915Y3679D01*
X5958Y3688D01*
X6004Y3718D01*
X6182Y3897D01*
X6290Y3838D01*
X6287Y3819D01*
X6297Y3765D01*
X6327Y3720D01*
X6297Y3676D01*
X6287Y3622D01*
X6297Y3568D01*
X6328Y3523D01*
X6373Y3492D01*
X6398Y3487D01*
X6444Y3414D01*
X6457Y3363D01*
X6450Y3352D01*
X6433Y3268D01*
X6450Y3183D01*
X6497Y3112D01*
X6569Y3064D01*
X6654Y3047D01*
X6672Y3051D01*
X6672Y3050D01*
X6718Y3020D01*
X6772Y3009D01*
X7016D01*
X7104Y2921D01*
Y2465D01*
X6708Y2070D01*
X6538D01*
X6484Y2059D01*
X6438Y2028D01*
X6101Y1692D01*
X6071Y1646D01*
X6060Y1592D01*
Y839D01*
X6032Y828D01*
X5962Y774D01*
X5908Y704D01*
X5875Y623D01*
X5863Y535D01*
X5875Y448D01*
X5908Y367D01*
X5962Y297D01*
X6032Y243D01*
X6113Y209D01*
X6201Y198D01*
X6288Y209D01*
X6370Y243D01*
X6439Y297D01*
X6493Y367D01*
X6527Y448D01*
X6538Y535D01*
X6527Y623D01*
X6493Y704D01*
X6439Y774D01*
X6370Y828D01*
X6341Y839D01*
Y1260D01*
X6459Y1300D01*
X6462Y1297D01*
X6532Y1243D01*
X6613Y1209D01*
X6701Y1198D01*
X6788Y1209D01*
X6870Y1243D01*
X6939Y1297D01*
X6942Y1300D01*
X7060Y1260D01*
Y839D01*
X7032Y828D01*
X6962Y774D01*
X6908Y704D01*
X6875Y623D01*
X6863Y535D01*
X6875Y448D01*
X6908Y367D01*
X6962Y297D01*
X7032Y243D01*
X7113Y209D01*
X7201Y198D01*
X7288Y209D01*
X7370Y243D01*
X7439Y297D01*
X7493Y367D01*
X7527Y448D01*
X7538Y535D01*
X7527Y623D01*
X7493Y704D01*
X7439Y774D01*
X7370Y828D01*
X7341Y839D01*
Y1260D01*
X7459Y1300D01*
X7462Y1297D01*
X7532Y1243D01*
X7613Y1209D01*
X7701Y1198D01*
X7788Y1209D01*
X7870Y1243D01*
X7939Y1297D01*
X7942Y1300D01*
X8060Y1260D01*
Y839D01*
X8032Y828D01*
X7962Y774D01*
X7908Y704D01*
X7875Y623D01*
X7863Y535D01*
X7875Y448D01*
X7908Y367D01*
X7962Y297D01*
X8032Y243D01*
X8113Y209D01*
X8201Y198D01*
X8288Y209D01*
X8370Y243D01*
X8439Y297D01*
X8493Y367D01*
X8527Y448D01*
X8538Y535D01*
X8527Y623D01*
X8493Y704D01*
X8439Y774D01*
X8370Y828D01*
X8341Y839D01*
Y1789D01*
X8331Y1843D01*
X8300Y1888D01*
X8172Y2017D01*
Y4112D01*
X8161Y4166D01*
X8131Y4212D01*
X7834Y4509D01*
X7788Y4539D01*
X7734Y4550D01*
X7047D01*
X7047Y4550D01*
X6427D01*
X6311Y4539D01*
X6280Y4585D01*
X5766Y5099D01*
X5720Y5130D01*
X5667Y5140D01*
X5118D01*
X5083Y5133D01*
X5039Y5142D01*
X4955Y5125D01*
X4883Y5077D01*
X4835Y5006D01*
X4833Y4995D01*
X4816Y4921D01*
X4724Y4906D01*
X4688Y4899D01*
X4570Y4973D01*
Y5214D01*
X4605Y5238D01*
X4615Y5253D01*
X4921D01*
X4975Y5264D01*
X5021Y5294D01*
X5413Y5686D01*
X6093D01*
X6104Y5671D01*
X6175Y5623D01*
X6260Y5606D01*
X6344Y5623D01*
X6416Y5671D01*
X6464Y5742D01*
X6481Y5827D01*
X6464Y5911D01*
X6416Y5983D01*
X6344Y6031D01*
X6260Y6048D01*
X6175Y6031D01*
X6104Y5983D01*
X6093Y5967D01*
X5853D01*
X5797Y6085D01*
X5799Y6088D01*
X5810Y6142D01*
Y8044D01*
X5799Y8098D01*
X5769Y8143D01*
X5068Y8844D01*
X5061Y8902D01*
X5155Y8992D01*
X5157Y8992D01*
X5242Y9009D01*
X5314Y9056D01*
X5361Y9128D01*
X5378Y9213D01*
X5361Y9297D01*
X5314Y9369D01*
X5287Y9387D01*
Y9432D01*
X5334Y9504D01*
X5351Y9588D01*
X5334Y9672D01*
X5333Y9675D01*
X5315Y9796D01*
X5343Y9848D01*
X5361Y9876D01*
X5378Y9961D01*
X5361Y10045D01*
X5314Y10117D01*
X5296Y10129D01*
X5296Y10265D01*
X5314Y10277D01*
X5361Y10349D01*
X5378Y10433D01*
X5361Y10518D01*
X5314Y10589D01*
X5242Y10637D01*
X5206Y10644D01*
Y10765D01*
X5242Y10772D01*
X5314Y10819D01*
X5361Y10891D01*
X5378Y10976D01*
X5361Y11060D01*
X5314Y11132D01*
X5314Y11132D01*
Y11222D01*
X5361Y11293D01*
X5378Y11378D01*
X5361Y11462D01*
X5314Y11534D01*
X5242Y11582D01*
X5157Y11599D01*
X5073Y11582D01*
X5002Y11613D01*
X4982Y11679D01*
X4993Y11732D01*
X4982Y11786D01*
X4952Y11831D01*
X4982Y11875D01*
X4993Y11929D01*
X4982Y11983D01*
X4952Y12028D01*
X4982Y12072D01*
X4993Y12126D01*
X4982Y12180D01*
X4952Y12224D01*
X4982Y12269D01*
X4993Y12323D01*
X4982Y12377D01*
X4952Y12421D01*
X4982Y12466D01*
X4993Y12520D01*
X4982Y12573D01*
X4952Y12618D01*
X4982Y12663D01*
X4993Y12717D01*
X4982Y12770D01*
X4952Y12815D01*
X4982Y12860D01*
X4993Y12913D01*
X4982Y12967D01*
X4952Y13012D01*
X4982Y13056D01*
X4993Y13110D01*
X4990Y13169D01*
X4990Y13169D01*
Y13442D01*
X6436D01*
X6976Y12903D01*
D02*
G37*
G36*
X16511Y13583D02*
X16540Y13567D01*
X16654Y13532D01*
X16772Y13521D01*
Y13522D01*
X19134D01*
X19134Y10986D01*
X19016Y10868D01*
X15909Y10868D01*
X15902Y10866D01*
X15435Y10866D01*
Y11079D01*
X15450D01*
Y12581D01*
X15561Y12599D01*
Y12599D01*
X16368D01*
Y12996D01*
X15947D01*
X15733Y13210D01*
X15737Y13228D01*
X15720Y13313D01*
X15672Y13384D01*
X15600Y13432D01*
X15564Y13440D01*
X15545Y13485D01*
X15600Y13579D01*
X15605Y13583D01*
X16511Y13583D01*
D02*
G37*
G36*
X9213Y13600D02*
X9189Y13524D01*
X9134D01*
Y13268D01*
X9075D01*
Y13209D01*
X8858D01*
Y13012D01*
X9001D01*
X9047Y12903D01*
X8975Y12832D01*
X8945Y12786D01*
X8934Y12732D01*
Y12224D01*
X8858D01*
Y11713D01*
X8858Y11713D01*
X8858Y11634D01*
X8858D01*
X8858Y11594D01*
Y11203D01*
X8701D01*
Y11634D01*
X8701Y11634D01*
X8701Y11713D01*
X8701D01*
X8701Y11752D01*
Y12224D01*
X8268D01*
Y11951D01*
X8106Y11789D01*
X7970Y11813D01*
X7935Y11875D01*
X7946Y11929D01*
X7935Y11983D01*
X7905Y12028D01*
X7935Y12072D01*
X7946Y12126D01*
X7935Y12180D01*
X7905Y12224D01*
X7935Y12269D01*
X7946Y12323D01*
X7935Y12377D01*
X7905Y12421D01*
X7935Y12466D01*
X7946Y12520D01*
X7935Y12573D01*
X7905Y12618D01*
X7935Y12663D01*
X7946Y12717D01*
X7935Y12770D01*
X7914Y12801D01*
X7931Y12853D01*
X7935Y12860D01*
X7939Y12879D01*
X7950Y12916D01*
X8055Y12970D01*
X8327D01*
X8381Y12980D01*
X8426Y13011D01*
X8427Y13012D01*
X8701D01*
Y13524D01*
X8268D01*
Y13251D01*
X8055D01*
X7946Y13307D01*
X7935Y13361D01*
X7904Y13406D01*
X7859Y13437D01*
X7805Y13448D01*
X7313D01*
X7259Y13437D01*
X7214Y13406D01*
X7183Y13361D01*
X7172Y13307D01*
X7179Y13276D01*
X7137Y13238D01*
X7061Y13214D01*
X6694Y13581D01*
X6743Y13699D01*
X9132D01*
X9213Y13600D01*
D02*
G37*
G36*
X2677Y13305D02*
Y13210D01*
X2673Y13189D01*
X2677Y13168D01*
Y12933D01*
Y12461D01*
X2677D01*
Y12303D01*
X2894D01*
Y12185D01*
X2677D01*
Y12104D01*
X2560Y12086D01*
X2512Y12158D01*
X2441Y12206D01*
X2356Y12223D01*
X2326Y12337D01*
Y13091D01*
X2315Y13144D01*
X2284Y13190D01*
X2225Y13249D01*
X2180Y13279D01*
X2126Y13290D01*
X2091Y13324D01*
X2139Y13442D01*
X2540D01*
X2677Y13305D01*
D02*
G37*
G36*
X768Y11024D02*
X930D01*
X933Y11009D01*
X964Y10964D01*
X1161Y10767D01*
X1206Y10736D01*
X1260Y10726D01*
X1369D01*
X1379Y10710D01*
X1451Y10662D01*
X1535Y10645D01*
X1620Y10662D01*
X1692Y10710D01*
X1739Y10782D01*
X1756Y10866D01*
X1739Y10951D01*
X1732Y10962D01*
X1795Y11080D01*
X2521D01*
X2575Y11091D01*
X2621Y11121D01*
X2677Y11178D01*
X2795Y11149D01*
Y11083D01*
X3012D01*
Y10965D01*
X2795D01*
Y10768D01*
Y10610D01*
X3031D01*
Y10551D01*
X3091D01*
Y10295D01*
X3268D01*
Y10295D01*
X3346D01*
Y10295D01*
X3788D01*
X3849Y10190D01*
X3443Y9783D01*
X3268D01*
Y9353D01*
X3110D01*
Y9469D01*
X2894D01*
Y9528D01*
X2835D01*
Y9783D01*
X2677D01*
Y9587D01*
X2568Y9542D01*
X2478Y9633D01*
X2479Y9647D01*
X2527Y9719D01*
X2544Y9803D01*
X2527Y9888D01*
X2479Y9959D01*
X2407Y10007D01*
X2323Y10024D01*
X2238Y10007D01*
X2167Y9959D01*
X2119Y9888D01*
X2102Y9803D01*
X2119Y9719D01*
X2167Y9647D01*
X2182Y9637D01*
Y9589D01*
X2193Y9535D01*
X2223Y9489D01*
X2599Y9113D01*
X2645Y9083D01*
X2699Y9072D01*
X2795D01*
Y8957D01*
X3031D01*
Y8839D01*
X2795D01*
Y8723D01*
X2677D01*
Y8957D01*
X2244D01*
Y8850D01*
X2173Y8805D01*
X2087Y8862D01*
Y8957D01*
X1260D01*
X1142Y8957D01*
X1102Y8957D01*
X965D01*
Y8701D01*
X906D01*
Y8642D01*
X669D01*
Y8445D01*
Y8287D01*
X906D01*
Y8169D01*
X669D01*
Y7972D01*
Y7815D01*
X906D01*
Y7756D01*
X965D01*
Y7500D01*
X1102D01*
X1220Y7500D01*
X1260Y7500D01*
X2087D01*
Y7735D01*
X2091Y7756D01*
X2087Y7777D01*
Y8207D01*
X2091Y8228D01*
X2087Y8250D01*
Y8461D01*
X2173Y8518D01*
X2244Y8473D01*
Y7972D01*
Y7500D01*
X2677D01*
Y7615D01*
X4115D01*
X4365Y7366D01*
X4410Y7335D01*
X4464Y7324D01*
X5227D01*
X5238Y7309D01*
X5309Y7261D01*
X5394Y7244D01*
X5411Y7247D01*
X5529Y7163D01*
Y6200D01*
X5215Y5887D01*
X5146Y5910D01*
X5100Y5938D01*
X5086Y6010D01*
X5038Y6081D01*
X4966Y6129D01*
X4882Y6146D01*
X4797Y6129D01*
X4726Y6081D01*
X4715Y6066D01*
X4508D01*
X4454Y6055D01*
X4409Y6025D01*
X4272Y5888D01*
X4235Y5894D01*
X4152Y5935D01*
X4141Y5990D01*
X4093Y6062D01*
X4021Y6109D01*
X3937Y6126D01*
X3853Y6109D01*
X3781Y6062D01*
X3769Y6044D01*
X3632Y6044D01*
X3621Y6062D01*
X3549Y6109D01*
X3465Y6126D01*
X3380Y6109D01*
X3308Y6062D01*
X3297Y6044D01*
X3160D01*
X3148Y6062D01*
X3077Y6109D01*
X2992Y6126D01*
X2908Y6109D01*
X2836Y6062D01*
X2824Y6044D01*
X2688D01*
X2676Y6062D01*
X2604Y6109D01*
X2520Y6126D01*
X2435Y6109D01*
X2364Y6062D01*
X2316Y5990D01*
X2299Y5906D01*
X2316Y5821D01*
X2364Y5749D01*
X2435Y5702D01*
X2498Y5689D01*
X2487Y5571D01*
X2480D01*
Y5352D01*
X2302Y5174D01*
X2272Y5129D01*
X2261Y5075D01*
Y4291D01*
X2272Y4238D01*
X2302Y4192D01*
X2499Y3995D01*
X2545Y3965D01*
X2598Y3954D01*
X2786D01*
X2797Y3938D01*
X2868Y3891D01*
X2879Y3888D01*
X2953Y3871D01*
X2968Y3780D01*
X2985Y3695D01*
X3033Y3623D01*
X3104Y3576D01*
X3189Y3559D01*
X3273Y3576D01*
X3345Y3623D01*
X3393Y3695D01*
X3410Y3780D01*
X3393Y3864D01*
X3369Y3900D01*
Y4087D01*
X3487Y4099D01*
X3497Y4049D01*
X3545Y3978D01*
X3616Y3930D01*
X3701Y3913D01*
X3785Y3930D01*
X3857Y3978D01*
X3905Y4049D01*
X3920Y4126D01*
X3974Y4173D01*
X3984Y4172D01*
X4092Y4120D01*
Y3348D01*
X3522Y2778D01*
X2992D01*
X2938Y2768D01*
X2893Y2737D01*
X2678Y2522D01*
X2364D01*
X2310Y2512D01*
X2265Y2481D01*
X1963Y2179D01*
X1892Y2184D01*
X1822Y2237D01*
X1741Y2271D01*
X1654Y2282D01*
X1566Y2271D01*
X1485Y2237D01*
X1415Y2184D01*
X1361Y2114D01*
X1328Y2032D01*
X1316Y1945D01*
X1328Y1858D01*
X1361Y1776D01*
X1415Y1706D01*
X1418Y1703D01*
X1378Y1585D01*
X958D01*
X946Y1614D01*
X892Y1684D01*
X822Y1737D01*
X741Y1771D01*
X654Y1782D01*
X566Y1771D01*
X538Y1759D01*
X377Y1920D01*
Y2087D01*
X454Y2134D01*
X495Y2148D01*
X566Y2119D01*
X654Y2107D01*
X741Y2119D01*
X822Y2153D01*
X892Y2206D01*
X946Y2276D01*
X980Y2358D01*
X991Y2445D01*
X980Y2532D01*
X946Y2614D01*
X892Y2684D01*
X888Y2687D01*
X871Y2835D01*
X874Y2840D01*
X1343Y3310D01*
X1374Y3356D01*
X1385Y3409D01*
Y3581D01*
X1440Y3620D01*
X1503Y3645D01*
X1566Y3619D01*
X1654Y3607D01*
X1741Y3619D01*
X1822Y3653D01*
X1892Y3706D01*
X1946Y3776D01*
X1980Y3858D01*
X1991Y3945D01*
X1980Y4032D01*
X1946Y4114D01*
X1892Y4184D01*
X1822Y4237D01*
X1741Y4271D01*
X1654Y4282D01*
X1566Y4271D01*
X1503Y4245D01*
X1440Y4269D01*
X1385Y4309D01*
Y5079D01*
X1479Y5143D01*
X1503Y5148D01*
X1575Y5134D01*
X1659Y5150D01*
X1731Y5198D01*
X1779Y5270D01*
X1796Y5354D01*
X1779Y5439D01*
X1731Y5510D01*
X1659Y5558D01*
X1649Y5560D01*
X1282Y5927D01*
Y6650D01*
X1272Y6703D01*
X1241Y6749D01*
X1040Y6950D01*
X995Y6980D01*
X941Y6991D01*
X377D01*
Y10937D01*
X453Y11024D01*
X650D01*
Y11260D01*
X768D01*
Y11024D01*
D02*
G37*
G36*
X19134Y2165D02*
Y257D01*
X16772D01*
Y259D01*
X16654Y247D01*
X16540Y213D01*
X16511Y197D01*
X13937D01*
Y2110D01*
X13993Y2165D01*
X19134Y2165D01*
D02*
G37*
%LPC*%
G36*
X2539Y413D02*
X2343D01*
Y236D01*
X2539D01*
Y413D01*
D02*
G37*
G36*
X2854D02*
X2657D01*
Y236D01*
X2854D01*
Y413D01*
D02*
G37*
G36*
X1654Y3282D02*
X1566Y3271D01*
X1485Y3237D01*
X1415Y3184D01*
X1361Y3114D01*
X1328Y3032D01*
X1316Y2945D01*
X1328Y2858D01*
X1361Y2776D01*
X1415Y2706D01*
X1485Y2653D01*
X1566Y2619D01*
X1654Y2607D01*
X1741Y2619D01*
X1822Y2653D01*
X1892Y2706D01*
X1946Y2776D01*
X1980Y2858D01*
X1991Y2945D01*
X1980Y3032D01*
X1946Y3114D01*
X1892Y3184D01*
X1822Y3237D01*
X1741Y3271D01*
X1654Y3282D01*
D02*
G37*
G36*
X3110Y9783D02*
X2953D01*
Y9587D01*
X3110D01*
Y9783D01*
D02*
G37*
G36*
X2972Y10492D02*
X2795D01*
Y10295D01*
X2972D01*
Y10492D01*
D02*
G37*
G36*
X9016Y13524D02*
X8858D01*
Y13327D01*
X9016D01*
Y13524D01*
D02*
G37*
G36*
X846Y8957D02*
X669D01*
Y8760D01*
X846D01*
Y8957D01*
D02*
G37*
G36*
X7835Y4980D02*
X7657D01*
Y4783D01*
X7835D01*
Y4980D01*
D02*
G37*
G36*
Y5807D02*
X7402D01*
Y5762D01*
X7362Y5738D01*
X7244Y5805D01*
Y5807D01*
X6811D01*
Y5742D01*
X6727Y5726D01*
X6655Y5678D01*
X6607Y5606D01*
X6590Y5522D01*
X6607Y5437D01*
X6655Y5366D01*
X6707Y5330D01*
X6727Y5318D01*
X6727Y5318D01*
X6811Y5295D01*
Y4783D01*
X7244D01*
X7362Y4783D01*
X7402Y4783D01*
X7539D01*
Y5039D01*
X7598D01*
Y5098D01*
X7835D01*
Y5295D01*
X7835Y5295D01*
X7835Y5413D01*
Y5807D01*
D02*
G37*
G36*
X846Y7697D02*
X669D01*
Y7500D01*
X846D01*
Y7697D01*
D02*
G37*
%LPD*%
D10*
X7815Y6929D02*
D03*
X8878D02*
D03*
X11791Y5866D02*
D03*
X12854D02*
D03*
X11791Y9409D02*
D03*
X12854D02*
D03*
X11791Y12953D02*
D03*
X12854D02*
D03*
X13406Y2874D02*
D03*
X14468D02*
D03*
D11*
X6654Y4409D02*
D03*
Y4213D02*
D03*
Y4016D02*
D03*
Y3819D02*
D03*
Y3622D02*
D03*
X4921Y3819D02*
D03*
Y3622D02*
D03*
Y4213D02*
D03*
Y4016D02*
D03*
D12*
Y4409D02*
D03*
D13*
X1811Y12402D02*
D03*
D14*
Y12776D02*
D03*
Y13150D02*
D03*
X780Y12402D02*
D03*
Y12776D02*
D03*
Y13150D02*
D03*
D15*
X12205Y3819D02*
D03*
X12756D02*
D03*
X7047Y5039D02*
D03*
X7598D02*
D03*
X906Y8701D02*
D03*
X1457D02*
D03*
X906Y8228D02*
D03*
X1457D02*
D03*
X906Y7756D02*
D03*
X1457D02*
D03*
X6654Y7244D02*
D03*
X7205D02*
D03*
X3031Y10551D02*
D03*
X3583D02*
D03*
X3031Y8898D02*
D03*
X3583D02*
D03*
X3031Y8071D02*
D03*
X3583D02*
D03*
X12283Y3031D02*
D03*
X12835D02*
D03*
D16*
X6083Y10650D02*
D03*
D17*
X4606Y13307D02*
D03*
D18*
Y13110D02*
D03*
Y12913D02*
D03*
Y12717D02*
D03*
Y12520D02*
D03*
Y12323D02*
D03*
Y12126D02*
D03*
Y11929D02*
D03*
Y11732D02*
D03*
Y11535D02*
D03*
Y11339D02*
D03*
Y11142D02*
D03*
Y10945D02*
D03*
Y10748D02*
D03*
Y10551D02*
D03*
Y10354D02*
D03*
Y10157D02*
D03*
Y9961D02*
D03*
Y9764D02*
D03*
Y9567D02*
D03*
Y9370D02*
D03*
Y9173D02*
D03*
Y8976D02*
D03*
Y8780D02*
D03*
Y8583D02*
D03*
Y8386D02*
D03*
Y8189D02*
D03*
Y7992D02*
D03*
X7559Y13307D02*
D03*
Y13110D02*
D03*
Y12913D02*
D03*
Y12717D02*
D03*
Y12520D02*
D03*
Y12323D02*
D03*
Y12126D02*
D03*
Y11929D02*
D03*
Y11732D02*
D03*
Y11535D02*
D03*
Y11339D02*
D03*
Y11142D02*
D03*
Y10945D02*
D03*
Y10748D02*
D03*
Y10551D02*
D03*
Y10354D02*
D03*
Y10157D02*
D03*
Y9961D02*
D03*
Y9764D02*
D03*
Y9567D02*
D03*
Y9370D02*
D03*
Y9173D02*
D03*
Y8976D02*
D03*
Y8780D02*
D03*
Y8583D02*
D03*
Y8386D02*
D03*
Y8189D02*
D03*
Y7992D02*
D03*
D19*
X10827Y7638D02*
D03*
X13031D02*
D03*
X10906Y11181D02*
D03*
X13110D02*
D03*
D20*
X2756Y5354D02*
D03*
D21*
Y4606D02*
D03*
Y4980D02*
D03*
X3701Y4606D02*
D03*
Y4980D02*
D03*
Y5354D02*
D03*
D22*
X8484Y13268D02*
D03*
X9075D02*
D03*
X7028Y5551D02*
D03*
X7618D02*
D03*
X2894Y13189D02*
D03*
X3484D02*
D03*
X2894Y12717D02*
D03*
X3484D02*
D03*
X2894Y9528D02*
D03*
X3484D02*
D03*
X1870Y7756D02*
D03*
X2461D02*
D03*
X1870Y8228D02*
D03*
X2461D02*
D03*
X1870Y8701D02*
D03*
X2461D02*
D03*
X3012Y11024D02*
D03*
X3602D02*
D03*
X8484Y8839D02*
D03*
X9075D02*
D03*
X8484Y9488D02*
D03*
X9075D02*
D03*
X8484Y10118D02*
D03*
X9075D02*
D03*
X8484Y10748D02*
D03*
X9075D02*
D03*
X8484Y11378D02*
D03*
X9075D02*
D03*
X8484Y11969D02*
D03*
X9075D02*
D03*
X3484Y12244D02*
D03*
X2894D02*
D03*
D23*
X3307Y2028D02*
D03*
Y965D02*
D03*
D24*
X9803Y4134D02*
D03*
Y3583D02*
D03*
X2598Y1024D02*
D03*
Y472D02*
D03*
X709Y11811D02*
D03*
Y11260D02*
D03*
D25*
X9803Y5256D02*
D03*
Y4665D02*
D03*
X2598Y2106D02*
D03*
Y1516D02*
D03*
X7520Y4114D02*
D03*
Y3524D02*
D03*
D26*
X14461Y12047D02*
D03*
X14461Y9488D02*
D03*
Y6929D02*
D03*
X14869Y1220D02*
D03*
D27*
X15965Y12797D02*
D03*
Y12297D02*
D03*
Y11797D02*
D03*
Y11297D02*
D03*
X15965Y10238D02*
D03*
Y9738D02*
D03*
Y9238D02*
D03*
Y8738D02*
D03*
Y7679D02*
D03*
Y7179D02*
D03*
Y6679D02*
D03*
Y6179D02*
D03*
X13366Y470D02*
D03*
Y970D02*
D03*
Y1470D02*
D03*
Y1970D02*
D03*
D28*
X9213Y7441D02*
X9409Y7244D01*
X7795Y7441D02*
X9213D01*
X7559Y7677D02*
X7795Y7441D01*
X7559Y7677D02*
Y7953D01*
X9409Y6102D02*
Y7244D01*
Y6102D02*
X9803Y5709D01*
Y5256D02*
Y5709D01*
Y5256D02*
X9803Y5256D01*
X12835Y3031D02*
X13248D01*
X13406Y2874D01*
D29*
X8661Y8110D02*
Y8425D01*
X9075Y8839D01*
X8209Y8051D02*
X8268Y7992D01*
X9055Y8189D02*
Y8309D01*
X9449Y8307D02*
Y8347D01*
X8209Y8051D02*
Y8681D01*
X7913Y8976D02*
X8209Y8681D01*
X8273Y9173D02*
X9252D01*
X8076Y9370D02*
X8273Y9173D01*
X7559Y9370D02*
X8076D01*
X7559Y9567D02*
X8406D01*
X8289Y9803D02*
X9370D01*
X8132Y9961D02*
X8289Y9803D01*
X7559Y8976D02*
X7913D01*
X5109Y9567D02*
X5130Y9588D01*
X5157Y9961D02*
Y10000D01*
X5091Y9213D02*
X5157D01*
X941Y6850D02*
X1142Y6650D01*
X236Y6850D02*
X941D01*
X1142Y5869D02*
X1575Y5436D01*
Y5354D02*
Y5436D01*
X1142Y5869D02*
Y6650D01*
X236Y1862D02*
Y6850D01*
X1244Y3409D02*
Y5488D01*
X866Y5866D02*
X1244Y5488D01*
X866Y5866D02*
Y6535D01*
X1047Y3839D02*
Y5291D01*
X709Y5630D02*
X1047Y5291D01*
X9409Y12165D02*
X9449Y12205D01*
X9075Y12732D02*
X9413Y13071D01*
X9075Y11969D02*
Y12732D01*
X4213Y10354D02*
X4606D01*
X3504Y9646D02*
X4213Y10354D01*
X3504Y9528D02*
Y9646D01*
X3780Y9324D02*
Y9488D01*
X3780Y9406D02*
Y9602D01*
X4138Y9961D01*
X4082Y8780D02*
X4279Y8976D01*
X3701Y8780D02*
X4082D01*
X3976Y9094D02*
Y9131D01*
X3760Y9304D02*
X3780Y9324D01*
X3760Y9293D02*
Y9304D01*
X3683Y9216D02*
X3760Y9293D01*
X4138Y9961D02*
X4606D01*
X4279Y8976D02*
X4606D01*
X2323Y9589D02*
X2699Y9213D01*
X2323Y9589D02*
Y9803D01*
X2699Y9213D02*
X3683D01*
X3976Y9131D02*
X4019Y9173D01*
X3683Y9213D02*
Y9216D01*
X9803Y4134D02*
Y4665D01*
X9055Y8309D02*
X9350Y8604D01*
Y9075D01*
X9410Y8386D02*
X9547Y8523D01*
X9410Y8386D02*
X9449Y8347D01*
X9547Y8523D02*
Y9156D01*
X906Y8228D02*
Y8701D01*
Y7756D02*
Y8228D01*
X4055Y9488D02*
Y9540D01*
X3797Y8583D02*
X4606D01*
X3797Y8583D02*
X3797Y8583D01*
X2579Y8583D02*
X3797D01*
X3960Y8189D02*
X4606D01*
X3960Y8189D02*
X3960Y8189D01*
X3701Y8189D02*
X3960D01*
X3583Y8071D02*
X3701Y8189D01*
X2461Y7756D02*
X4173D01*
X4934Y8780D02*
X5669Y8044D01*
X8701Y1535D02*
X8780Y1614D01*
X5315Y3189D02*
X5630Y3504D01*
X4409Y3189D02*
X5315D01*
X5513Y3817D02*
X5904D01*
X5512Y3819D02*
X5513Y3817D01*
X4921Y3819D02*
X5512D01*
X5823Y4014D02*
X5984Y4176D01*
X5595Y4014D02*
X5823D01*
X5593Y4016D02*
X5595Y4014D01*
X4921Y4016D02*
X5593D01*
X4508Y5925D02*
X4882D01*
X4449Y5394D02*
X4921D01*
X4094Y5512D02*
X4508Y5925D01*
X4094Y5314D02*
Y5512D01*
Y5314D02*
X4232Y5176D01*
X3701Y5669D02*
X3937Y5906D01*
X4232Y3290D02*
Y5176D01*
X3874Y5256D02*
X4035Y5094D01*
Y4469D02*
Y5094D01*
X5039Y4921D02*
X5118Y5000D01*
X3701Y5256D02*
Y5354D01*
Y5256D02*
X3874D01*
X3701Y4980D02*
Y4980D01*
X3366Y4783D02*
Y5547D01*
Y4783D02*
X3465Y4685D01*
X3091Y5000D02*
Y5628D01*
X3091Y5000D02*
X3091Y5000D01*
X3091Y4744D02*
Y5000D01*
X3031Y4685D02*
X3091Y4744D01*
X2756Y4685D02*
X3031D01*
X5329Y4710D02*
X5678D01*
X4724Y4685D02*
Y4724D01*
X4429Y3209D02*
Y5315D01*
X5631Y4213D02*
X5709Y4290D01*
X5904Y3817D02*
X6181Y4094D01*
X3580Y2638D02*
X4232Y3290D01*
X5678Y4710D02*
X5984Y4404D01*
X5667Y5000D02*
X6181Y4486D01*
X4724Y4606D02*
Y4685D01*
X3701Y4134D02*
X4035Y4469D01*
X4921Y5394D02*
X5354Y5827D01*
X3228Y3819D02*
Y4209D01*
X2831Y4606D02*
X3228Y4209D01*
X2598Y4094D02*
X2953D01*
X3189Y3780D02*
X3228Y3819D01*
X3465Y4685D02*
X3701D01*
X1457Y7756D02*
X1870D01*
X1457Y8228D02*
X1870D01*
X1457Y8701D02*
X1870D01*
X8031Y1958D02*
Y4112D01*
X7734Y4409D02*
X8031Y4112D01*
X7047Y4409D02*
X7734D01*
X7047Y4409D02*
X7047Y4409D01*
X7421Y4213D02*
X7520Y4114D01*
X6654Y4213D02*
X7421D01*
X7520Y4114D02*
X7638D01*
X7835Y3917D01*
X7043Y4016D02*
X7527Y3531D01*
X6654Y4016D02*
X7043D01*
X6201Y1592D02*
X6538Y1929D01*
X6766D01*
X7244Y2407D01*
Y2979D01*
X7074Y3150D02*
X7244Y2979D01*
X6772Y3150D02*
X7074D01*
X6654Y3268D02*
X6772Y3150D01*
X6201Y535D02*
Y1592D01*
X7077Y3425D02*
X7441Y3061D01*
Y2291D02*
Y3061D01*
X6701Y1535D02*
X7441Y2291D01*
X7638Y2126D02*
Y3524D01*
X7835Y1669D02*
Y3917D01*
X8031Y1958D02*
X8201Y1789D01*
Y535D02*
Y1789D01*
X7701Y1535D02*
X7835Y1669D01*
X7201Y1689D02*
X7638Y2126D01*
X7201Y535D02*
Y1689D01*
X7120Y9370D02*
X7559D01*
X7995Y9173D02*
X8330Y8839D01*
X8366Y11260D02*
X8484Y11378D01*
X8208Y11260D02*
X8366D01*
X8090Y11142D02*
X8208Y11260D01*
X9215Y9488D02*
X9547Y9156D01*
X9075Y9488D02*
X9215D01*
X8289Y11063D02*
X8679D01*
X8679Y11063D01*
X8330Y8839D02*
X8484D01*
X9252Y9173D02*
X9350Y9075D01*
X8211Y10354D02*
X8289Y10433D01*
X8445Y10157D02*
X8484Y10118D01*
X3228Y2106D02*
X3307Y2028D01*
X7008Y9003D02*
X7231Y8780D01*
X7559D01*
X7008Y9003D02*
Y9016D01*
X7019Y8583D02*
X7559D01*
X6940Y8661D02*
X7019Y8583D01*
X7054Y8386D02*
X7559D01*
X7008Y7965D02*
X7231Y8189D01*
X7559D01*
X7008Y7953D02*
Y7965D01*
X7028Y5551D02*
X7047Y5531D01*
Y5039D02*
Y5531D01*
X7120Y11339D02*
X7559D01*
X2894Y12717D02*
Y13110D01*
X7120Y10354D02*
X7559D01*
X7525Y5458D02*
X7618Y5551D01*
X6811Y5522D02*
X6841Y5551D01*
X7028D01*
X7120Y10748D02*
X7559D01*
X7120Y9764D02*
X7559D01*
X2894Y13189D02*
X2972Y13110D01*
X2598Y1024D02*
Y1516D01*
X6516Y4409D02*
X6654D01*
X15612Y10630D02*
X16004Y10238D01*
X15516Y13228D02*
X15956Y12788D01*
X15652Y8110D02*
X15965Y7797D01*
Y7679D02*
Y7797D01*
X2461Y8228D02*
X2618Y8386D01*
X3071D01*
X3583Y8898D02*
X3701Y8780D01*
X3071Y8386D02*
X3071Y8386D01*
X2461Y8701D02*
X2579Y8583D01*
X4606Y9370D02*
X4934D01*
X5091Y9213D01*
X4606Y9567D02*
X5109D01*
X4279Y9764D02*
X4606D01*
X4055Y9540D02*
X4279Y9764D01*
X4606Y10157D02*
X5000D01*
X5157Y10000D01*
X4606Y10551D02*
X5000D01*
X5118Y10433D01*
X5157D01*
X4606Y10748D02*
X4934D01*
X4019Y9173D02*
X4606D01*
X3071Y8386D02*
X3879D01*
X3879Y8386D01*
X4606D01*
X5157Y10972D02*
Y10976D01*
X4934Y10748D02*
X5157Y10972D01*
X5157Y11365D02*
Y11378D01*
X4934Y11142D02*
X5157Y11365D01*
X4606Y11142D02*
X4934D01*
X3602Y10984D02*
X3760Y11142D01*
X4606D01*
X3583Y10512D02*
X3600D01*
X4033Y10945D01*
X4606D01*
X1063Y11063D02*
X1260Y10866D01*
X1535D01*
X1339Y11260D02*
X1378Y11220D01*
X1063Y13150D02*
X1241Y12971D01*
X780Y13150D02*
X1063D01*
X780Y13150D02*
X780Y13150D01*
X1241Y12698D02*
Y12971D01*
Y12698D02*
X1350Y12589D01*
X2437Y11929D02*
X4606D01*
X1339Y11260D02*
Y11974D01*
X1626Y12138D02*
X1890Y12402D01*
X1626Y11760D02*
Y12138D01*
Y11760D02*
X1890Y11496D01*
X1378Y11220D02*
X1378Y11220D01*
X1890Y11496D02*
X1969Y11417D01*
X2358Y12008D02*
X2437Y11929D01*
X2470Y11726D02*
X2476Y11732D01*
X4606D01*
X2558Y11535D02*
X4606D01*
X2639Y11339D02*
X4606D01*
X2521Y11220D02*
X2639Y11339D01*
X2440Y11417D02*
X2558Y11535D01*
X2132Y11726D02*
X2470D01*
X1969Y11890D02*
X2132Y11726D01*
X1969Y11417D02*
X2440D01*
X1378Y11220D02*
X2521D01*
X1063Y11063D02*
Y11976D01*
X1154Y12067D02*
Y12508D01*
X1063Y11976D02*
X1154Y12067D01*
X1350Y11985D02*
Y12589D01*
X1339Y11974D02*
X1350Y11985D01*
X1969Y11890D02*
Y12010D01*
X2185Y12226D01*
Y13091D01*
X2126Y13150D02*
X2185Y13091D01*
X1811Y13150D02*
X2126D01*
X1811Y13150D02*
X1811Y13150D01*
X3484Y12244D02*
X3602Y12126D01*
X4606D01*
X3522Y12717D02*
X3915Y12323D01*
X4606D01*
X276Y12402D02*
X780D01*
X709Y12331D02*
X780Y12402D01*
X709Y11811D02*
Y12331D01*
X4252Y12520D02*
X4606D01*
X3465Y13307D02*
X4252Y12520D01*
X3465Y12659D02*
X3522Y12717D01*
X3465Y12659D02*
X3465Y12659D01*
X3465Y12659D02*
Y12677D01*
X2520Y5906D02*
X2756Y5669D01*
Y5433D02*
Y5669D01*
X3701Y5433D02*
Y5669D01*
X2992Y5726D02*
Y5906D01*
Y5726D02*
X3091Y5628D01*
X3465Y5646D02*
Y5906D01*
X3366Y5547D02*
X3465Y5646D01*
X7466Y5458D02*
X7525D01*
X3701Y4980D02*
X3701Y4980D01*
X2681Y5354D02*
X2756D01*
X6654Y3819D02*
X6961D01*
X7077Y3704D01*
X6654Y4409D02*
X7047D01*
X2402Y5075D02*
X2681Y5354D01*
X2402Y4291D02*
Y5075D01*
Y4291D02*
X2598Y4094D01*
X2756Y4606D02*
X2831D01*
X6654Y3268D02*
Y3622D01*
X6260Y5827D02*
Y5846D01*
X4606Y8780D02*
X4934D01*
X1937Y1445D02*
X2598Y2106D01*
X3228D01*
X3504Y2283D02*
X4409Y3189D01*
X1927Y1945D02*
X2364Y2382D01*
X2736D01*
X2992Y2638D01*
X3580D01*
X4409Y3189D02*
X4429Y3209D01*
X5354Y5827D02*
X6260D01*
X5354D02*
X5669Y6142D01*
Y8044D01*
X4409Y5335D02*
X4429Y5315D01*
X4724Y4606D02*
X4921Y4409D01*
X7077Y3425D02*
Y3704D01*
X4921Y4213D02*
X5631D01*
X5984Y4176D02*
Y4404D01*
X5118Y5000D02*
X5667D01*
X6181Y4094D02*
Y4486D01*
X780Y12776D02*
X886D01*
X1154Y12508D01*
X236Y13228D02*
X591Y13583D01*
X2894Y13189D02*
Y13287D01*
X2598Y13583D02*
X2894Y13287D01*
X591Y13583D02*
X2598D01*
X654Y2445D02*
Y2819D01*
Y3445D02*
X1047Y3839D01*
X654Y2819D02*
X1244Y3409D01*
X236Y6850D02*
Y13228D01*
Y1862D02*
X654Y1445D01*
X1937D01*
X1654Y1945D02*
X1927D01*
X9075Y11378D02*
X9409Y11713D01*
Y12165D01*
X9413Y13071D02*
X9449D01*
X7559Y11535D02*
X8051D01*
X8484Y11969D01*
X8327Y13110D02*
X8484Y13268D01*
X7559Y13110D02*
X8327D01*
X7559Y11142D02*
X8090D01*
X7559Y10945D02*
X8171D01*
X8289Y11063D01*
X7559Y10354D02*
X8211D01*
X7559Y9961D02*
X8132D01*
X7559Y10157D02*
X8445D01*
X7559Y10551D02*
X8129D01*
X8208Y10630D01*
X8366D01*
X8484Y10748D01*
X8406Y9567D02*
X8484Y9488D01*
X7559Y9173D02*
X7995D01*
X8289Y10433D02*
X9409D01*
X9075Y10748D02*
X9449D01*
X9409Y10433D02*
X9449Y10394D01*
X9075Y10118D02*
X9409D01*
X8679Y11063D02*
X9409D01*
X9449Y11102D01*
X9409Y10118D02*
X9449Y10079D01*
X9370Y9803D02*
X9449Y9724D01*
X8819Y1575D02*
X10039D01*
X8780Y1614D02*
X8819Y1575D01*
X4173Y7756D02*
X4464Y7465D01*
X5394D01*
X2598Y13583D02*
X6494D01*
X7116Y12961D01*
X7117Y11732D02*
X7559D01*
X7116Y12044D02*
Y12961D01*
Y12044D02*
X7192Y11969D01*
X7192D01*
X7231Y11929D01*
X7559D01*
X7078Y11693D02*
X7117Y11732D01*
D30*
X18307Y12205D02*
D03*
Y9449D02*
D03*
Y6693D02*
D03*
D31*
Y3543D02*
D03*
Y1181D02*
D03*
D32*
X6201Y535D02*
D03*
X6701Y1535D02*
D03*
X7201Y535D02*
D03*
X7701Y1535D02*
D03*
X8201Y535D02*
D03*
X8701Y1535D02*
D03*
X654Y4445D02*
D03*
X1654Y3945D02*
D03*
X654Y3445D02*
D03*
X1654Y2945D02*
D03*
X654Y2445D02*
D03*
X1654Y1945D02*
D03*
X654Y1445D02*
D03*
X1654Y945D02*
D03*
D33*
X709Y10394D02*
D03*
X4803Y512D02*
D03*
X3819Y1457D02*
D03*
X5315Y12205D02*
D03*
Y12992D02*
D03*
X6102D02*
D03*
X6496Y12598D02*
D03*
X5709D02*
D03*
X8898Y7087D02*
D03*
X6063Y7835D02*
D03*
X6457Y8268D02*
D03*
X5748Y9449D02*
D03*
X6102Y11417D02*
D03*
X5748Y11024D02*
D03*
X6496Y10236D02*
D03*
X6102Y9843D02*
D03*
X5748Y10236D02*
D03*
X6496Y11024D02*
D03*
X6102Y10630D02*
D03*
X6496Y9449D02*
D03*
X5866Y8976D02*
D03*
X6378D02*
D03*
X5906Y8465D02*
D03*
X6220Y7244D02*
D03*
X6654Y7244D02*
D03*
X5709Y11811D02*
D03*
X6496D02*
D03*
X6102Y12205D02*
D03*
X8543Y3583D02*
D03*
X8780Y4488D02*
D03*
X1417Y6969D02*
D03*
X1575Y4528D02*
D03*
X10551Y12126D02*
D03*
Y12480D02*
D03*
X10374Y4291D02*
D03*
Y3661D02*
D03*
X16132Y6831D02*
D03*
X16142Y11929D02*
D03*
Y12441D02*
D03*
X15669D02*
D03*
Y11929D02*
D03*
Y11417D02*
D03*
X16142D02*
D03*
X15669Y9882D02*
D03*
Y9409D02*
D03*
X16142Y9882D02*
D03*
Y9409D02*
D03*
Y8858D02*
D03*
X15669D02*
D03*
X16142Y6299D02*
D03*
X15669D02*
D03*
Y6811D02*
D03*
X16142Y7283D02*
D03*
X15669D02*
D03*
X14075Y2874D02*
D03*
X9803Y5709D02*
D03*
X10551Y6220D02*
D03*
X10551Y6575D02*
D03*
X10906Y8701D02*
D03*
X10551D02*
D03*
X10906Y7283D02*
D03*
X10551D02*
D03*
X12835Y5236D02*
D03*
X8898Y6732D02*
D03*
X5335Y7953D02*
D03*
X3031Y8071D02*
D03*
X2480Y12756D02*
D03*
X2756Y4980D02*
D03*
X2598Y2953D02*
D03*
X5000Y1575D02*
D03*
X4921Y3504D02*
D03*
X6417Y4724D02*
D03*
X6102Y3228D02*
D03*
X2087Y9252D02*
D03*
X10906Y11417D02*
D03*
X10906Y12480D02*
D03*
Y12126D02*
D03*
Y11772D02*
D03*
X10551D02*
D03*
Y11417D02*
D03*
X10906Y9764D02*
D03*
X10551Y9409D02*
D03*
X10906Y9409D02*
D03*
X10551Y9055D02*
D03*
X10906D02*
D03*
X10551Y9764D02*
D03*
X10551Y6929D02*
D03*
X10906Y6929D02*
D03*
Y6220D02*
D03*
Y6575D02*
D03*
X1811Y12776D02*
D03*
X17323Y5709D02*
D03*
Y6102D02*
D03*
X17008Y6299D02*
D03*
X17323Y6496D02*
D03*
X17008Y6693D02*
D03*
Y5906D02*
D03*
X17323Y6890D02*
D03*
X17008Y7087D02*
D03*
X17323Y7283D02*
D03*
X17008Y7480D02*
D03*
X17323Y7677D02*
D03*
Y8425D02*
D03*
X17008Y8622D02*
D03*
X17323Y8819D02*
D03*
X17008Y9016D02*
D03*
X17323Y9213D02*
D03*
X17008Y9409D02*
D03*
X17323Y9606D02*
D03*
X17008Y9803D02*
D03*
X17323Y10000D02*
D03*
X17008Y10197D02*
D03*
X17323Y10394D02*
D03*
Y11181D02*
D03*
X17008Y11378D02*
D03*
X17323Y11575D02*
D03*
X17008Y11772D02*
D03*
X17323Y11968D02*
D03*
X17008Y12165D02*
D03*
X17323Y12362D02*
D03*
X17008Y12559D02*
D03*
X17323Y12756D02*
D03*
X17008Y12953D02*
D03*
X17323Y13150D02*
D03*
Y1181D02*
D03*
Y1575D02*
D03*
X16929Y1378D02*
D03*
Y1772D02*
D03*
X17323Y1969D02*
D03*
Y787D02*
D03*
X16929Y984D02*
D03*
Y591D02*
D03*
X16535Y1969D02*
D03*
Y1575D02*
D03*
Y1181D02*
D03*
Y787D02*
D03*
X16142Y591D02*
D03*
Y984D02*
D03*
Y1378D02*
D03*
Y1772D02*
D03*
X15748Y1969D02*
D03*
Y1575D02*
D03*
Y1181D02*
D03*
Y787D02*
D03*
Y394D02*
D03*
X15354Y591D02*
D03*
Y984D02*
D03*
Y1378D02*
D03*
Y1772D02*
D03*
X14961Y1969D02*
D03*
Y1575D02*
D03*
Y1181D02*
D03*
Y787D02*
D03*
Y394D02*
D03*
X14567Y591D02*
D03*
Y984D02*
D03*
Y1378D02*
D03*
Y1772D02*
D03*
X14173Y1969D02*
D03*
Y1575D02*
D03*
Y1181D02*
D03*
Y787D02*
D03*
Y394D02*
D03*
X17323Y3543D02*
D03*
Y3937D02*
D03*
Y3150D02*
D03*
Y2756D02*
D03*
X16929Y4134D02*
D03*
Y3740D02*
D03*
Y3346D02*
D03*
Y2953D02*
D03*
X16535Y2756D02*
D03*
Y3150D02*
D03*
Y3543D02*
D03*
Y3937D02*
D03*
X16142Y4134D02*
D03*
Y3740D02*
D03*
Y3346D02*
D03*
Y2953D02*
D03*
X15748Y2756D02*
D03*
Y3150D02*
D03*
Y3543D02*
D03*
Y3937D02*
D03*
Y4331D02*
D03*
X12402Y1969D02*
D03*
Y1575D02*
D03*
Y1181D02*
D03*
Y787D02*
D03*
Y394D02*
D03*
X12008Y591D02*
D03*
Y984D02*
D03*
Y1378D02*
D03*
Y1772D02*
D03*
X11614Y1969D02*
D03*
Y1575D02*
D03*
Y1181D02*
D03*
Y787D02*
D03*
Y394D02*
D03*
X11220Y591D02*
D03*
Y984D02*
D03*
Y1378D02*
D03*
Y1772D02*
D03*
X10827Y1969D02*
D03*
Y1575D02*
D03*
Y1181D02*
D03*
Y787D02*
D03*
Y394D02*
D03*
X10433Y591D02*
D03*
Y984D02*
D03*
Y1378D02*
D03*
Y1772D02*
D03*
X10039Y1969D02*
D03*
Y1181D02*
D03*
Y787D02*
D03*
Y394D02*
D03*
Y1575D02*
D03*
X5354Y7087D02*
D03*
X6260Y6299D02*
D03*
X6102Y11024D02*
D03*
X6496Y10630D02*
D03*
X5748D02*
D03*
X6102Y10236D02*
D03*
X5748Y9843D02*
D03*
X6496D02*
D03*
X6102Y9449D02*
D03*
X5709Y11417D02*
D03*
X6496D02*
D03*
X6102Y11811D02*
D03*
X8701Y12717D02*
D03*
X8110Y12362D02*
D03*
X6990Y13524D02*
D03*
X10374Y3031D02*
D03*
Y2402D02*
D03*
D34*
X8661Y8110D02*
D03*
X8268Y7992D02*
D03*
X9055Y8189D02*
D03*
X9449Y8307D02*
D03*
X5130Y9588D02*
D03*
X5157Y9961D02*
D03*
X5157Y9213D02*
D03*
X866Y6535D02*
D03*
X709Y5630D02*
D03*
X9449Y12205D02*
D03*
X4055Y9488D02*
D03*
X3976Y9094D02*
D03*
X3504Y9528D02*
D03*
X3504Y10118D02*
D03*
X2930Y9830D02*
D03*
X2323Y9803D02*
D03*
X5630Y3504D02*
D03*
X4882Y5925D02*
D03*
X4449Y5394D02*
D03*
X3937Y5906D02*
D03*
X5039Y4921D02*
D03*
X3701Y4980D02*
D03*
X5329Y4710D02*
D03*
X4724Y4685D02*
D03*
X5709Y4290D02*
D03*
X3701Y4606D02*
D03*
X3701Y4134D02*
D03*
X2953Y4094D02*
D03*
X3189Y3780D02*
D03*
X7120Y9370D02*
D03*
X9449Y13071D02*
D03*
X9449Y11142D02*
D03*
X3110Y2283D02*
D03*
X3504D02*
D03*
X7008Y9016D02*
D03*
X6940Y8661D02*
D03*
X6940Y8307D02*
D03*
X7008Y7953D02*
D03*
X7120Y11339D02*
D03*
Y10354D02*
D03*
X6811Y5522D02*
D03*
X7120Y10748D02*
D03*
Y9764D02*
D03*
X13366Y470D02*
D03*
X7362Y6378D02*
D03*
X15516Y13228D02*
D03*
X15652Y8110D02*
D03*
X15612Y10630D02*
D03*
X1870Y7756D02*
D03*
Y8228D02*
D03*
X5157Y10433D02*
D03*
Y11378D02*
D03*
X5157Y10976D02*
D03*
X1929Y8661D02*
D03*
X1378Y11220D02*
D03*
X1890Y11496D02*
D03*
X1535Y10866D02*
D03*
X2894Y12244D02*
D03*
X1969Y11890D02*
D03*
X2356Y12002D02*
D03*
X3465Y13307D02*
D03*
X3465Y12677D02*
D03*
X2894Y13189D02*
D03*
X2520Y5906D02*
D03*
X2992D02*
D03*
X3465D02*
D03*
X7466Y5458D02*
D03*
X7077Y3425D02*
D03*
X6654Y3268D02*
D03*
X6260Y5827D02*
D03*
X1575Y5354D02*
D03*
X9449Y12717D02*
D03*
X9449Y10787D02*
D03*
X9449Y10433D02*
D03*
X9449Y10079D02*
D03*
X9449Y9724D02*
D03*
X5394Y7465D02*
D03*
X7078Y11693D02*
D03*
M02*
