G04 Layer_Physical_Order=2*
G04 Layer_Color=16711680*
%FSLAX24Y24*%
%MOIN*%
G70*
G01*
G75*
%ADD10R,0.0276X0.0354*%
%ADD11R,0.0354X0.0315*%
%ADD19R,0.0315X0.0354*%
%ADD25R,0.0354X0.0276*%
%ADD26R,0.1820X0.1780*%
%ADD27R,0.0650X0.0240*%
%ADD28C,0.0118*%
%ADD29C,0.0197*%
%ADD30R,0.0394X0.0394*%
%ADD31C,0.0512*%
%ADD32C,0.0315*%
%ADD33C,0.0276*%
%ADD34C,0.0354*%
%ADD35R,0.0433X0.0177*%
%ADD36O,0.0433X0.0177*%
%ADD37R,0.0591X0.1378*%
%ADD38O,0.0118X0.0591*%
%ADD39R,0.0118X0.0591*%
%ADD40R,0.0591X0.0118*%
%ADD41R,0.0335X0.0335*%
%ADD42R,0.0118X0.0118*%
G36*
X12894Y6988D02*
X12697D01*
Y7106D01*
X12894D01*
Y6988D01*
D02*
G37*
G36*
X10492Y6319D02*
X10295D01*
Y6437D01*
X10492D01*
Y6319D01*
D02*
G37*
G36*
X2068Y9947D02*
X2114Y9862D01*
X2102Y9803D01*
X2119Y9719D01*
X2167Y9647D01*
X2238Y9599D01*
X2323Y9582D01*
X2384Y9595D01*
X2411Y9597D01*
X2418Y9594D01*
X2521Y9533D01*
X2538Y9507D01*
X2637Y9409D01*
X2682Y9378D01*
X2736Y9367D01*
X3095D01*
X3148Y9378D01*
X3194Y9409D01*
X3195Y9410D01*
X3338Y9386D01*
X3348Y9371D01*
X3363Y9361D01*
Y9177D01*
X3374Y9123D01*
X3405Y9078D01*
X3763Y8720D01*
X3808Y8689D01*
X3862Y8678D01*
X4136D01*
X4198Y8648D01*
X4238Y8612D01*
X4252Y8590D01*
Y8425D01*
Y8425D01*
X4612D01*
X4626Y8422D01*
Y8307D01*
X4252D01*
Y8031D01*
Y7606D01*
X4183Y7555D01*
X4134Y7535D01*
X4097Y7542D01*
X3504D01*
X3450Y7531D01*
X3405Y7501D01*
X3326Y7422D01*
X3295Y7377D01*
X3289Y7343D01*
X2303D01*
Y7343D01*
X2185D01*
Y7343D01*
X1909D01*
Y6982D01*
X1907Y6969D01*
X1850D01*
Y6909D01*
X1713D01*
Y6594D01*
X1907D01*
Y6142D01*
X1791D01*
Y6142D01*
X1319D01*
Y6142D01*
X1161D01*
Y5906D01*
X1043D01*
Y6142D01*
X846D01*
X846Y6142D01*
Y6142D01*
X784Y6232D01*
X858Y6306D01*
X872Y6316D01*
X951Y6331D01*
X1022Y6379D01*
X1070Y6451D01*
X1087Y6535D01*
X1070Y6620D01*
X1022Y6692D01*
X951Y6739D01*
X948Y6740D01*
Y7441D01*
X1227D01*
X1240Y7438D01*
X1659D01*
X1708Y7351D01*
X1713Y7323D01*
Y7028D01*
X1791D01*
Y7343D01*
X1784D01*
X1768Y7387D01*
X1764Y7461D01*
X1792Y7479D01*
X1852Y7539D01*
X1870Y7535D01*
X1955Y7552D01*
X2026Y7600D01*
X2074Y7671D01*
X2091Y7756D01*
X2074Y7840D01*
X2026Y7912D01*
X2008Y7924D01*
Y8060D01*
X2026Y8072D01*
X2074Y8144D01*
X2091Y8228D01*
X2074Y8313D01*
X2049Y8350D01*
X2033Y8400D01*
X2072Y8496D01*
X2085Y8505D01*
X2133Y8577D01*
X2150Y8661D01*
X2133Y8746D01*
X2085Y8818D01*
X2014Y8865D01*
X1929Y8882D01*
X1814Y8976D01*
Y9902D01*
X1918Y9980D01*
X2039D01*
X2068Y9947D01*
D02*
G37*
G36*
X16298Y8030D02*
X16367Y7961D01*
Y6040D01*
X16058Y5731D01*
X15433D01*
Y7854D01*
X15551Y7917D01*
X15567Y7906D01*
X15652Y7889D01*
X15736Y7906D01*
X15808Y7954D01*
X15856Y8026D01*
X15857Y8031D01*
X16297D01*
X16298Y8030D01*
D02*
G37*
G36*
X19606Y7561D02*
X19313D01*
X19307Y7563D01*
X19299D01*
X19291Y7564D01*
X19291Y7564D01*
X19291Y7564D01*
X19284Y7563D01*
X19276D01*
X19199Y7548D01*
X19199D01*
X19170Y7536D01*
X19105Y7492D01*
X19105Y7492D01*
X19083Y7470D01*
X19083Y7470D01*
X19039Y7405D01*
X19039Y7405D01*
X19027Y7376D01*
Y7376D01*
X19025Y7364D01*
X17344D01*
X17338Y7366D01*
X17336D01*
X17334Y7367D01*
X17334Y7367D01*
X17328Y7366D01*
X17323Y7368D01*
X17315Y7366D01*
X17307D01*
X17230Y7351D01*
X17230D01*
X17201Y7339D01*
X17136Y7295D01*
X17136Y7295D01*
X17114Y7273D01*
X17114Y7273D01*
X17071Y7208D01*
X17071Y7208D01*
X17059Y7179D01*
Y7179D01*
X17043Y7102D01*
Y7094D01*
X17042Y7086D01*
X17046Y6320D01*
X17043Y6315D01*
Y6307D01*
X17042Y6299D01*
X17043Y6291D01*
Y6284D01*
X17059Y6207D01*
X17071Y6178D01*
X17114Y6113D01*
X17136Y6091D01*
X17201Y6047D01*
X17230Y6035D01*
X17230D01*
X17307Y6020D01*
X17307D01*
X17307Y6020D01*
X17315Y6020D01*
X17323Y6018D01*
X18914Y6022D01*
X19027Y6010D01*
X19039Y5981D01*
X19039Y5981D01*
X19083Y5916D01*
X19105Y5894D01*
X19170Y5850D01*
X19199Y5838D01*
X19199D01*
X19276Y5823D01*
X19284D01*
X19292Y5821D01*
X19523Y5823D01*
X19606Y5739D01*
Y5315D01*
X16472D01*
X16427Y5424D01*
X16804Y5801D01*
X16834Y5847D01*
X16845Y5901D01*
Y8031D01*
X19606D01*
Y7561D01*
D02*
G37*
G36*
X5238Y7309D02*
X5309Y7261D01*
X5394Y7244D01*
X5478Y7261D01*
X5534Y7298D01*
X6200Y6633D01*
X6245Y6602D01*
X6299Y6592D01*
X6575D01*
Y6122D01*
X6575D01*
X6566Y6092D01*
X6476Y6024D01*
X6476Y6024D01*
X6476Y6024D01*
X6252D01*
X6235Y6035D01*
X6181Y6046D01*
X6165Y6043D01*
X6142Y6048D01*
X6085Y6036D01*
X5967Y6102D01*
Y6325D01*
X5957Y6379D01*
X5926Y6425D01*
X5460Y6891D01*
X5415Y6921D01*
X5361Y6932D01*
X5225D01*
X5119Y7038D01*
Y7274D01*
X5235Y7309D01*
X5238Y7309D01*
D02*
G37*
G36*
X19606Y2559D02*
Y2301D01*
X19551Y2246D01*
X19313D01*
X19307Y2248D01*
X19299D01*
X19291Y2249D01*
X19291Y2249D01*
X19291Y2249D01*
X19284Y2248D01*
X19276D01*
X19199Y2233D01*
X19199D01*
X19170Y2221D01*
X19105Y2177D01*
X19105Y2177D01*
X19083Y2155D01*
X19083Y2155D01*
X19039Y2090D01*
X19039Y2090D01*
X19027Y2061D01*
Y2061D01*
X19025Y2049D01*
X17344D01*
X17338Y2051D01*
X17336D01*
X17334Y2052D01*
X17334Y2052D01*
X17328Y2052D01*
X17323Y2053D01*
X17315Y2051D01*
X17307D01*
X17230Y2036D01*
X17230D01*
X17201Y2024D01*
X17136Y1980D01*
X17136Y1980D01*
X17114Y1958D01*
X17114Y1958D01*
X17071Y1893D01*
X17071Y1893D01*
X17059Y1864D01*
Y1864D01*
X17043Y1787D01*
Y1779D01*
X17042Y1771D01*
X17046Y1005D01*
X17043Y1000D01*
Y992D01*
X17042Y984D01*
X17043Y976D01*
Y969D01*
X17059Y892D01*
X17071Y863D01*
X17114Y798D01*
X17136Y776D01*
X17201Y732D01*
X17230Y720D01*
X17230D01*
X17307Y705D01*
X17307D01*
X17307Y705D01*
X17315Y705D01*
X17323Y703D01*
X18953Y707D01*
X19027Y695D01*
X19039Y666D01*
X19039Y666D01*
X19083Y601D01*
X19105Y579D01*
X19170Y535D01*
X19199Y523D01*
X19199D01*
X19276Y508D01*
X19284D01*
X19292Y506D01*
X19550Y508D01*
X19606Y452D01*
Y253D01*
X19551Y197D01*
X13937Y197D01*
Y1161D01*
X13957Y1181D01*
X13957D01*
Y1614D01*
X13937D01*
Y1752D01*
X13957Y1772D01*
X13957D01*
Y2205D01*
X13937D01*
Y2481D01*
X14015Y2559D01*
X19606Y2559D01*
D02*
G37*
G36*
X10157Y2461D02*
X10374D01*
Y2402D01*
X10433D01*
Y2146D01*
X10591D01*
X10591Y2146D01*
X10748D01*
Y2146D01*
X10787Y2146D01*
X11575D01*
Y2146D01*
X11732D01*
Y2146D01*
X12165D01*
Y2262D01*
X12205Y2288D01*
X12402Y2183D01*
Y2165D01*
X12605D01*
X12785Y1969D01*
Y1939D01*
X13031D01*
Y1880D01*
X13091D01*
Y1634D01*
X13256D01*
X13284Y1631D01*
X13445Y1563D01*
Y1181D01*
X13560D01*
Y938D01*
X13394Y790D01*
X13278Y807D01*
X13278Y807D01*
X12785D01*
Y315D01*
X13096D01*
X13132Y262D01*
X13043Y79D01*
X9646D01*
Y2336D01*
X9886Y2576D01*
X10157D01*
Y2461D01*
D02*
G37*
G36*
X19606Y5118D02*
Y4805D01*
X19313D01*
X19307Y4807D01*
X19299D01*
X19291Y4809D01*
X19291Y4809D01*
X19291Y4809D01*
X19284Y4807D01*
X19276D01*
X19199Y4792D01*
X19199D01*
X19170Y4780D01*
X19105Y4736D01*
X19105Y4736D01*
X19083Y4714D01*
X19083Y4714D01*
X19039Y4649D01*
X19039Y4649D01*
X19027Y4620D01*
Y4620D01*
X19025Y4608D01*
X17344D01*
X17338Y4610D01*
X17336D01*
X17334Y4611D01*
X17334Y4611D01*
X17328Y4611D01*
X17323Y4612D01*
X17315Y4610D01*
X17307D01*
X17230Y4595D01*
X17230D01*
X17201Y4583D01*
X17136Y4539D01*
X17136Y4539D01*
X17114Y4517D01*
X17114Y4517D01*
X17071Y4452D01*
X17071Y4452D01*
X17059Y4423D01*
Y4423D01*
X17043Y4346D01*
Y4338D01*
X17042Y4330D01*
X17046Y3564D01*
X17043Y3559D01*
Y3551D01*
X17042Y3543D01*
X17043Y3536D01*
Y3528D01*
X17059Y3451D01*
X17071Y3422D01*
X17114Y3357D01*
X17136Y3335D01*
X17201Y3291D01*
X17230Y3279D01*
X17230D01*
X17307Y3264D01*
X17307D01*
X17307Y3264D01*
X17315Y3264D01*
X17323Y3262D01*
X18953Y3266D01*
X19027Y3254D01*
X19039Y3225D01*
X19039Y3225D01*
X19083Y3160D01*
X19105Y3138D01*
X19170Y3094D01*
X19199Y3082D01*
X19199D01*
X19276Y3067D01*
X19284D01*
X19292Y3065D01*
X19550Y3067D01*
X19606Y3011D01*
Y2812D01*
X19551Y2756D01*
X15354Y2756D01*
Y5062D01*
X15410Y5118D01*
X19606Y5118D01*
D02*
G37*
G36*
X13553Y7744D02*
Y7480D01*
X14360D01*
X14449Y7409D01*
Y6117D01*
X14356Y6024D01*
X12835D01*
Y6908D01*
X12894D01*
X12924Y6914D01*
X12950Y6931D01*
X12968Y6957D01*
X12974Y6988D01*
Y7106D01*
X12968Y7137D01*
X12950Y7163D01*
X12924Y7180D01*
X12894Y7187D01*
X12835D01*
Y7852D01*
X13446D01*
X13553Y7744D01*
D02*
G37*
G36*
X3051Y5118D02*
X3401D01*
X3484Y5000D01*
X3480Y4980D01*
X3497Y4896D01*
X3508Y4880D01*
X3514Y4858D01*
X3464Y4747D01*
X3031D01*
X2978Y4736D01*
X2932Y4706D01*
X2578Y4351D01*
X2547Y4306D01*
X2537Y4252D01*
Y3980D01*
X2547Y3927D01*
X2578Y3881D01*
X2615Y3843D01*
Y3626D01*
X2626Y3572D01*
X2657Y3527D01*
X3960Y2223D01*
X4005Y2193D01*
X4059Y2182D01*
X9252D01*
Y1204D01*
X9154Y1191D01*
X9063Y1153D01*
X8985Y1094D01*
X8925Y1015D01*
X8888Y924D01*
X8875Y827D01*
X8888Y729D01*
X8925Y638D01*
X8985Y560D01*
X9063Y500D01*
X9154Y462D01*
X9252Y450D01*
Y79D01*
X1324Y79D01*
X1265Y197D01*
X1272Y205D01*
X1309Y296D01*
X1322Y394D01*
X1309Y491D01*
X1272Y582D01*
X1212Y660D01*
X1133Y720D01*
X1043Y758D01*
X945Y771D01*
X847Y758D01*
X756Y720D01*
X678Y660D01*
X618Y582D01*
X580Y491D01*
X568Y394D01*
X580Y296D01*
X618Y205D01*
X624Y197D01*
X566Y79D01*
X162D01*
X79Y162D01*
Y5204D01*
X197Y5253D01*
X687Y4763D01*
X733Y4732D01*
X787Y4722D01*
X1600D01*
X1730Y4592D01*
Y4388D01*
X1654Y4282D01*
X1566Y4271D01*
X1485Y4237D01*
X1415Y4184D01*
X1361Y4114D01*
X1328Y4032D01*
X1316Y3945D01*
X1328Y3858D01*
X1361Y3776D01*
X1415Y3706D01*
X1485Y3653D01*
X1566Y3619D01*
X1654Y3607D01*
X1741Y3619D01*
X1803Y3644D01*
X1899Y3594D01*
X1912Y3584D01*
X1922Y3491D01*
X1707Y3275D01*
X1654Y3282D01*
X1566Y3271D01*
X1485Y3237D01*
X1415Y3184D01*
X1361Y3114D01*
X1328Y3032D01*
X1316Y2945D01*
X1328Y2858D01*
X1361Y2776D01*
X1415Y2706D01*
X1485Y2653D01*
X1566Y2619D01*
X1654Y2607D01*
X1741Y2619D01*
X1822Y2653D01*
X1892Y2706D01*
X1946Y2776D01*
X1980Y2858D01*
X1991Y2945D01*
X1980Y3032D01*
X1946Y3114D01*
X1944Y3116D01*
X2186Y3357D01*
X2216Y3403D01*
X2227Y3457D01*
Y4712D01*
X2216Y4765D01*
X2186Y4811D01*
X1988Y5009D01*
X2033Y5118D01*
X2461D01*
Y5354D01*
X2579D01*
Y5118D01*
X2933D01*
Y5354D01*
X3051D01*
Y5118D01*
D02*
G37*
G36*
X10492Y11555D02*
X10295D01*
Y11673D01*
X10492D01*
Y11555D01*
D02*
G37*
G36*
X9252Y13617D02*
Y13166D01*
X9245Y13155D01*
X9228Y13071D01*
X9245Y12986D01*
X9252Y12976D01*
Y12812D01*
X9245Y12801D01*
X9228Y12717D01*
X9245Y12632D01*
X9252Y12621D01*
Y12606D01*
X8086Y11440D01*
X7869D01*
X7815Y11535D01*
Y11614D01*
X7815D01*
X7815Y11654D01*
Y11837D01*
X7818Y11850D01*
X7815Y11864D01*
Y12087D01*
X7303D01*
Y11942D01*
X7185Y11882D01*
X7162Y11897D01*
X7078Y11914D01*
X6993Y11897D01*
X6922Y11849D01*
X6874Y11777D01*
X6857Y11693D01*
X6874Y11608D01*
X6922Y11537D01*
X6916Y11423D01*
X6899Y11339D01*
X6916Y11254D01*
X6964Y11182D01*
X7036Y11135D01*
X7120Y11118D01*
X7159Y11125D01*
X7233Y11044D01*
X7225Y11033D01*
X7137Y10965D01*
X7120Y10969D01*
X7036Y10952D01*
X6964Y10904D01*
X6916Y10833D01*
X6899Y10748D01*
X6916Y10664D01*
X6936Y10634D01*
X6955Y10551D01*
X6936Y10469D01*
X6916Y10439D01*
X6899Y10354D01*
X6916Y10270D01*
X6964Y10198D01*
X7036Y10150D01*
X7120Y10134D01*
X7159Y10141D01*
X7233Y10059D01*
X7225Y10049D01*
X7137Y9981D01*
X7120Y9985D01*
X7036Y9968D01*
X6964Y9920D01*
X6916Y9848D01*
X6899Y9764D01*
X6916Y9679D01*
X6936Y9650D01*
X6955Y9567D01*
X6936Y9484D01*
X6916Y9455D01*
X6899Y9370D01*
X6906Y9337D01*
X6923Y9220D01*
X6852Y9172D01*
X6804Y9100D01*
X6787Y9016D01*
X6804Y8931D01*
X6850Y8862D01*
X6784Y8818D01*
X6736Y8746D01*
X6719Y8661D01*
X6736Y8577D01*
X6784Y8505D01*
Y8463D01*
X6736Y8392D01*
X6719Y8307D01*
X6736Y8223D01*
X6784Y8151D01*
X6850Y8107D01*
X6804Y8037D01*
X6787Y7953D01*
X6804Y7868D01*
X6852Y7797D01*
X6923Y7749D01*
X7008Y7732D01*
X7092Y7749D01*
X7164Y7797D01*
X7212Y7868D01*
X7229Y7953D01*
X7227Y7962D01*
X7305Y8048D01*
X7938D01*
X8017Y8008D01*
X8057Y7941D01*
X8064Y7908D01*
X8112Y7836D01*
X8183Y7788D01*
X8268Y7771D01*
X8352Y7788D01*
X8378Y7805D01*
X8645Y7538D01*
X8690Y7508D01*
X8744Y7497D01*
X9252D01*
Y6301D01*
X9153Y6202D01*
X9122Y6156D01*
X9111Y6102D01*
Y6043D01*
X8858D01*
Y5531D01*
Y5059D01*
X9252D01*
Y3191D01*
X9115Y3054D01*
X4362D01*
X3763Y3653D01*
Y3925D01*
X3785Y3930D01*
X3857Y3978D01*
X3905Y4049D01*
X3922Y4134D01*
X3905Y4218D01*
X3857Y4290D01*
X3839Y4302D01*
X3839Y4438D01*
X3857Y4450D01*
X3905Y4522D01*
X3922Y4606D01*
X3905Y4691D01*
X3894Y4707D01*
X3887Y4728D01*
X3937Y4840D01*
X4093D01*
X4146Y4851D01*
X4192Y4881D01*
X4429Y5118D01*
X4626D01*
Y5118D01*
X4821D01*
X4842Y5102D01*
X4905Y5000D01*
X4897Y4961D01*
X4902Y4936D01*
X4876Y4810D01*
X4805Y4762D01*
X4757Y4691D01*
X4740Y4606D01*
X4757Y4522D01*
X4805Y4450D01*
X4876Y4402D01*
X4961Y4386D01*
X4979Y4389D01*
X5072Y4296D01*
X5118Y4265D01*
X5172Y4255D01*
X5415D01*
X5444Y4254D01*
X5544Y4167D01*
X5592Y4096D01*
X5664Y4048D01*
X5748Y4031D01*
X5833Y4048D01*
X5904Y4096D01*
X5952Y4167D01*
X5969Y4252D01*
X5960Y4295D01*
X5967Y4331D01*
Y5000D01*
X6325D01*
X6339Y4997D01*
X6592D01*
X6618Y4980D01*
X6683Y4967D01*
X6939D01*
X6949Y4969D01*
X7047Y4878D01*
X7047Y4877D01*
Y4409D01*
X7480D01*
Y4921D01*
X7404D01*
X7394Y4975D01*
X7363Y5021D01*
X7147Y5237D01*
X7097Y5328D01*
X7110Y5394D01*
X7116Y5400D01*
X7150Y5400D01*
X7257Y5369D01*
X7285Y5328D01*
X7356Y5280D01*
X7441Y5263D01*
X7525Y5197D01*
X7835D01*
Y5079D01*
X7548D01*
X7549Y5073D01*
X7586Y5018D01*
X7587Y5014D01*
X7638Y4916D01*
X7638Y4860D01*
Y4724D01*
X8071D01*
Y4877D01*
X8071Y4908D01*
X8074Y4939D01*
X8092Y5031D01*
X8120Y5073D01*
X8246Y5128D01*
X8268Y5121D01*
Y5059D01*
X8701D01*
Y5531D01*
Y6043D01*
X8701D01*
X8661Y6122D01*
Y6634D01*
X8228D01*
Y6122D01*
X8228D01*
X8268Y6043D01*
Y5790D01*
X8130D01*
Y6073D01*
X8130D01*
X8071Y6122D01*
Y6634D01*
X7896D01*
X7698Y6832D01*
X7652Y6862D01*
X7598Y6873D01*
X6357D01*
X5666Y7564D01*
X5620Y7595D01*
X5602Y7598D01*
X5612Y7710D01*
X5617Y7717D01*
X5650D01*
Y7894D01*
X5394D01*
Y8012D01*
X5650D01*
Y8189D01*
X5650D01*
Y8268D01*
X5650D01*
Y8740D01*
X5428D01*
X5383Y8849D01*
X5532Y8999D01*
X5563Y9045D01*
X5574Y9098D01*
Y9213D01*
X5574Y9213D01*
Y11199D01*
X5563Y11253D01*
X5532Y11298D01*
X5353Y11477D01*
X5350Y11479D01*
X5314Y11534D01*
X5242Y11582D01*
X5157Y11599D01*
X5073Y11582D01*
X5001Y11534D01*
X4954Y11462D01*
X4937Y11378D01*
X4945Y11339D01*
X4928Y11311D01*
X4862Y11220D01*
X4862D01*
X4862Y11220D01*
Y10748D01*
X4862D01*
Y10669D01*
X4862D01*
Y10197D01*
X4808Y10101D01*
X4173D01*
X4154Y10117D01*
Y10341D01*
X4156Y10354D01*
Y10611D01*
X4312Y10767D01*
X4342Y10812D01*
X4353Y10866D01*
Y12597D01*
X4342Y12651D01*
X4312Y12697D01*
X3681Y13327D01*
X3669Y13392D01*
X3621Y13463D01*
X3549Y13511D01*
X3465Y13528D01*
X3380Y13511D01*
X3308Y13463D01*
X3261Y13392D01*
X3244Y13307D01*
X3162Y13189D01*
X3114Y13189D01*
X3098Y13273D01*
X3050Y13345D01*
X2978Y13393D01*
X2894Y13410D01*
X2809Y13393D01*
X2738Y13345D01*
X2690Y13273D01*
X2673Y13189D01*
X2690Y13104D01*
X2738Y13033D01*
X2809Y12985D01*
X2871Y12973D01*
X2898Y12924D01*
X2883Y12807D01*
X2838Y12776D01*
X2519Y12458D01*
X2488Y12412D01*
X2478Y12358D01*
Y12337D01*
X2437Y12306D01*
X2359Y12280D01*
X2337Y12295D01*
X2283Y12306D01*
X2023D01*
X1922Y12402D01*
X1905Y12486D01*
X1857Y12558D01*
X1785Y12606D01*
X1701Y12622D01*
X1616Y12606D01*
X1545Y12558D01*
X1497Y12486D01*
X1480Y12402D01*
X1494Y12332D01*
X1279Y12117D01*
X1248Y12071D01*
X1237Y12018D01*
Y11387D01*
X1222Y11377D01*
X1174Y11305D01*
X1157Y11220D01*
X1161Y11202D01*
X1141Y11182D01*
X1110Y11136D01*
X1100Y11083D01*
Y9882D01*
X866D01*
Y9688D01*
X643D01*
X589Y9677D01*
X544Y9647D01*
X197Y9300D01*
X79Y9348D01*
Y13701D01*
X9168Y13701D01*
X9252Y13617D01*
D02*
G37*
G36*
X12894Y12106D02*
X12697D01*
Y12224D01*
X12894D01*
Y12106D01*
D02*
G37*
G36*
X3757Y12486D02*
Y12008D01*
X3642D01*
Y12008D01*
X3484D01*
Y11772D01*
X3366D01*
Y12008D01*
X3012D01*
Y11772D01*
X2894D01*
Y12008D01*
X2772D01*
Y12116D01*
X2762Y12170D01*
X2759Y12175D01*
Y12300D01*
X2995Y12537D01*
X3298D01*
X3308Y12521D01*
X3380Y12473D01*
X3465Y12456D01*
X3549Y12473D01*
X3621Y12521D01*
X3630Y12535D01*
X3651Y12542D01*
X3757Y12486D01*
D02*
G37*
G36*
X19606Y13072D02*
X19313D01*
X19307Y13075D01*
X19299D01*
X19291Y13076D01*
X19291Y13076D01*
X19291Y13076D01*
X19284Y13075D01*
X19276D01*
X19199Y13059D01*
X19199D01*
X19170Y13047D01*
X19105Y13004D01*
X19105Y13004D01*
X19083Y12982D01*
X19083Y12982D01*
X19039Y12917D01*
X19039Y12917D01*
X19027Y12888D01*
Y12888D01*
X19025Y12876D01*
X17344D01*
X17338Y12878D01*
X17336D01*
X17334Y12879D01*
X17334Y12879D01*
X17328Y12878D01*
X17323Y12879D01*
X17315Y12878D01*
X17307D01*
X17230Y12863D01*
X17230D01*
X17201Y12851D01*
X17136Y12807D01*
X17136Y12807D01*
X17114Y12785D01*
X17114Y12785D01*
X17071Y12720D01*
X17071Y12720D01*
X17059Y12691D01*
Y12691D01*
X17043Y12614D01*
Y12606D01*
X17042Y12598D01*
X17046Y11832D01*
X17043Y11827D01*
Y11819D01*
X17042Y11811D01*
X17043Y11803D01*
Y11795D01*
X17059Y11719D01*
X17071Y11690D01*
X17114Y11625D01*
X17136Y11602D01*
X17201Y11559D01*
X17230Y11547D01*
X17230D01*
X17307Y11532D01*
X17307D01*
X17307Y11532D01*
X17315Y11532D01*
X17323Y11530D01*
X18914Y11533D01*
X19027Y11522D01*
X19039Y11493D01*
X19039Y11493D01*
X19083Y11428D01*
X19105Y11405D01*
X19170Y11362D01*
X19199Y11350D01*
X19199D01*
X19276Y11335D01*
X19284D01*
X19292Y11333D01*
X19523Y11334D01*
X19606Y11251D01*
Y10868D01*
X16774D01*
X16767Y10866D01*
X16490D01*
X16482Y10868D01*
X15909D01*
X15902Y10866D01*
X15575D01*
X15475Y10965D01*
X15433Y10994D01*
Y12940D01*
X15516Y13008D01*
X15600Y13024D01*
X15672Y13072D01*
X15720Y13144D01*
X15737Y13228D01*
X15720Y13313D01*
X15672Y13384D01*
X15600Y13432D01*
X15583Y13436D01*
X15561Y13465D01*
X15616Y13579D01*
X15622Y13583D01*
X19606D01*
Y13072D01*
D02*
G37*
G36*
X13553Y12784D02*
Y12599D01*
X14331D01*
X14449Y12527D01*
X14449Y11225D01*
X14365Y11142D01*
X12835Y11142D01*
Y12026D01*
X12894D01*
X12924Y12032D01*
X12950Y12050D01*
X12968Y12076D01*
X12974Y12106D01*
Y12224D01*
X12968Y12255D01*
X12950Y12281D01*
X12924Y12299D01*
X12894Y12305D01*
X12835Y12364D01*
Y12852D01*
X13485D01*
X13553Y12784D01*
D02*
G37*
G36*
X10492Y8839D02*
X10295D01*
Y8957D01*
X10492D01*
Y8839D01*
D02*
G37*
G36*
X13553Y10264D02*
Y10039D01*
X14360D01*
X14449Y9968D01*
Y8526D01*
X12835D01*
Y9388D01*
X12894D01*
X12924Y9394D01*
X12950Y9412D01*
X12968Y9438D01*
X12974Y9469D01*
Y9587D01*
X12968Y9617D01*
X12950Y9643D01*
X12924Y9661D01*
X12894Y9667D01*
X12835D01*
Y10332D01*
X13485D01*
X13553Y10264D01*
D02*
G37*
G36*
X12894Y9469D02*
X12697D01*
Y9587D01*
X12894D01*
Y9469D01*
D02*
G37*
G36*
X16493Y10776D02*
Y8211D01*
X16405Y8112D01*
X16402Y8110D01*
X16313D01*
X16313Y8110D01*
X16305Y8110D01*
X16297Y8112D01*
X15872D01*
X15856Y8195D01*
X15808Y8266D01*
X15736Y8314D01*
X15652Y8331D01*
X15633Y8327D01*
X15475Y8485D01*
X15433Y8513D01*
Y10347D01*
X15470Y10378D01*
X15551Y10421D01*
X15612Y10409D01*
X15697Y10426D01*
X15768Y10474D01*
X15816Y10545D01*
X15833Y10630D01*
X15825Y10669D01*
X15888Y10771D01*
X15909Y10787D01*
X16482D01*
X16493Y10776D01*
D02*
G37*
G36*
X19606Y10316D02*
X19313D01*
X19307Y10319D01*
X19299D01*
X19291Y10320D01*
X19291Y10320D01*
X19291Y10320D01*
X19284Y10319D01*
X19276D01*
X19199Y10304D01*
X19199D01*
X19170Y10292D01*
X19105Y10248D01*
X19105Y10248D01*
X19083Y10226D01*
X19083Y10226D01*
X19039Y10161D01*
X19039Y10161D01*
X19027Y10132D01*
Y10132D01*
X19025Y10120D01*
X17344D01*
X17339Y10122D01*
X17336D01*
X17334Y10123D01*
X17334Y10123D01*
X17328Y10122D01*
X17323Y10124D01*
X17315Y10122D01*
X17307D01*
X17230Y10107D01*
X17230D01*
X17201Y10095D01*
X17136Y10051D01*
X17136Y10051D01*
X17114Y10029D01*
X17114Y10029D01*
X17071Y9964D01*
X17071Y9964D01*
X17059Y9935D01*
Y9935D01*
X17043Y9858D01*
Y9850D01*
X17042Y9842D01*
X17046Y9076D01*
X17043Y9071D01*
Y9063D01*
X17042Y9055D01*
X17043Y9047D01*
Y9039D01*
X17059Y8963D01*
X17071Y8934D01*
X17114Y8869D01*
X17136Y8846D01*
X17201Y8803D01*
X17230Y8791D01*
X17230D01*
X17307Y8776D01*
X17307D01*
X17307Y8776D01*
X17315Y8776D01*
X17323Y8774D01*
X18914Y8778D01*
X19027Y8766D01*
X19039Y8737D01*
X19039Y8737D01*
X19083Y8672D01*
X19105Y8650D01*
X19170Y8606D01*
X19199Y8594D01*
X19199D01*
X19276Y8579D01*
X19284D01*
X19292Y8577D01*
X19523Y8578D01*
X19606Y8495D01*
Y8112D01*
X19606Y8112D01*
X16845D01*
Y8140D01*
X16834Y8194D01*
X16804Y8239D01*
X16774Y8269D01*
Y10787D01*
X19606D01*
Y10316D01*
D02*
G37*
%LPC*%
G36*
X12972Y1821D02*
X12785D01*
Y1634D01*
X12972D01*
Y1821D01*
D02*
G37*
G36*
X1654Y2282D02*
X1566Y2271D01*
X1485Y2237D01*
X1415Y2184D01*
X1361Y2114D01*
X1328Y2032D01*
X1316Y1945D01*
X1328Y1858D01*
X1361Y1776D01*
X1415Y1706D01*
X1485Y1653D01*
X1566Y1619D01*
X1654Y1607D01*
X1741Y1619D01*
X1822Y1653D01*
X1892Y1706D01*
X1946Y1776D01*
X1980Y1858D01*
X1991Y1945D01*
X1980Y2032D01*
X1946Y2114D01*
X1892Y2184D01*
X1822Y2237D01*
X1741Y2271D01*
X1654Y2282D01*
D02*
G37*
G36*
X3150Y2406D02*
X3057Y2388D01*
X2979Y2336D01*
X2927Y2258D01*
X2909Y2165D01*
X2927Y2073D01*
X2969Y2011D01*
Y2005D01*
X2927Y1943D01*
X2909Y1850D01*
X2927Y1758D01*
X2969Y1696D01*
Y1339D01*
X2983Y1269D01*
X3022Y1211D01*
X3337Y896D01*
X3395Y857D01*
X3465Y843D01*
X5866D01*
X5924Y725D01*
X5908Y704D01*
X5875Y623D01*
X5863Y535D01*
X5875Y448D01*
X5908Y367D01*
X5962Y297D01*
X6032Y243D01*
X6113Y209D01*
X6201Y198D01*
X6288Y209D01*
X6370Y243D01*
X6439Y297D01*
X6493Y367D01*
X6527Y448D01*
X6538Y535D01*
X6527Y623D01*
X6493Y704D01*
X6477Y725D01*
X6535Y843D01*
X6866D01*
X6924Y725D01*
X6908Y704D01*
X6875Y623D01*
X6863Y535D01*
X6875Y448D01*
X6908Y367D01*
X6962Y297D01*
X7032Y243D01*
X7113Y209D01*
X7201Y198D01*
X7288Y209D01*
X7370Y243D01*
X7439Y297D01*
X7493Y367D01*
X7527Y448D01*
X7538Y535D01*
X7527Y623D01*
X7493Y704D01*
X7477Y725D01*
X7527Y826D01*
X7644Y836D01*
X7873Y608D01*
X7863Y535D01*
X7875Y448D01*
X7908Y367D01*
X7962Y297D01*
X8032Y243D01*
X8113Y209D01*
X8201Y198D01*
X8288Y209D01*
X8370Y243D01*
X8439Y297D01*
X8493Y367D01*
X8527Y448D01*
X8538Y535D01*
X8527Y623D01*
X8493Y704D01*
X8439Y774D01*
X8370Y828D01*
X8288Y861D01*
X8201Y873D01*
X8128Y863D01*
X7874Y1117D01*
X7872Y1186D01*
X7879Y1234D01*
X7891Y1260D01*
X7939Y1297D01*
X7993Y1367D01*
X8027Y1448D01*
X8038Y1535D01*
X8027Y1623D01*
X7993Y1704D01*
X7939Y1774D01*
X7870Y1828D01*
X7788Y1861D01*
X7701Y1873D01*
X7613Y1861D01*
X7532Y1828D01*
X7462Y1774D01*
X7408Y1704D01*
X7375Y1623D01*
X7363Y1535D01*
X7375Y1448D01*
X7408Y1367D01*
X7442Y1322D01*
X7414Y1236D01*
X7390Y1204D01*
X7012D01*
X6987Y1236D01*
X6959Y1322D01*
X6993Y1367D01*
X7027Y1448D01*
X7038Y1535D01*
X7027Y1623D01*
X6993Y1704D01*
X6939Y1774D01*
X6870Y1828D01*
X6788Y1861D01*
X6701Y1873D01*
X6613Y1861D01*
X6532Y1828D01*
X6462Y1774D01*
X6408Y1704D01*
X6375Y1623D01*
X6363Y1535D01*
X6375Y1448D01*
X6408Y1367D01*
X6442Y1322D01*
X6414Y1236D01*
X6390Y1204D01*
X3539D01*
X3330Y1413D01*
Y1696D01*
X3372Y1758D01*
X3390Y1850D01*
X3372Y1943D01*
X3330Y2005D01*
Y2011D01*
X3372Y2073D01*
X3390Y2165D01*
X3372Y2258D01*
X3320Y2336D01*
X3242Y2388D01*
X3150Y2406D01*
D02*
G37*
G36*
X654Y1782D02*
X566Y1771D01*
X485Y1737D01*
X415Y1684D01*
X361Y1614D01*
X328Y1532D01*
X316Y1445D01*
X328Y1358D01*
X361Y1276D01*
X415Y1206D01*
X485Y1153D01*
X566Y1119D01*
X654Y1107D01*
X741Y1119D01*
X822Y1153D01*
X892Y1206D01*
X946Y1276D01*
X980Y1358D01*
X991Y1445D01*
X980Y1532D01*
X946Y1614D01*
X892Y1684D01*
X822Y1737D01*
X741Y1771D01*
X654Y1782D01*
D02*
G37*
G36*
X7795Y4606D02*
X7638D01*
Y4409D01*
X7795D01*
Y4606D01*
D02*
G37*
G36*
X8071D02*
X7913D01*
Y4409D01*
X8071D01*
Y4606D01*
D02*
G37*
G36*
X654Y3782D02*
X566Y3771D01*
X485Y3737D01*
X415Y3684D01*
X361Y3614D01*
X328Y3532D01*
X316Y3445D01*
X328Y3358D01*
X361Y3276D01*
X415Y3206D01*
X485Y3153D01*
X566Y3119D01*
X654Y3107D01*
X741Y3119D01*
X822Y3153D01*
X892Y3206D01*
X946Y3276D01*
X980Y3358D01*
X991Y3445D01*
X980Y3532D01*
X946Y3614D01*
X892Y3684D01*
X822Y3737D01*
X741Y3771D01*
X654Y3782D01*
D02*
G37*
G36*
Y2782D02*
X566Y2771D01*
X485Y2737D01*
X415Y2684D01*
X361Y2614D01*
X328Y2532D01*
X316Y2445D01*
X328Y2358D01*
X361Y2276D01*
X415Y2206D01*
X485Y2153D01*
X566Y2119D01*
X654Y2107D01*
X741Y2119D01*
X822Y2153D01*
X892Y2206D01*
X946Y2276D01*
X980Y2358D01*
X991Y2445D01*
X980Y2532D01*
X946Y2614D01*
X892Y2684D01*
X822Y2737D01*
X741Y2771D01*
X654Y2782D01*
D02*
G37*
G36*
X10315Y2343D02*
X10157D01*
Y2146D01*
X10315D01*
Y2343D01*
D02*
G37*
%LPD*%
G36*
X19051Y4567D02*
Y4567D01*
X19055D01*
X19051Y4567D01*
D02*
G37*
G36*
X19606Y2205D02*
X19252Y2209D01*
X19175Y2193D01*
X19110Y2150D01*
X19067Y2085D01*
X19051Y2008D01*
X16968Y2008D01*
Y748D01*
X19055D01*
X19051Y748D01*
X19067Y671D01*
X19110Y606D01*
X19175Y563D01*
X19252Y547D01*
X19606Y551D01*
Y197D01*
X16890D01*
Y748D01*
Y2008D01*
Y2559D01*
X19606D01*
Y2205D01*
D02*
G37*
G36*
X19051Y2008D02*
Y2008D01*
X19055D01*
X19051Y2008D01*
D02*
G37*
G36*
X19606Y4764D02*
X19252Y4768D01*
X19175Y4752D01*
X19110Y4709D01*
X19067Y4644D01*
X19051Y4567D01*
X16968Y4567D01*
Y3307D01*
X19055D01*
X19051Y3307D01*
X19067Y3230D01*
X19110Y3165D01*
X19175Y3122D01*
X19252Y3106D01*
X19606Y3110D01*
Y2756D01*
X16890D01*
Y3307D01*
Y4567D01*
Y5118D01*
X19606D01*
Y4764D01*
D02*
G37*
G36*
Y13032D02*
X19252Y13035D01*
X19175Y13020D01*
X19110Y12977D01*
X19067Y12911D01*
X19051Y12835D01*
X19055D01*
X19051Y12835D01*
Y12835D01*
X16968Y12835D01*
Y11575D01*
X19055D01*
X19051Y11575D01*
X19067Y11498D01*
X19110Y11433D01*
X19175Y11389D01*
X19252Y11374D01*
X19606Y11378D01*
Y11024D01*
X16890D01*
Y11575D01*
Y12835D01*
Y13386D01*
X19606D01*
Y13032D01*
D02*
G37*
G36*
X19606Y10276D02*
X19252Y10279D01*
X19175Y10264D01*
X19110Y10221D01*
X19067Y10156D01*
X19051Y10079D01*
X19055D01*
X19051Y10079D01*
Y10079D01*
X16969Y10079D01*
Y8819D01*
X19055D01*
X19051Y8819D01*
X19067Y8742D01*
X19110Y8677D01*
X19175Y8633D01*
X19252Y8618D01*
X19606Y8622D01*
Y8268D01*
X16890D01*
Y8819D01*
Y10079D01*
Y10630D01*
X19606D01*
Y10276D01*
D02*
G37*
G36*
X19606Y7520D02*
X19252Y7524D01*
X19175Y7508D01*
X19110Y7465D01*
X19067Y7400D01*
X19051Y7323D01*
X19055D01*
X19051Y7323D01*
Y7323D01*
X16968Y7323D01*
Y6063D01*
X19055D01*
X19051Y6063D01*
X19067Y5986D01*
X19110Y5921D01*
X19175Y5878D01*
X19252Y5862D01*
X19606Y5866D01*
Y5512D01*
X16890D01*
Y6063D01*
Y7323D01*
Y7874D01*
X19606D01*
Y7520D01*
D02*
G37*
D10*
X7854Y4665D02*
D03*
X7264D02*
D03*
X7854Y6378D02*
D03*
X8445D02*
D03*
X8484Y5315D02*
D03*
X9075D02*
D03*
X8484Y5787D02*
D03*
X9075D02*
D03*
X11358Y3661D02*
D03*
X11949D02*
D03*
X10374D02*
D03*
X10965D02*
D03*
X11358Y2402D02*
D03*
X11949D02*
D03*
X10374D02*
D03*
X10965D02*
D03*
X11358Y3031D02*
D03*
X11949D02*
D03*
X10374Y3031D02*
D03*
X10965D02*
D03*
X11358Y4291D02*
D03*
X11949D02*
D03*
X10374D02*
D03*
X10965D02*
D03*
D11*
X9961Y11575D02*
D03*
Y12126D02*
D03*
X9961Y6260D02*
D03*
Y6811D02*
D03*
X9961Y8976D02*
D03*
Y9528D02*
D03*
X1575Y5906D02*
D03*
Y5354D02*
D03*
X2047Y5354D02*
D03*
Y5906D02*
D03*
X1102Y5906D02*
D03*
Y5354D02*
D03*
X3937Y5354D02*
D03*
Y5906D02*
D03*
X2520Y5354D02*
D03*
Y5906D02*
D03*
X2992Y5354D02*
D03*
Y5906D02*
D03*
X3465Y5354D02*
D03*
Y5906D02*
D03*
X7559Y9331D02*
D03*
Y9882D02*
D03*
Y10315D02*
D03*
Y10866D02*
D03*
Y11299D02*
D03*
Y11850D02*
D03*
X3425Y11220D02*
D03*
Y11772D02*
D03*
X3898Y11220D02*
D03*
Y11772D02*
D03*
X2953Y11220D02*
D03*
Y11772D02*
D03*
X5394Y7953D02*
D03*
Y8504D02*
D03*
X5118Y10433D02*
D03*
Y10984D02*
D03*
D19*
X6811Y6378D02*
D03*
X7362D02*
D03*
D25*
X6220Y5217D02*
D03*
Y5807D02*
D03*
X4882Y5335D02*
D03*
Y5925D02*
D03*
X4409Y5335D02*
D03*
Y5925D02*
D03*
X13701Y1988D02*
D03*
Y1398D02*
D03*
D26*
X15460Y12047D02*
D03*
Y9488D02*
D03*
Y6929D02*
D03*
D27*
X13957Y12797D02*
D03*
Y12297D02*
D03*
Y11797D02*
D03*
Y11297D02*
D03*
Y10238D02*
D03*
Y9738D02*
D03*
Y9238D02*
D03*
Y8738D02*
D03*
Y7679D02*
D03*
Y7179D02*
D03*
Y6679D02*
D03*
Y6179D02*
D03*
D28*
X4978Y6980D02*
Y7382D01*
Y6980D02*
X5167Y6791D01*
X4978Y7382D02*
X5059Y7463D01*
X8209Y5059D02*
X8780Y4488D01*
X8209Y5059D02*
Y5121D01*
X8192Y5138D02*
X8209Y5121D01*
X7835Y5138D02*
X8192D01*
X7835Y4685D02*
X7854Y4665D01*
X7835Y4685D02*
Y5138D01*
X7343D02*
X7835D01*
X7165Y5315D02*
X7343Y5138D01*
X7165Y5315D02*
Y5626D01*
X7362Y5823D01*
Y6378D01*
X3031Y6616D02*
X3112Y6535D01*
X3364D01*
X3031Y6616D02*
Y6969D01*
X3089Y6339D02*
X3465Y5963D01*
X3031Y6339D02*
X3089D01*
X3465Y5906D02*
Y5963D01*
X6142Y5827D02*
Y5866D01*
X6181Y5906D01*
X5827Y4331D02*
Y6325D01*
X5630Y4582D02*
Y6244D01*
X5198Y6398D02*
X5433Y6162D01*
Y4843D02*
Y6162D01*
X5116Y6201D02*
X5236Y6081D01*
Y5079D02*
Y6081D01*
X4304Y2913D02*
X9173D01*
X3622Y3595D02*
X4304Y2913D01*
X3622Y3595D02*
Y4055D01*
X4222Y2717D02*
X9271D01*
X3307Y3632D02*
X4222Y2717D01*
X3307Y3632D02*
Y3898D01*
X4141Y2520D02*
X9352D01*
X3110Y3550D02*
X4141Y2520D01*
X3110Y3550D02*
Y3661D01*
X4059Y2323D02*
X9434D01*
X2756Y3626D02*
X4059Y2323D01*
X2756Y3626D02*
Y3902D01*
X2677Y3980D02*
X2756Y3902D01*
X2677Y3980D02*
Y4252D01*
X3031Y3740D02*
X3110Y3661D01*
X3622Y4055D02*
X3701Y4134D01*
X3110Y4094D02*
X3307Y3898D01*
X2953Y4094D02*
X3110D01*
X5443Y4395D02*
X5630Y4582D01*
X5172Y4395D02*
X5443D01*
X4961Y4606D02*
X5172Y4395D01*
X5118Y4961D02*
X5236Y5079D01*
X5748Y4252D02*
X5827Y4331D01*
X16705Y5901D02*
Y8140D01*
X16198Y5394D02*
X16705Y5901D01*
X16634Y8211D02*
X16705Y8140D01*
X16398Y8129D02*
X16508Y8019D01*
Y5982D02*
Y8019D01*
X16116Y5591D02*
X16508Y5982D01*
X16634Y8211D02*
Y10834D01*
X15460Y12008D02*
X16634Y10834D01*
X15460Y9488D02*
X16398Y8551D01*
Y8129D02*
Y8551D01*
X1701Y12341D02*
Y12402D01*
X1378Y12018D02*
X1701Y12341D01*
X1854Y12165D02*
X2283D01*
X1614Y11925D02*
X1854Y12165D01*
X1969Y11890D02*
X2244Y11614D01*
X2356Y12002D02*
Y12092D01*
X2618Y12130D02*
Y12358D01*
Y12130D02*
X2632Y12116D01*
Y11888D02*
Y12116D01*
X2894Y12244D02*
X2953Y12185D01*
X2618Y12358D02*
X2937Y12677D01*
X2283Y12165D02*
X2356Y12092D01*
X2953Y11772D02*
Y12185D01*
X2618Y11874D02*
X2632Y11888D01*
X2937Y12677D02*
X3465D01*
X1614Y11382D02*
Y11925D01*
X1378Y11220D02*
Y12018D01*
X8661Y8110D02*
X8744D01*
X9020Y7835D01*
X8268Y7992D02*
X8390D01*
X9055Y8189D02*
X9213Y8031D01*
X9449Y8307D02*
X9528Y8386D01*
X9720Y8189D02*
X14213D01*
X9563Y8031D02*
X9720Y8189D01*
X9802Y7992D02*
X13504D01*
X9644Y7835D02*
X9802Y7992D01*
X9884Y7795D02*
X12874D01*
X9726Y7638D02*
X9884Y7795D01*
X9020Y7835D02*
X9644D01*
X8744Y7638D02*
X9726D01*
X5433Y9213D02*
Y11199D01*
X5433Y9213D02*
X5433Y9213D01*
X5254Y11378D02*
X5433Y11199D01*
X5090Y9547D02*
X5130Y9588D01*
X4173Y9961D02*
X5157D01*
X5116Y9213D02*
X5157D01*
X807Y6594D02*
Y8876D01*
Y6594D02*
X866Y6535D01*
X591Y5748D02*
Y8938D01*
X394Y5533D02*
Y9019D01*
X197Y5452D02*
Y9101D01*
Y5452D02*
X787Y4862D01*
X197Y9101D02*
X643Y9547D01*
X394Y5533D02*
X868Y5059D01*
X394Y9019D02*
X725Y9350D01*
X591Y5748D02*
X709Y5630D01*
X591Y8938D02*
X806Y9154D01*
X787Y4862D02*
X1658D01*
X868Y5059D02*
X1739D01*
X2146Y4980D02*
X2756D01*
X2126Y4961D02*
X2146Y4980D01*
X2047Y5039D02*
X2126Y4961D01*
X2047Y5039D02*
Y5354D01*
X2087Y3457D02*
Y4712D01*
X1739Y5059D02*
X2087Y4712D01*
X1654Y4024D02*
X1870Y4240D01*
Y4650D01*
X1658Y4862D02*
X1870Y4650D01*
X1654Y3024D02*
X2087Y3457D01*
X9449Y13071D02*
X9758D01*
X10073Y13386D01*
X15358D01*
X9449Y12717D02*
X9682D01*
X10155Y13189D01*
X10354Y12795D02*
X11535D01*
X9961Y12402D02*
X10354Y12795D01*
X9961Y12126D02*
Y12402D01*
X9449Y12205D02*
X10236Y12992D01*
X9449Y11772D02*
X9961Y12283D01*
X8895Y11772D02*
X9449D01*
X8110Y10987D02*
X8895Y11772D01*
X8976Y11575D02*
X9961D01*
X12524Y11063D02*
X13130Y11669D01*
X9528Y11063D02*
X12524D01*
X9449Y11142D02*
X9528Y11063D01*
X9685Y4112D02*
X10179Y4606D01*
X9685Y3425D02*
Y4112D01*
X10179Y4606D02*
X10650D01*
X10965Y4291D01*
X9173Y2913D02*
X9685Y3425D01*
X10965Y4291D02*
X11358D01*
X9828Y2717D02*
X10650D01*
X9434Y2323D02*
X9828Y2717D01*
X9882Y3679D02*
X10179Y3976D01*
X9882Y3328D02*
Y3679D01*
X9271Y2717D02*
X9882Y3328D01*
X10179Y3976D02*
X10650D01*
X10965Y3661D01*
X11358D01*
X11949D02*
X12192D01*
X9352Y2520D02*
X10179Y3346D01*
X10650D01*
X10965Y3031D01*
X11358D02*
X11358Y3031D01*
X10965Y3031D02*
X11358D01*
X10650Y2717D02*
X10965Y2402D01*
X11358D01*
X3504Y9177D02*
X3862Y8819D01*
X3504Y9177D02*
Y9528D01*
X3862Y8819D02*
X4136D01*
X3390Y9803D02*
X4016D01*
X4173Y9961D01*
X3095Y9508D02*
X3390Y9803D01*
X3999Y9154D02*
X4626D01*
X3976Y9131D02*
X3999Y9154D01*
X3976Y9094D02*
Y9131D01*
X4136Y8819D02*
X4274Y8957D01*
X4626D01*
X2736Y9508D02*
X3095D01*
X2835Y9926D02*
X2930Y9830D01*
X2835Y9926D02*
Y10354D01*
X10315Y7598D02*
X11535D01*
X9961Y7244D02*
X10315Y7598D01*
X9528Y8386D02*
X15376D01*
X8390Y7992D02*
X8744Y7638D01*
X9213Y8031D02*
X9563D01*
X2638Y9606D02*
X2736Y9508D01*
X2638Y9606D02*
Y10354D01*
X2323Y9803D02*
X2441Y9921D01*
Y10354D01*
X4055Y9488D02*
Y9528D01*
X3425Y7323D02*
X3504Y7402D01*
X3425Y6969D02*
Y7323D01*
X5094Y8760D02*
X5433Y9098D01*
Y9213D01*
X4980Y8366D02*
X5394Y7953D01*
X4626Y8366D02*
X4980D01*
X6811Y5138D02*
X7047D01*
X6339D02*
X6811D01*
X6260Y5217D02*
X6339Y5138D01*
X4370Y4409D02*
Y4720D01*
X4724Y5075D01*
Y5177D01*
X4882Y5335D01*
Y5925D02*
Y5963D01*
X4449Y5337D02*
Y5394D01*
X3937Y5906D02*
Y5963D01*
X5329Y4739D02*
X5433Y4843D01*
X3701Y4980D02*
X4093D01*
X5329Y4710D02*
Y4739D01*
X3031Y4606D02*
X3701D01*
X4093Y4980D02*
X4449Y5337D01*
X2677Y4252D02*
X3031Y4606D01*
X14213Y8189D02*
X15433Y6969D01*
X7120Y9370D02*
X7159Y9331D01*
X8110Y9142D02*
Y10987D01*
X7748Y8780D02*
X8110Y9142D01*
X8307Y9061D02*
Y10906D01*
X7829Y8583D02*
X8307Y9061D01*
X7120Y11339D02*
X7559D01*
X7441Y11299D02*
X8144D01*
X7244Y8189D02*
X7992D01*
X7019Y8386D02*
X7911D01*
X6940Y8307D02*
X7019Y8386D01*
X7163Y8583D02*
X7829D01*
X7084Y8661D02*
X7163Y8583D01*
X6940Y8661D02*
X7084D01*
X7008Y9016D02*
X7244Y8780D01*
X7748D01*
X9783Y9154D02*
X9961Y8976D01*
X9783Y9350D02*
X9961Y9528D01*
X9075Y5315D02*
X9111D01*
X7008Y7953D02*
X7244Y8189D01*
X6940Y8661D02*
X7019Y8583D01*
X13076Y9395D02*
Y10113D01*
X12913Y10276D02*
X13076Y10113D01*
X10157Y10276D02*
X12913D01*
X14252Y13189D02*
X14921Y12520D01*
X13543Y12992D02*
X13738Y12797D01*
X11535Y12795D02*
X12165Y12165D01*
X12697D01*
X13130Y11512D02*
Y11929D01*
X13738Y12797D02*
X13917D01*
X13778Y10238D02*
X13957D01*
X13817Y7679D02*
X13996D01*
X13130Y6772D02*
X13253Y6895D01*
X11535Y7598D02*
X12087Y7047D01*
X9961Y6811D02*
Y7244D01*
X9961Y7244D02*
X9961Y7244D01*
X12087Y7047D02*
X12697D01*
X10079Y6378D02*
X10295D01*
X9961Y6260D02*
X10079Y6378D01*
X10354Y10079D02*
X11378D01*
X9961Y9685D02*
X10354Y10079D01*
X9961Y9528D02*
Y9685D01*
X11378Y10079D02*
X11929Y9528D01*
X12697D01*
X10039Y8898D02*
X10295D01*
X9961Y8976D02*
X10039Y8898D01*
X7120Y10354D02*
X7159Y10315D01*
X7520Y11693D02*
X7677Y11850D01*
X8406Y5394D02*
X8484Y5315D01*
X7835Y5394D02*
X8406D01*
X7835Y5906D02*
X7854Y5925D01*
X6811Y5906D02*
Y6378D01*
X6329Y5876D02*
X6781D01*
X6811Y5906D01*
X7264Y4685D02*
Y4921D01*
X7047Y5138D02*
X7264Y4921D01*
X7559Y10748D02*
X7677Y10866D01*
X7120Y10748D02*
X7559D01*
X7559Y9764D02*
X7677Y9882D01*
X7120Y9764D02*
X7559D01*
X7480Y11732D02*
X7520Y11693D01*
X7441D02*
X7480Y11732D01*
X13701Y805D02*
Y1398D01*
X13366Y470D02*
X13701Y805D01*
X13031Y561D02*
X13122Y470D01*
X13366D01*
X7598Y6732D02*
X7854Y6476D01*
Y5925D02*
Y6476D01*
X15376Y8386D02*
X15652Y8110D01*
X15358Y13386D02*
X15516Y13228D01*
X13543Y10472D02*
X13778Y10238D01*
X12874Y7795D02*
X13253Y7416D01*
Y6895D02*
Y7416D01*
X13504Y7992D02*
X13817Y7679D01*
X1240Y7579D02*
X1693D01*
X1870Y7756D01*
X1240Y7972D02*
X1614D01*
X1870Y8228D01*
X1240Y8563D02*
X1732D01*
X4626Y9547D02*
X5090D01*
X4626Y9350D02*
X4978D01*
X5116Y9213D01*
X4055Y9528D02*
X4272Y9744D01*
X4626D01*
X888Y8957D02*
X1240D01*
X806Y9154D02*
X1240D01*
X725Y9350D02*
X1240D01*
X643Y9547D02*
X1240D01*
X3228Y10354D02*
Y10888D01*
X2953Y11163D02*
X3228Y10888D01*
X2953Y11163D02*
Y11220D01*
X3819Y10354D02*
Y11142D01*
X3898Y11220D01*
X3425D02*
X3898D01*
X3425Y11220D02*
X3425Y11220D01*
X4626Y8760D02*
X5094D01*
X5157Y11378D02*
X5254D01*
X4016Y10354D02*
Y10669D01*
X3031Y10354D02*
Y10707D01*
X2813Y10925D02*
X3031Y10707D01*
X2719Y10925D02*
X2813D01*
X2618Y11026D02*
X2719Y10925D01*
X2047Y10354D02*
Y11339D01*
X1732Y8563D02*
X1831Y8661D01*
X1929D01*
X1240Y8760D02*
X1593D01*
X1673Y8841D01*
Y9902D01*
X1496Y10079D02*
X1673Y9902D01*
X1850Y10354D02*
Y11146D01*
X1890Y11496D02*
X2047Y11339D01*
X1614Y11382D02*
X1850Y11146D01*
X1240Y11083D02*
X1378Y11220D01*
X1240Y9744D02*
Y11083D01*
X1496Y10079D02*
Y10827D01*
X1535Y10866D01*
X2244Y10354D02*
Y11614D01*
X2618Y11026D02*
Y11874D01*
X4016Y10669D02*
X4213Y10866D01*
X3465Y13307D02*
X3503D01*
X4213Y12597D01*
Y10866D02*
Y12597D01*
X3898Y11772D02*
Y12634D01*
X3579Y12953D02*
X3898Y12634D01*
X3350Y12953D02*
X3579D01*
X3348Y12951D02*
X3350Y12953D01*
X3348Y12951D02*
X3348D01*
X3346Y12953D02*
X3348Y12951D01*
X3130Y12953D02*
X3346D01*
X2894Y13189D02*
X3130Y12953D01*
X2638Y6317D02*
X2992Y5963D01*
Y5906D02*
Y5963D01*
X2520Y5906D02*
Y6157D01*
X2244Y6432D02*
X2520Y6157D01*
X2244Y6432D02*
Y6969D01*
X2047Y5906D02*
Y6616D01*
X2047Y6616D02*
Y6969D01*
X2047Y6616D02*
X2047Y6616D01*
X1575Y5906D02*
X2047D01*
X2047Y5906D01*
X4171Y6201D02*
X4409Y5963D01*
Y5925D02*
Y5963D01*
X3622Y6569D02*
Y6969D01*
Y6569D02*
X3990Y6201D01*
X4171D01*
X3819Y6651D02*
Y6969D01*
Y6651D02*
X3934Y6535D01*
X4115D01*
X4450Y6201D01*
X4644D01*
X4882Y5963D01*
X4626Y7776D02*
X4978D01*
X4626Y8563D02*
X5276D01*
Y8425D02*
Y8563D01*
X2835Y6535D02*
X3031Y6339D01*
X3364Y6535D02*
X3937Y5963D01*
X7531Y5394D02*
X7835D01*
Y5650D02*
X8327D01*
X8445Y5768D01*
Y6378D01*
X7466Y5458D02*
X7531Y5394D01*
X12192Y3661D02*
X15460Y6929D01*
X2638Y6317D02*
Y6969D01*
X2835Y6535D02*
Y6969D01*
X1575Y5354D02*
X1575Y5354D01*
X807Y8876D02*
X888Y8957D01*
X3465Y5354D02*
X3937D01*
X3465Y5354D02*
X3465Y5354D01*
X2992Y5354D02*
X3465D01*
X2520D02*
X2992D01*
X2047D02*
X2520D01*
X1102Y5354D02*
X1575D01*
X10000Y11614D02*
X10295D01*
X9961Y11575D02*
X10000Y11614D01*
X9961Y12126D02*
X9961Y12126D01*
X8307Y10906D02*
X8976Y11575D01*
X10236Y12992D02*
X13543D01*
X10155Y13189D02*
X14252D01*
X8144Y11299D02*
X9449Y12604D01*
Y12717D01*
X7159Y10315D02*
X7559D01*
X7677D01*
X7159Y9331D02*
X7559D01*
X7677D01*
X9843Y10669D02*
X14291D01*
X9606Y10433D02*
X9843Y10669D01*
X10000Y10472D02*
X13543D01*
X9606Y10079D02*
X10000Y10472D01*
X9449Y10787D02*
X9528Y10866D01*
X9449Y10433D02*
X9606D01*
X9449Y10079D02*
X9606D01*
X9606Y9724D02*
X10157Y10276D01*
X9449Y9724D02*
X9606D01*
Y9724D01*
X7911Y8386D02*
X8875Y9350D01*
X9783D01*
X8957Y9154D02*
X9783D01*
X7992Y8189D02*
X8957Y9154D01*
X9111Y5315D02*
X9269Y5472D01*
X9270D01*
X9350Y5553D01*
Y5554D01*
X9449Y5652D01*
X9075Y5787D02*
X9252Y5965D01*
Y6102D02*
X9961Y6811D01*
X9252Y5965D02*
Y6102D01*
X9449Y5652D02*
Y6021D01*
X9688Y6260D01*
X9961D01*
X14291Y10669D02*
X15236Y9724D01*
X9528Y10866D02*
X15376D01*
X15612Y10630D01*
X11949Y3031D02*
Y3140D01*
X12224Y2677D02*
Y3137D01*
X11949Y2402D02*
X12224Y2677D01*
Y3137D02*
X14481Y5394D01*
X16198D01*
X11949Y3140D02*
X14400Y5591D01*
X16116D01*
X4922Y6201D02*
X5116D01*
X4154Y6969D02*
X4922Y6201D01*
X4016Y6969D02*
X4154D01*
X5004Y6398D02*
X5198D01*
X4097Y7402D02*
X4213Y7286D01*
X3504Y7402D02*
X4097D01*
X4213Y7189D02*
Y7286D01*
Y7189D02*
X5004Y6398D01*
X4626Y7054D02*
Y7579D01*
Y7054D02*
X5085Y6594D01*
X5279D01*
X5630Y6244D01*
X5167Y6791D02*
X5361D01*
X5827Y6325D01*
X5059Y7463D02*
Y7695D01*
X4978Y7776D02*
X5059Y7695D01*
X5394Y7465D02*
X5567D01*
X6299Y6732D01*
X7598D01*
X7078Y11693D02*
X7441D01*
D29*
X3150Y1339D02*
X3465Y1024D01*
X3150Y1339D02*
Y2165D01*
X11949Y4291D02*
X12835Y5177D01*
Y5236D01*
X12362Y5709D02*
X12835Y5236D01*
X9961Y5709D02*
X12362D01*
X7713Y1024D02*
X8201Y535D01*
X3465Y1024D02*
X7713D01*
X13642Y2047D02*
X13701Y1988D01*
X13642Y2047D02*
Y2441D01*
X14075Y2874D01*
D30*
X17520Y2362D02*
D03*
Y4921D02*
D03*
Y7677D02*
D03*
X17520Y10433D02*
D03*
X17520Y13189D02*
D03*
D31*
X6201Y535D02*
D03*
X6701Y1535D02*
D03*
X7201Y535D02*
D03*
X7701Y1535D02*
D03*
X8201Y535D02*
D03*
X8701Y1535D02*
D03*
X654Y4445D02*
D03*
X1654Y3945D02*
D03*
X654Y3445D02*
D03*
X1654Y2945D02*
D03*
X654Y2445D02*
D03*
X1654Y1945D02*
D03*
X654Y1445D02*
D03*
X1654Y945D02*
D03*
D32*
X19094Y13189D02*
D03*
Y11220D02*
D03*
Y10433D02*
D03*
Y8465D02*
D03*
Y394D02*
D03*
Y2362D02*
D03*
Y2953D02*
D03*
Y4921D02*
D03*
Y5709D02*
D03*
Y7677D02*
D03*
X3150Y1850D02*
D03*
Y2165D02*
D03*
X3920Y3762D02*
D03*
X4921Y3228D02*
D03*
X18307Y7677D02*
D03*
X17913Y4921D02*
D03*
X18307D02*
D03*
X17913Y2362D02*
D03*
X18307D02*
D03*
X18701D02*
D03*
X17913Y8465D02*
D03*
X18307D02*
D03*
X17520Y11220D02*
D03*
X18701Y13189D02*
D03*
X17126Y11220D02*
D03*
X709Y10394D02*
D03*
X5157Y394D02*
D03*
X3819Y1457D02*
D03*
X5315Y12205D02*
D03*
Y12992D02*
D03*
X6102D02*
D03*
X6496Y12598D02*
D03*
X5709D02*
D03*
X8898Y7087D02*
D03*
X6063Y7835D02*
D03*
X6457Y8268D02*
D03*
X5748Y9449D02*
D03*
X6102Y11417D02*
D03*
X5748Y11024D02*
D03*
X6496Y10236D02*
D03*
X6102Y9843D02*
D03*
X5748Y10236D02*
D03*
X6496Y11024D02*
D03*
X6102Y10630D02*
D03*
X6496Y9449D02*
D03*
X5866Y8976D02*
D03*
X6378D02*
D03*
X5906Y8465D02*
D03*
X6220Y7244D02*
D03*
X6654Y7244D02*
D03*
X5709Y11811D02*
D03*
X6496D02*
D03*
X6102Y12205D02*
D03*
X8740Y3504D02*
D03*
X8780Y4488D02*
D03*
X1417Y6969D02*
D03*
X1575Y4528D02*
D03*
X10551Y12126D02*
D03*
Y12480D02*
D03*
X10374Y4291D02*
D03*
Y3661D02*
D03*
X16132Y6831D02*
D03*
X16142Y11929D02*
D03*
Y12441D02*
D03*
X15669D02*
D03*
Y11929D02*
D03*
Y11417D02*
D03*
X16142D02*
D03*
X15669Y9882D02*
D03*
Y9409D02*
D03*
X16142Y9882D02*
D03*
Y9409D02*
D03*
Y8858D02*
D03*
X15669D02*
D03*
X16142Y6299D02*
D03*
X15669D02*
D03*
Y6811D02*
D03*
X16142Y7283D02*
D03*
X15669D02*
D03*
X14075Y2874D02*
D03*
X9803Y5709D02*
D03*
X10551Y6220D02*
D03*
X10551Y6575D02*
D03*
X10906Y8701D02*
D03*
X10551D02*
D03*
X10906Y7283D02*
D03*
X10551D02*
D03*
X12835Y5236D02*
D03*
X8898Y6732D02*
D03*
X5335Y7953D02*
D03*
X3031Y8071D02*
D03*
X2480Y12756D02*
D03*
X2756Y4980D02*
D03*
X2598Y2953D02*
D03*
X5000Y1575D02*
D03*
X6102Y3228D02*
D03*
X2087Y9252D02*
D03*
X10906Y11417D02*
D03*
X10906Y12480D02*
D03*
Y12126D02*
D03*
Y11772D02*
D03*
X10551D02*
D03*
Y11417D02*
D03*
X10906Y9764D02*
D03*
X10551Y9409D02*
D03*
X10906Y9409D02*
D03*
X10551Y9055D02*
D03*
X10906D02*
D03*
X10551Y9764D02*
D03*
X10551Y6929D02*
D03*
X10906Y6929D02*
D03*
Y6220D02*
D03*
Y6575D02*
D03*
X1811Y12776D02*
D03*
X18701Y7677D02*
D03*
X17913D02*
D03*
X18701Y8465D02*
D03*
X17913Y13189D02*
D03*
X16535Y2362D02*
D03*
Y1575D02*
D03*
Y787D02*
D03*
X16142Y394D02*
D03*
Y1181D02*
D03*
Y1969D02*
D03*
X15748Y1575D02*
D03*
Y787D02*
D03*
X14961Y1575D02*
D03*
Y787D02*
D03*
X14173Y1575D02*
D03*
Y787D02*
D03*
X16535Y4921D02*
D03*
Y3346D02*
D03*
Y4134D02*
D03*
X15748D02*
D03*
X16142Y3740D02*
D03*
Y2953D02*
D03*
Y4528D02*
D03*
X15748Y3346D02*
D03*
Y4921D02*
D03*
X12402Y1969D02*
D03*
Y1575D02*
D03*
Y1181D02*
D03*
Y787D02*
D03*
Y394D02*
D03*
X12008Y591D02*
D03*
Y984D02*
D03*
Y1378D02*
D03*
Y1772D02*
D03*
X11614Y1969D02*
D03*
Y1575D02*
D03*
Y1181D02*
D03*
Y787D02*
D03*
Y394D02*
D03*
X11220Y591D02*
D03*
Y984D02*
D03*
Y1378D02*
D03*
Y1772D02*
D03*
X10827Y1969D02*
D03*
Y1575D02*
D03*
Y1181D02*
D03*
Y787D02*
D03*
Y394D02*
D03*
X10433Y591D02*
D03*
Y984D02*
D03*
Y1378D02*
D03*
Y1772D02*
D03*
X10039Y1969D02*
D03*
Y1181D02*
D03*
Y787D02*
D03*
Y394D02*
D03*
Y1575D02*
D03*
X5354Y7087D02*
D03*
X6260Y6299D02*
D03*
X6102Y11024D02*
D03*
X6496Y10630D02*
D03*
X5748D02*
D03*
X6102Y10236D02*
D03*
X5748Y9843D02*
D03*
X6496D02*
D03*
X6102Y9449D02*
D03*
X5709Y11417D02*
D03*
X6496D02*
D03*
X6102Y11811D02*
D03*
X8701Y12717D02*
D03*
X8110Y12362D02*
D03*
X6990Y13524D02*
D03*
X10374Y3031D02*
D03*
Y2402D02*
D03*
X17520Y8465D02*
D03*
X17126D02*
D03*
X17520Y7677D02*
D03*
X17126D02*
D03*
Y5709D02*
D03*
X17520D02*
D03*
X17913D02*
D03*
X18307D02*
D03*
X18701D02*
D03*
X17126Y10433D02*
D03*
X17520D02*
D03*
X17913D02*
D03*
X18307D02*
D03*
X18701D02*
D03*
Y4921D02*
D03*
Y2953D02*
D03*
X18307D02*
D03*
X17913D02*
D03*
X17126D02*
D03*
X17520D02*
D03*
Y394D02*
D03*
X17126D02*
D03*
X17913D02*
D03*
X18307D02*
D03*
X18701D02*
D03*
Y11220D02*
D03*
X18307D02*
D03*
X17913D02*
D03*
X18307Y13189D02*
D03*
X17520D02*
D03*
X17126D02*
D03*
X15748Y2362D02*
D03*
X14961D02*
D03*
X15354Y1969D02*
D03*
X14173Y2362D02*
D03*
X14567Y1969D02*
D03*
Y1181D02*
D03*
X15354D02*
D03*
Y394D02*
D03*
X14567D02*
D03*
D33*
X7441Y5484D02*
D03*
X6890Y5522D02*
D03*
X6811Y4685D02*
D03*
X6142Y5827D02*
D03*
X3031Y3740D02*
D03*
X5329Y4671D02*
D03*
X5748Y4252D02*
D03*
X4724Y4996D02*
D03*
X4961Y4606D02*
D03*
X1701Y12402D02*
D03*
X1969Y11890D02*
D03*
X2356Y12002D02*
D03*
X2894Y12244D02*
D03*
X8661Y8110D02*
D03*
X8268Y7992D02*
D03*
X9055Y8189D02*
D03*
X9449Y8307D02*
D03*
X5130Y9588D02*
D03*
X5157Y9961D02*
D03*
X5157Y9213D02*
D03*
X866Y6535D02*
D03*
X709Y5630D02*
D03*
X9449Y12205D02*
D03*
X4055Y9488D02*
D03*
X3976Y9094D02*
D03*
X3504Y9528D02*
D03*
X3504Y10118D02*
D03*
X2930Y9830D02*
D03*
X2323Y9803D02*
D03*
X4882Y5925D02*
D03*
X4449Y5394D02*
D03*
X3937Y5906D02*
D03*
X5118Y4961D02*
D03*
X3701Y4980D02*
D03*
X3701Y4606D02*
D03*
X3701Y4134D02*
D03*
X2953Y4094D02*
D03*
X7120Y9370D02*
D03*
X9449Y13071D02*
D03*
X9449Y11142D02*
D03*
X7008Y9016D02*
D03*
X6940Y8661D02*
D03*
X6940Y8307D02*
D03*
X7008Y7953D02*
D03*
X7120Y11339D02*
D03*
Y10354D02*
D03*
Y10748D02*
D03*
Y9764D02*
D03*
X13366Y470D02*
D03*
X7362Y6378D02*
D03*
X15516Y13228D02*
D03*
X15652Y8110D02*
D03*
X15612Y10630D02*
D03*
X1870Y7756D02*
D03*
Y8228D02*
D03*
X5157Y10433D02*
D03*
Y11378D02*
D03*
X5157Y10976D02*
D03*
X1929Y8661D02*
D03*
X1378Y11220D02*
D03*
X1890Y11496D02*
D03*
X1535Y10866D02*
D03*
X3465Y13307D02*
D03*
X3465Y12677D02*
D03*
X2894Y13189D02*
D03*
X2520Y5906D02*
D03*
X2992D02*
D03*
X3465D02*
D03*
X1575Y5354D02*
D03*
X9449Y12717D02*
D03*
X9449Y10787D02*
D03*
X9449Y10433D02*
D03*
X9449Y10079D02*
D03*
X9449Y9724D02*
D03*
X5394Y7465D02*
D03*
X7078Y11693D02*
D03*
D34*
X17520Y4921D02*
D03*
X17126D02*
D03*
X17520Y2362D02*
D03*
X17126D02*
D03*
X3346Y394D02*
D03*
X3937D02*
D03*
X5906Y1969D02*
D03*
D35*
X7835Y5906D02*
D03*
D36*
Y5650D02*
D03*
Y5394D02*
D03*
Y5138D02*
D03*
X6811Y5906D02*
D03*
Y5650D02*
D03*
Y5394D02*
D03*
Y5138D02*
D03*
D37*
X10728Y6772D02*
D03*
X13130D02*
D03*
X10728Y9213D02*
D03*
X13130D02*
D03*
X10728Y11929D02*
D03*
X13130D02*
D03*
D38*
X4016Y6969D02*
D03*
D39*
X3819D02*
D03*
X3622D02*
D03*
X3425D02*
D03*
X3228D02*
D03*
X3031D02*
D03*
X2835D02*
D03*
X2638D02*
D03*
X2441D02*
D03*
X2244Y6969D02*
D03*
X2047Y6969D02*
D03*
X1850D02*
D03*
Y10354D02*
D03*
X2047D02*
D03*
X2244D02*
D03*
X2441D02*
D03*
X2638D02*
D03*
X2835D02*
D03*
X3031D02*
D03*
X3228D02*
D03*
X3425D02*
D03*
X3622D02*
D03*
X3819D02*
D03*
X4016D02*
D03*
D40*
X1240Y7579D02*
D03*
Y7776D02*
D03*
X1240Y7972D02*
D03*
Y8169D02*
D03*
Y8366D02*
D03*
Y8563D02*
D03*
Y8760D02*
D03*
X1240Y8957D02*
D03*
Y9154D02*
D03*
Y9350D02*
D03*
Y9547D02*
D03*
Y9744D02*
D03*
X4626D02*
D03*
Y9547D02*
D03*
Y9350D02*
D03*
Y9154D02*
D03*
Y8957D02*
D03*
Y8760D02*
D03*
Y8563D02*
D03*
Y8366D02*
D03*
Y8169D02*
D03*
Y7972D02*
D03*
Y7776D02*
D03*
Y7579D02*
D03*
D41*
X13031Y1880D02*
D03*
Y561D02*
D03*
D42*
X10295Y8898D02*
D03*
X10492D02*
D03*
X10295Y11614D02*
D03*
X10492D02*
D03*
X12697Y12165D02*
D03*
X12894D02*
D03*
X12697Y9528D02*
D03*
X12894D02*
D03*
X12697Y7047D02*
D03*
X12894D02*
D03*
X10295Y6378D02*
D03*
X10492D02*
D03*
M02*
