G04 Layer_Physical_Order=2*
G04 Layer_Color=16711680*
%FSLAX24Y24*%
%MOIN*%
G70*
G01*
G75*
%ADD15R,0.0315X0.0354*%
%ADD22R,0.0276X0.0354*%
%ADD24R,0.0354X0.0315*%
%ADD25R,0.0354X0.0276*%
%ADD26R,0.1820X0.1780*%
%ADD27R,0.0650X0.0240*%
%ADD28C,0.0197*%
%ADD29C,0.0118*%
%ADD30R,0.1654X0.2638*%
%ADD31R,0.1654X0.1850*%
%ADD32C,0.0512*%
%ADD33C,0.0315*%
%ADD34C,0.0276*%
G04:AMPARAMS|DCode=35|XSize=39.4mil|YSize=26mil|CornerRadius=6.5mil|HoleSize=0mil|Usage=FLASHONLY|Rotation=90.000|XOffset=0mil|YOffset=0mil|HoleType=Round|Shape=RoundedRectangle|*
%AMROUNDEDRECTD35*
21,1,0.0394,0.0130,0,0,90.0*
21,1,0.0264,0.0260,0,0,90.0*
1,1,0.0130,0.0065,0.0132*
1,1,0.0130,0.0065,-0.0132*
1,1,0.0130,-0.0065,-0.0132*
1,1,0.0130,-0.0065,0.0132*
%
%ADD35ROUNDEDRECTD35*%
%ADD36R,0.0260X0.0394*%
%ADD37R,0.0335X0.0138*%
%ADD38O,0.0335X0.0138*%
%ADD39O,0.0433X0.0177*%
%ADD40R,0.0433X0.0177*%
%ADD41R,0.0591X0.1378*%
%ADD42O,0.0118X0.0591*%
%ADD43R,0.0118X0.0591*%
%ADD44R,0.0591X0.0118*%
%ADD45R,0.0335X0.0335*%
%ADD46R,0.0118X0.0118*%
%ADD47C,0.0157*%
G36*
X5238Y7309D02*
X5309Y7261D01*
X5394Y7244D01*
X5478Y7261D01*
X5534Y7298D01*
X6200Y6633D01*
X6245Y6602D01*
X6299Y6592D01*
X6575D01*
Y6122D01*
X6575D01*
X6566Y6092D01*
X6476Y6024D01*
X6476Y6024D01*
X6476Y6024D01*
X6355D01*
X6344Y6031D01*
X6260Y6048D01*
X6217Y6039D01*
X6181Y6046D01*
X6127Y6035D01*
X6110Y6024D01*
X5967D01*
Y6325D01*
X5957Y6379D01*
X5926Y6425D01*
X5460Y6891D01*
X5415Y6921D01*
X5361Y6932D01*
X5225D01*
X5119Y7038D01*
Y7274D01*
X5235Y7309D01*
X5238Y7309D01*
D02*
G37*
G36*
X13553Y7744D02*
Y7480D01*
X14360D01*
X14449Y7409D01*
Y6117D01*
X14356Y6024D01*
X12835D01*
Y6908D01*
X12894D01*
X12924Y6914D01*
X12950Y6931D01*
X12968Y6957D01*
X12974Y6988D01*
Y7106D01*
X12968Y7137D01*
X12950Y7163D01*
X12924Y7180D01*
X12894Y7187D01*
X12835D01*
Y7852D01*
X13446D01*
X13553Y7744D01*
D02*
G37*
G36*
X10492Y6319D02*
X10295D01*
Y6437D01*
X10492D01*
Y6319D01*
D02*
G37*
G36*
X2068Y9947D02*
X2114Y9862D01*
X2102Y9803D01*
X2119Y9719D01*
X2167Y9647D01*
X2238Y9599D01*
X2323Y9582D01*
X2384Y9595D01*
X2411Y9597D01*
X2418Y9594D01*
X2521Y9533D01*
X2538Y9507D01*
X2637Y9409D01*
X2682Y9378D01*
X2736Y9367D01*
X3095D01*
X3148Y9378D01*
X3194Y9409D01*
X3195Y9410D01*
X3338Y9386D01*
X3348Y9371D01*
X3363Y9361D01*
Y9177D01*
X3374Y9123D01*
X3405Y9078D01*
X3763Y8720D01*
X3808Y8689D01*
X3862Y8678D01*
X4136D01*
X4198Y8648D01*
X4238Y8612D01*
X4252Y8590D01*
Y8425D01*
Y8425D01*
X4612D01*
X4626Y8422D01*
Y8307D01*
X4252D01*
Y8031D01*
Y7606D01*
X4183Y7555D01*
X4134Y7535D01*
X4097Y7542D01*
X3504D01*
X3450Y7531D01*
X3405Y7501D01*
X3326Y7422D01*
X3295Y7377D01*
X3289Y7343D01*
X2303D01*
Y7343D01*
X2185D01*
Y7343D01*
X1909D01*
Y6982D01*
X1907Y6969D01*
X1850D01*
Y6909D01*
X1713D01*
Y6594D01*
X1907D01*
Y6142D01*
X1791D01*
Y6142D01*
X1319D01*
Y6142D01*
X1161D01*
Y5906D01*
X1043D01*
Y6142D01*
X846D01*
X846Y6142D01*
Y6142D01*
X784Y6232D01*
X858Y6306D01*
X872Y6316D01*
X951Y6331D01*
X1022Y6379D01*
X1070Y6451D01*
X1087Y6535D01*
X1070Y6620D01*
X1022Y6692D01*
X951Y6739D01*
X948Y6740D01*
Y7441D01*
X1227D01*
X1240Y7438D01*
X1659D01*
X1708Y7351D01*
X1713Y7323D01*
Y7028D01*
X1791D01*
Y7343D01*
X1784D01*
X1768Y7387D01*
X1764Y7461D01*
X1792Y7479D01*
X1852Y7539D01*
X1870Y7535D01*
X1955Y7552D01*
X2026Y7600D01*
X2074Y7671D01*
X2091Y7756D01*
X2074Y7840D01*
X2026Y7912D01*
X2008Y7924D01*
Y8060D01*
X2026Y8072D01*
X2074Y8144D01*
X2091Y8228D01*
X2074Y8313D01*
X2049Y8350D01*
X2033Y8400D01*
X2072Y8496D01*
X2085Y8505D01*
X2133Y8577D01*
X2150Y8661D01*
X2133Y8746D01*
X2085Y8818D01*
X2014Y8865D01*
X1929Y8882D01*
X1814Y8976D01*
Y9902D01*
X1918Y9980D01*
X2039D01*
X2068Y9947D01*
D02*
G37*
G36*
X12894Y6988D02*
X12697D01*
Y7106D01*
X12894D01*
Y6988D01*
D02*
G37*
G36*
X19134Y5376D02*
X16752D01*
Y5378D01*
X16634Y5362D01*
X16581Y5341D01*
X16529Y5359D01*
X16497Y5495D01*
X16804Y5801D01*
X16834Y5847D01*
X16845Y5901D01*
Y8031D01*
X19134D01*
Y5376D01*
D02*
G37*
G36*
X10157Y2461D02*
X10374D01*
Y2402D01*
X10433D01*
Y2146D01*
X10591D01*
X10591Y2146D01*
X10748D01*
Y2146D01*
X10787Y2146D01*
X11575D01*
Y2146D01*
X11732D01*
Y2146D01*
X12165D01*
Y2262D01*
X12205Y2288D01*
X12402Y2183D01*
Y2165D01*
X12605D01*
X12785Y1969D01*
Y1939D01*
X13031D01*
Y1880D01*
X13091D01*
Y1634D01*
X13256D01*
X13284Y1631D01*
X13445Y1563D01*
Y1181D01*
X13560D01*
Y938D01*
X13394Y790D01*
X13278Y807D01*
X13278Y807D01*
X12785D01*
Y315D01*
X13084D01*
X13126Y251D01*
X13041Y80D01*
X9646D01*
X9646Y2336D01*
X9886Y2576D01*
X10157D01*
Y2461D01*
D02*
G37*
G36*
X19134Y2165D02*
Y257D01*
X16772D01*
Y259D01*
X16654Y247D01*
X16540Y213D01*
X16510Y197D01*
X13937Y197D01*
Y1181D01*
X13957D01*
Y1614D01*
X13937D01*
Y1772D01*
X13957D01*
Y2110D01*
X14012Y2165D01*
X19134Y2165D01*
D02*
G37*
G36*
X16521Y4528D02*
X16524Y4526D01*
X16634Y4480D01*
X16752Y4464D01*
Y4467D01*
X19134D01*
Y2615D01*
X19078Y2559D01*
X15354Y2559D01*
Y4472D01*
X15410Y4528D01*
X16521D01*
D02*
G37*
G36*
X3051Y5118D02*
X3401D01*
X3484Y5000D01*
X3480Y4980D01*
X3497Y4896D01*
X3508Y4880D01*
X3514Y4858D01*
X3464Y4747D01*
X3031D01*
X2978Y4736D01*
X2932Y4706D01*
X2578Y4351D01*
X2547Y4306D01*
X2537Y4252D01*
Y3703D01*
X2547Y3649D01*
X2578Y3604D01*
X3524Y2657D01*
X3523Y2627D01*
X3483Y2532D01*
X3403Y2514D01*
X3389Y2523D01*
X3333Y2534D01*
X3203D01*
X3147Y2523D01*
X3117Y2503D01*
X3110Y2504D01*
X3026Y2487D01*
X2954Y2440D01*
X2906Y2368D01*
X2889Y2283D01*
X2906Y2199D01*
X2954Y2127D01*
X3026Y2079D01*
X3067Y2071D01*
X3067Y2068D01*
X3099Y2020D01*
X3147Y1989D01*
X3203Y1978D01*
X3333D01*
X3389Y1989D01*
X3436Y2020D01*
X3468Y2068D01*
X3470Y2069D01*
X3504Y2063D01*
X3588Y2079D01*
X3660Y2127D01*
X3708Y2199D01*
X3725Y2283D01*
X3723Y2291D01*
X3832Y2349D01*
X3958Y2223D01*
X4003Y2193D01*
X4057Y2182D01*
X9252D01*
Y1204D01*
X9154Y1191D01*
X9063Y1153D01*
X8985Y1094D01*
X8925Y1015D01*
X8888Y924D01*
X8875Y827D01*
X8888Y729D01*
X8925Y638D01*
X8985Y560D01*
X9063Y500D01*
X9154Y462D01*
X9252Y450D01*
Y80D01*
X1325D01*
X1266Y198D01*
X1272Y205D01*
X1309Y296D01*
X1322Y394D01*
X1309Y491D01*
X1272Y582D01*
X1212Y660D01*
X1133Y720D01*
X1043Y758D01*
X945Y771D01*
X847Y758D01*
X756Y720D01*
X678Y660D01*
X618Y582D01*
X580Y491D01*
X568Y394D01*
X580Y296D01*
X618Y205D01*
X623Y198D01*
X565Y80D01*
X80D01*
Y5203D01*
X198Y5252D01*
X687Y4763D01*
X733Y4732D01*
X787Y4722D01*
X1600D01*
X1730Y4592D01*
Y4388D01*
X1654Y4282D01*
X1566Y4271D01*
X1485Y4237D01*
X1415Y4184D01*
X1361Y4114D01*
X1328Y4032D01*
X1316Y3945D01*
X1328Y3858D01*
X1361Y3776D01*
X1415Y3706D01*
X1485Y3653D01*
X1566Y3619D01*
X1654Y3607D01*
X1741Y3619D01*
X1803Y3644D01*
X1899Y3594D01*
X1912Y3584D01*
X1922Y3491D01*
X1707Y3275D01*
X1654Y3282D01*
X1566Y3271D01*
X1485Y3237D01*
X1415Y3184D01*
X1361Y3114D01*
X1328Y3032D01*
X1316Y2945D01*
X1328Y2858D01*
X1361Y2776D01*
X1415Y2706D01*
X1485Y2653D01*
X1566Y2619D01*
X1654Y2607D01*
X1741Y2619D01*
X1822Y2653D01*
X1892Y2706D01*
X1946Y2776D01*
X1980Y2858D01*
X1991Y2945D01*
X1980Y3032D01*
X1946Y3114D01*
X1944Y3116D01*
X2186Y3357D01*
X2216Y3403D01*
X2227Y3457D01*
Y4712D01*
X2216Y4765D01*
X2186Y4811D01*
X1988Y5009D01*
X2033Y5118D01*
X2461D01*
Y5354D01*
X2579D01*
Y5118D01*
X2933D01*
Y5354D01*
X3051D01*
Y5118D01*
D02*
G37*
G36*
X4626Y5118D02*
X4751D01*
X4815Y5019D01*
X4776Y4914D01*
X4724Y4906D01*
X4640Y4889D01*
X4568Y4841D01*
X4520Y4770D01*
X4504Y4685D01*
X4506Y4673D01*
X4499Y4651D01*
X4429Y4574D01*
Y4409D01*
X4370D01*
Y4350D01*
X4133D01*
X4158Y4281D01*
X4133Y4211D01*
X4123Y4163D01*
X4121Y4154D01*
X4124Y4045D01*
X4124Y4045D01*
Y3750D01*
X4616D01*
Y4013D01*
X4626D01*
X4680Y4024D01*
X4725Y4054D01*
X4824Y4153D01*
X4854Y4198D01*
X4865Y4252D01*
Y4518D01*
X4881Y4529D01*
X4928Y4601D01*
X4954Y4616D01*
X5044Y4637D01*
X5041Y4523D01*
X5031Y4516D01*
X4999Y4467D01*
X4987Y4409D01*
X4999Y4352D01*
X5031Y4303D01*
X5080Y4270D01*
X5138Y4259D01*
X5335D01*
X5385Y4269D01*
X5433D01*
X5505Y4205D01*
X5553Y4134D01*
X5624Y4086D01*
X5709Y4069D01*
X5793Y4086D01*
X5865Y4134D01*
X5913Y4205D01*
X5929Y4290D01*
X5913Y4373D01*
X5926Y4386D01*
X5957Y4432D01*
X5967Y4485D01*
Y5000D01*
X6325D01*
X6339Y4997D01*
X6592D01*
X6618Y4980D01*
X6683Y4967D01*
X6939D01*
X6941Y4968D01*
X7047Y4878D01*
X7047Y4877D01*
Y4429D01*
X7216D01*
X7264Y4331D01*
Y4227D01*
X7243Y4214D01*
X6977Y3948D01*
X6947Y3902D01*
X6936Y3848D01*
Y3592D01*
X6921Y3581D01*
X6874Y3512D01*
X6873Y3510D01*
X6744Y3468D01*
X6738Y3472D01*
X6654Y3488D01*
X6569Y3472D01*
X6497Y3424D01*
X6450Y3352D01*
X6433Y3268D01*
X6450Y3183D01*
X6457Y3172D01*
X6394Y3054D01*
X4431D01*
X3841Y3644D01*
Y3967D01*
X3857Y3978D01*
X3905Y4049D01*
X3922Y4134D01*
X3905Y4218D01*
X3857Y4290D01*
X3839Y4302D01*
X3839Y4438D01*
X3857Y4450D01*
X3905Y4522D01*
X3922Y4606D01*
X3905Y4691D01*
X3894Y4707D01*
X3887Y4728D01*
X3937Y4840D01*
X4093D01*
X4146Y4851D01*
X4192Y4881D01*
X4429Y5118D01*
X4626D01*
Y5118D01*
D02*
G37*
G36*
X16367Y6040D02*
X16058Y5731D01*
X15433D01*
Y7854D01*
X15551Y7917D01*
X15567Y7906D01*
X15652Y7889D01*
X15736Y7906D01*
X15808Y7954D01*
X15856Y8026D01*
X15857Y8031D01*
X16367D01*
Y6040D01*
D02*
G37*
G36*
X3757Y12486D02*
Y12008D01*
X3642D01*
Y12008D01*
X3484D01*
Y11772D01*
X3366D01*
Y12008D01*
X3012D01*
Y11772D01*
X2894D01*
Y12008D01*
X2772D01*
Y12116D01*
X2762Y12170D01*
X2759Y12175D01*
Y12300D01*
X2995Y12537D01*
X3298D01*
X3308Y12521D01*
X3380Y12473D01*
X3465Y12456D01*
X3549Y12473D01*
X3621Y12521D01*
X3630Y12535D01*
X3651Y12542D01*
X3757Y12486D01*
D02*
G37*
G36*
X13553Y12784D02*
Y12599D01*
X14331D01*
X14449Y12527D01*
X14449Y11225D01*
X14365Y11142D01*
X12835Y11142D01*
Y12026D01*
X12894D01*
X12924Y12032D01*
X12950Y12050D01*
X12968Y12076D01*
X12974Y12106D01*
Y12224D01*
X12968Y12255D01*
X12950Y12281D01*
X12924Y12299D01*
X12894Y12305D01*
X12835Y12364D01*
Y12852D01*
X13485D01*
X13553Y12784D01*
D02*
G37*
G36*
X9252Y13166D02*
X9245Y13155D01*
X9228Y13071D01*
X9245Y12986D01*
X9252Y12976D01*
Y12812D01*
X9245Y12801D01*
X9228Y12717D01*
X9245Y12632D01*
X9252Y12621D01*
Y12606D01*
X8086Y11440D01*
X7869D01*
X7815Y11535D01*
Y11614D01*
X7815D01*
X7815Y11654D01*
Y11837D01*
X7818Y11850D01*
X7815Y11864D01*
Y12087D01*
X7303D01*
Y11942D01*
X7185Y11882D01*
X7162Y11897D01*
X7078Y11914D01*
X6993Y11897D01*
X6922Y11849D01*
X6874Y11777D01*
X6857Y11693D01*
X6874Y11608D01*
X6922Y11537D01*
X6916Y11423D01*
X6899Y11339D01*
X6916Y11254D01*
X6964Y11182D01*
X7036Y11135D01*
X7120Y11118D01*
X7159Y11125D01*
X7233Y11044D01*
X7225Y11033D01*
X7137Y10965D01*
X7120Y10969D01*
X7036Y10952D01*
X6964Y10904D01*
X6916Y10833D01*
X6899Y10748D01*
X6916Y10664D01*
X6936Y10634D01*
X6955Y10551D01*
X6936Y10469D01*
X6916Y10439D01*
X6899Y10354D01*
X6916Y10270D01*
X6964Y10198D01*
X7036Y10150D01*
X7120Y10134D01*
X7159Y10141D01*
X7233Y10059D01*
X7225Y10049D01*
X7137Y9981D01*
X7120Y9985D01*
X7036Y9968D01*
X6964Y9920D01*
X6916Y9848D01*
X6899Y9764D01*
X6916Y9679D01*
X6936Y9650D01*
X6955Y9567D01*
X6936Y9484D01*
X6916Y9455D01*
X6899Y9370D01*
X6906Y9337D01*
X6923Y9220D01*
X6852Y9172D01*
X6804Y9100D01*
X6787Y9016D01*
X6804Y8931D01*
X6850Y8862D01*
X6784Y8818D01*
X6736Y8746D01*
X6719Y8661D01*
X6736Y8577D01*
X6784Y8505D01*
Y8463D01*
X6736Y8392D01*
X6719Y8307D01*
X6736Y8223D01*
X6784Y8151D01*
X6850Y8107D01*
X6804Y8037D01*
X6787Y7953D01*
X6804Y7868D01*
X6852Y7797D01*
X6923Y7749D01*
X7008Y7732D01*
X7092Y7749D01*
X7164Y7797D01*
X7212Y7868D01*
X7229Y7953D01*
X7227Y7962D01*
X7305Y8048D01*
X7938D01*
X8017Y8008D01*
X8057Y7941D01*
X8064Y7908D01*
X8112Y7836D01*
X8183Y7788D01*
X8268Y7771D01*
X8352Y7788D01*
X8378Y7805D01*
X8645Y7538D01*
X8690Y7508D01*
X8744Y7497D01*
X9252D01*
Y6301D01*
X9153Y6202D01*
X9122Y6156D01*
X9111Y6102D01*
Y6043D01*
X8858D01*
Y5531D01*
Y5059D01*
X9252D01*
Y3191D01*
X9115Y3054D01*
X7501D01*
X7456Y3163D01*
X7600Y3307D01*
X7776D01*
Y3740D01*
X7431D01*
X7369Y3858D01*
X7397Y3898D01*
X7776D01*
Y4311D01*
X7776Y4331D01*
X7795Y4371D01*
Y4626D01*
X7638D01*
Y4449D01*
X7638Y4429D01*
X7625Y4402D01*
X7587Y4402D01*
X7480Y4515D01*
Y4941D01*
X7400D01*
X7394Y4975D01*
X7363Y5021D01*
X7147Y5237D01*
X7097Y5328D01*
X7110Y5394D01*
X7097Y5459D01*
X7060Y5514D01*
Y5529D01*
X7097Y5584D01*
X7110Y5650D01*
X7097Y5715D01*
X7063Y5778D01*
X7097Y5840D01*
X7110Y5906D01*
X7097Y5971D01*
X7074Y6004D01*
X7084Y6046D01*
X7168Y6122D01*
X7303D01*
Y6378D01*
X7421D01*
Y6122D01*
X7442D01*
X7539Y6073D01*
X7539Y6028D01*
Y5785D01*
X7478Y5697D01*
X7447Y5675D01*
X7382Y5662D01*
X7310Y5615D01*
X7262Y5543D01*
X7246Y5458D01*
X7262Y5374D01*
X7310Y5302D01*
X7382Y5254D01*
X7446Y5242D01*
X7470Y5233D01*
X7495Y5197D01*
X7835D01*
Y5079D01*
X7548D01*
X7549Y5073D01*
X7575Y5033D01*
X7586Y5017D01*
X7638Y4916D01*
X7638Y4860D01*
Y4744D01*
X8071D01*
X8071Y4908D01*
X8077Y4961D01*
X8102Y5046D01*
X8120Y5073D01*
X8246Y5128D01*
X8268Y5121D01*
Y5059D01*
X8701D01*
Y5531D01*
Y6043D01*
X8701D01*
X8661Y6122D01*
Y6634D01*
X8228D01*
Y6122D01*
X8228D01*
X8268Y6043D01*
Y5790D01*
X8130D01*
Y6073D01*
X8130D01*
X8071Y6122D01*
Y6634D01*
X7896D01*
X7698Y6832D01*
X7652Y6862D01*
X7598Y6873D01*
X6357D01*
X5666Y7564D01*
X5620Y7595D01*
X5602Y7598D01*
X5612Y7710D01*
X5617Y7717D01*
X5650D01*
Y7894D01*
X5394D01*
Y8012D01*
X5650D01*
Y8189D01*
X5650D01*
Y8268D01*
X5650D01*
Y8740D01*
X5428D01*
X5383Y8849D01*
X5532Y8999D01*
X5563Y9045D01*
X5574Y9098D01*
Y9213D01*
X5574Y9213D01*
Y11199D01*
X5563Y11253D01*
X5532Y11298D01*
X5353Y11477D01*
X5350Y11479D01*
X5314Y11534D01*
X5242Y11582D01*
X5157Y11599D01*
X5073Y11582D01*
X5001Y11534D01*
X4954Y11462D01*
X4937Y11378D01*
X4945Y11339D01*
X4928Y11311D01*
X4862Y11220D01*
X4862D01*
X4862Y11220D01*
Y10748D01*
X4862D01*
Y10669D01*
X4862D01*
Y10197D01*
X4808Y10101D01*
X4173D01*
X4154Y10117D01*
Y10341D01*
X4156Y10354D01*
Y10611D01*
X4312Y10767D01*
X4342Y10812D01*
X4353Y10866D01*
Y12597D01*
X4342Y12651D01*
X4312Y12697D01*
X3681Y13327D01*
X3669Y13392D01*
X3621Y13463D01*
X3549Y13511D01*
X3465Y13528D01*
X3380Y13511D01*
X3308Y13463D01*
X3261Y13392D01*
X3244Y13307D01*
X3162Y13189D01*
X3114Y13189D01*
X3098Y13273D01*
X3050Y13345D01*
X2978Y13393D01*
X2894Y13410D01*
X2809Y13393D01*
X2738Y13345D01*
X2690Y13273D01*
X2673Y13189D01*
X2690Y13104D01*
X2738Y13033D01*
X2809Y12985D01*
X2871Y12973D01*
X2898Y12924D01*
X2883Y12807D01*
X2838Y12776D01*
X2519Y12458D01*
X2488Y12412D01*
X2478Y12358D01*
Y12337D01*
X2437Y12306D01*
X2359Y12280D01*
X2337Y12295D01*
X2283Y12306D01*
X1854D01*
X1801Y12295D01*
X1755Y12265D01*
X1515Y12025D01*
X1484Y11979D01*
X1474Y11925D01*
Y11543D01*
X1378Y11441D01*
X1293Y11424D01*
X1222Y11377D01*
X1174Y11305D01*
X1157Y11220D01*
X1161Y11202D01*
X1141Y11182D01*
X1110Y11136D01*
X1100Y11083D01*
Y9882D01*
X866D01*
Y9688D01*
X643D01*
X589Y9677D01*
X544Y9647D01*
X198Y9301D01*
X80Y9350D01*
Y13699D01*
X9252D01*
Y13166D01*
D02*
G37*
G36*
X10492Y11555D02*
X10295D01*
Y11673D01*
X10492D01*
Y11555D01*
D02*
G37*
G36*
X12894Y12106D02*
X12697D01*
Y12224D01*
X12894D01*
Y12106D01*
D02*
G37*
G36*
X16540Y13567D02*
X16654Y13532D01*
X16772Y13521D01*
Y13522D01*
X19134D01*
Y10868D01*
X16865D01*
X16861Y10867D01*
X16857Y10867D01*
X16853Y10866D01*
X16490D01*
X16482Y10868D01*
X15909D01*
X15902Y10866D01*
X15575D01*
X15475Y10965D01*
X15433Y10994D01*
Y12940D01*
X15516Y13008D01*
X15600Y13024D01*
X15672Y13072D01*
X15720Y13144D01*
X15737Y13228D01*
X15720Y13313D01*
X15672Y13384D01*
X15600Y13432D01*
X15583Y13436D01*
X15561Y13465D01*
X15616Y13579D01*
X15622Y13583D01*
X16511D01*
X16540Y13567D01*
D02*
G37*
G36*
X10492Y8839D02*
X10295D01*
Y8957D01*
X10492D01*
Y8839D01*
D02*
G37*
G36*
X13553Y10264D02*
Y10039D01*
X14360D01*
X14449Y9968D01*
Y8526D01*
X12835D01*
Y9388D01*
X12894D01*
X12924Y9394D01*
X12950Y9412D01*
X12968Y9438D01*
X12974Y9469D01*
Y9587D01*
X12968Y9617D01*
X12950Y9643D01*
X12924Y9661D01*
X12894Y9667D01*
X12835D01*
Y10332D01*
X13485D01*
X13553Y10264D01*
D02*
G37*
G36*
X19134Y8112D02*
X16845D01*
Y10763D01*
X16865Y10787D01*
X19134D01*
Y8112D01*
D02*
G37*
G36*
X16564Y10705D02*
Y8110D01*
X16375D01*
X16367Y8112D01*
X15872D01*
X15856Y8195D01*
X15808Y8266D01*
X15736Y8314D01*
X15652Y8331D01*
X15633Y8327D01*
X15475Y8485D01*
X15433Y8513D01*
Y10347D01*
X15470Y10378D01*
X15551Y10421D01*
X15612Y10409D01*
X15697Y10426D01*
X15768Y10474D01*
X15816Y10545D01*
X15833Y10630D01*
X15825Y10669D01*
X15888Y10771D01*
X15909Y10787D01*
X16482D01*
X16564Y10705D01*
D02*
G37*
G36*
X12894Y9469D02*
X12697D01*
Y9587D01*
X12894D01*
Y9469D01*
D02*
G37*
%LPC*%
G36*
X2835Y1499D02*
X2829D01*
X2773Y1488D01*
X2725Y1456D01*
X2688D01*
X2641Y1488D01*
X2585Y1499D01*
X2455D01*
X2399Y1488D01*
X2351Y1456D01*
X2319Y1408D01*
X2308Y1352D01*
Y1089D01*
X2319Y1033D01*
X2351Y985D01*
X2399Y953D01*
X2438Y945D01*
Y807D01*
X2362D01*
Y295D01*
X2795D01*
Y807D01*
X2795Y807D01*
X2795D01*
X2803Y922D01*
X2829Y942D01*
X2835D01*
Y1220D01*
Y1499D01*
D02*
G37*
G36*
X1654Y2282D02*
X1566Y2271D01*
X1485Y2237D01*
X1415Y2184D01*
X1361Y2114D01*
X1328Y2032D01*
X1316Y1945D01*
X1328Y1858D01*
X1361Y1776D01*
X1415Y1706D01*
X1485Y1653D01*
X1566Y1619D01*
X1654Y1607D01*
X1741Y1619D01*
X1822Y1653D01*
X1892Y1706D01*
X1946Y1776D01*
X1980Y1858D01*
X1991Y1945D01*
X1980Y2032D01*
X1946Y2114D01*
X1892Y2184D01*
X1822Y2237D01*
X1741Y2271D01*
X1654Y2282D01*
D02*
G37*
G36*
X7701Y1873D02*
X7613Y1861D01*
X7532Y1828D01*
X7462Y1774D01*
X7408Y1704D01*
X7375Y1623D01*
X7363Y1535D01*
X7375Y1448D01*
X7408Y1367D01*
X7442Y1322D01*
X7414Y1236D01*
X7390Y1204D01*
X7012D01*
X6987Y1236D01*
X6959Y1322D01*
X6993Y1367D01*
X7027Y1448D01*
X7038Y1535D01*
X7027Y1623D01*
X6993Y1704D01*
X6939Y1774D01*
X6870Y1828D01*
X6788Y1861D01*
X6701Y1873D01*
X6613Y1861D01*
X6532Y1828D01*
X6462Y1774D01*
X6408Y1704D01*
X6375Y1623D01*
X6363Y1535D01*
X6375Y1448D01*
X6408Y1367D01*
X6442Y1322D01*
X6414Y1236D01*
X6390Y1204D01*
X3539D01*
X3476Y1267D01*
Y1496D01*
X3059D01*
X3059Y1496D01*
X2959Y1499D01*
X2953D01*
Y1220D01*
Y904D01*
X2990Y868D01*
X3007Y827D01*
X3002Y807D01*
X2953D01*
Y295D01*
X3268D01*
X3386Y295D01*
Y295D01*
X3386D01*
X3386Y295D01*
X3819D01*
X3937Y295D01*
X3976Y295D01*
X4114D01*
Y551D01*
X4173D01*
Y610D01*
X4409D01*
Y725D01*
X4409Y807D01*
X4513Y843D01*
X5866D01*
X5924Y725D01*
X5908Y704D01*
X5875Y623D01*
X5863Y535D01*
X5875Y448D01*
X5908Y367D01*
X5962Y297D01*
X6032Y243D01*
X6113Y209D01*
X6201Y198D01*
X6288Y209D01*
X6370Y243D01*
X6439Y297D01*
X6493Y367D01*
X6527Y448D01*
X6538Y535D01*
X6527Y623D01*
X6493Y704D01*
X6477Y725D01*
X6535Y843D01*
X6866D01*
X6924Y725D01*
X6908Y704D01*
X6875Y623D01*
X6863Y535D01*
X6875Y448D01*
X6908Y367D01*
X6962Y297D01*
X7032Y243D01*
X7113Y209D01*
X7201Y198D01*
X7288Y209D01*
X7370Y243D01*
X7439Y297D01*
X7493Y367D01*
X7527Y448D01*
X7538Y535D01*
X7527Y623D01*
X7493Y704D01*
X7477Y725D01*
X7527Y826D01*
X7644Y836D01*
X7873Y608D01*
X7863Y535D01*
X7875Y448D01*
X7908Y367D01*
X7962Y297D01*
X8032Y243D01*
X8113Y209D01*
X8201Y198D01*
X8288Y209D01*
X8370Y243D01*
X8439Y297D01*
X8493Y367D01*
X8527Y448D01*
X8538Y535D01*
X8527Y623D01*
X8493Y704D01*
X8439Y774D01*
X8370Y828D01*
X8288Y861D01*
X8201Y873D01*
X8128Y863D01*
X7874Y1117D01*
X7872Y1186D01*
X7879Y1234D01*
X7891Y1260D01*
X7939Y1297D01*
X7993Y1367D01*
X8027Y1448D01*
X8038Y1535D01*
X8027Y1623D01*
X7993Y1704D01*
X7939Y1774D01*
X7870Y1828D01*
X7788Y1861D01*
X7701Y1873D01*
D02*
G37*
G36*
X654Y1782D02*
X566Y1771D01*
X485Y1737D01*
X415Y1684D01*
X361Y1614D01*
X328Y1532D01*
X316Y1445D01*
X328Y1358D01*
X361Y1276D01*
X415Y1206D01*
X485Y1153D01*
X566Y1119D01*
X654Y1107D01*
X741Y1119D01*
X822Y1153D01*
X892Y1206D01*
X946Y1276D01*
X980Y1358D01*
X991Y1445D01*
X980Y1532D01*
X946Y1614D01*
X892Y1684D01*
X822Y1737D01*
X741Y1771D01*
X654Y1782D01*
D02*
G37*
G36*
X4409Y492D02*
X4232D01*
Y295D01*
X4409D01*
Y492D01*
D02*
G37*
G36*
X12972Y1821D02*
X12785D01*
Y1634D01*
X12972D01*
Y1821D01*
D02*
G37*
G36*
X5335Y4048D02*
X5138D01*
X5080Y4037D01*
X5031Y4004D01*
X4999Y3955D01*
X4987Y3898D01*
X4999Y3840D01*
X5031Y3791D01*
X5080Y3759D01*
X5138Y3747D01*
X5188D01*
X5413Y3522D01*
X5409Y3504D01*
X5426Y3419D01*
X5474Y3348D01*
X5545Y3300D01*
X5630Y3283D01*
X5714Y3300D01*
X5786Y3348D01*
X5834Y3419D01*
X5851Y3504D01*
X5834Y3588D01*
X5786Y3660D01*
X5714Y3708D01*
X5630Y3725D01*
X5611Y3721D01*
X5477Y3856D01*
X5485Y3898D01*
X5474Y3955D01*
X5441Y4004D01*
X5392Y4037D01*
X5335Y4048D01*
D02*
G37*
G36*
X8071Y4626D02*
X7913D01*
Y4429D01*
X8071D01*
Y4626D01*
D02*
G37*
G36*
X4311Y4560D02*
X4272D01*
X4214Y4549D01*
X4165Y4516D01*
X4134Y4469D01*
X4311D01*
Y4560D01*
D02*
G37*
G36*
X654Y3782D02*
X566Y3771D01*
X485Y3737D01*
X415Y3684D01*
X361Y3614D01*
X328Y3532D01*
X316Y3445D01*
X328Y3358D01*
X361Y3276D01*
X415Y3206D01*
X485Y3153D01*
X566Y3119D01*
X654Y3107D01*
X741Y3119D01*
X822Y3153D01*
X892Y3206D01*
X946Y3276D01*
X980Y3358D01*
X991Y3445D01*
X980Y3532D01*
X946Y3614D01*
X892Y3684D01*
X822Y3737D01*
X741Y3771D01*
X654Y3782D01*
D02*
G37*
G36*
X2585Y2534D02*
X2455D01*
X2399Y2523D01*
X2351Y2491D01*
X2319Y2444D01*
X2308Y2388D01*
Y2124D01*
X2319Y2068D01*
X2351Y2020D01*
X2399Y1989D01*
X2455Y1978D01*
X2585D01*
X2641Y1989D01*
X2688Y2020D01*
X2720Y2068D01*
X2731Y2124D01*
Y2388D01*
X2720Y2444D01*
X2688Y2491D01*
X2641Y2523D01*
X2585Y2534D01*
D02*
G37*
G36*
X654Y2782D02*
X566Y2771D01*
X485Y2737D01*
X415Y2684D01*
X361Y2614D01*
X328Y2532D01*
X316Y2445D01*
X328Y2358D01*
X361Y2276D01*
X415Y2206D01*
X485Y2153D01*
X566Y2119D01*
X654Y2107D01*
X741Y2119D01*
X822Y2153D01*
X892Y2206D01*
X946Y2276D01*
X980Y2358D01*
X991Y2445D01*
X980Y2532D01*
X946Y2614D01*
X892Y2684D01*
X822Y2737D01*
X741Y2771D01*
X654Y2782D01*
D02*
G37*
G36*
X10315Y2343D02*
X10157D01*
Y2146D01*
X10315D01*
Y2343D01*
D02*
G37*
%LPD*%
D15*
X4173Y551D02*
D03*
X3622D02*
D03*
X6811Y6378D02*
D03*
X7362D02*
D03*
D22*
X11358Y3661D02*
D03*
X11949D02*
D03*
X10374D02*
D03*
X10965D02*
D03*
X11358Y2402D02*
D03*
X11949D02*
D03*
X10374D02*
D03*
X10965D02*
D03*
X11358Y3031D02*
D03*
X11949D02*
D03*
X10374Y3031D02*
D03*
X10965D02*
D03*
X2579Y551D02*
D03*
X3169D02*
D03*
X7264Y4685D02*
D03*
X7854D02*
D03*
X7854Y6378D02*
D03*
X8445D02*
D03*
X8484Y5315D02*
D03*
X9075D02*
D03*
X8484Y5787D02*
D03*
X9075D02*
D03*
X11358Y4291D02*
D03*
X11949D02*
D03*
X10374D02*
D03*
X10965D02*
D03*
D24*
X9961Y11575D02*
D03*
Y12126D02*
D03*
X9961Y6260D02*
D03*
Y6811D02*
D03*
X9961Y8976D02*
D03*
Y9528D02*
D03*
X1575Y5906D02*
D03*
Y5354D02*
D03*
X2047Y5354D02*
D03*
Y5906D02*
D03*
X1102Y5906D02*
D03*
Y5354D02*
D03*
X3937Y5354D02*
D03*
Y5906D02*
D03*
X2520Y5354D02*
D03*
Y5906D02*
D03*
X2992Y5354D02*
D03*
Y5906D02*
D03*
X3465Y5354D02*
D03*
Y5906D02*
D03*
X7559Y9331D02*
D03*
Y9882D02*
D03*
Y10315D02*
D03*
Y10866D02*
D03*
Y11299D02*
D03*
Y11850D02*
D03*
X3425Y11220D02*
D03*
Y11772D02*
D03*
X3898Y11220D02*
D03*
Y11772D02*
D03*
X2953Y11220D02*
D03*
Y11772D02*
D03*
X5394Y7953D02*
D03*
Y8504D02*
D03*
X5118Y10433D02*
D03*
Y10984D02*
D03*
D25*
X4882Y5335D02*
D03*
Y5925D02*
D03*
X6220Y5217D02*
D03*
Y5807D02*
D03*
X4409Y5335D02*
D03*
Y5925D02*
D03*
X13701Y1988D02*
D03*
Y1398D02*
D03*
X7520Y4114D02*
D03*
Y3524D02*
D03*
D26*
X15460Y12047D02*
D03*
Y9488D02*
D03*
Y6929D02*
D03*
D27*
X13957Y12797D02*
D03*
Y12297D02*
D03*
Y11797D02*
D03*
Y11297D02*
D03*
Y10238D02*
D03*
Y9738D02*
D03*
Y9238D02*
D03*
Y8738D02*
D03*
Y7679D02*
D03*
Y7179D02*
D03*
Y6679D02*
D03*
Y6179D02*
D03*
D28*
X11949Y4291D02*
X12835Y5177D01*
Y5236D01*
X12362Y5709D02*
X12835Y5236D01*
X9961Y5709D02*
X12362D01*
X7713Y1024D02*
X8201Y535D01*
X3465Y1024D02*
X7713D01*
X13642Y2047D02*
X13701Y1988D01*
X3268Y1220D02*
X3465Y1024D01*
X13642Y2047D02*
Y2224D01*
X14075Y2657D01*
Y2874D01*
D29*
X8661Y8110D02*
X8744D01*
X9020Y7835D01*
X8268Y7992D02*
X8390D01*
X9055Y8189D02*
X9213Y8031D01*
X9449Y8307D02*
X9528Y8386D01*
X9720Y8189D02*
X14213D01*
X9563Y8031D02*
X9720Y8189D01*
X9802Y7992D02*
X13504D01*
X9644Y7835D02*
X9802Y7992D01*
X9884Y7795D02*
X12874D01*
X9726Y7638D02*
X9884Y7795D01*
X9020Y7835D02*
X9644D01*
X8744Y7638D02*
X9726D01*
X5433Y9213D02*
Y11199D01*
X5433Y9213D02*
X5433Y9213D01*
X5254Y11378D02*
X5433Y11199D01*
X5090Y9547D02*
X5130Y9588D01*
X4173Y9961D02*
X5157D01*
X5116Y9213D02*
X5157D01*
X807Y6594D02*
Y8876D01*
Y6594D02*
X866Y6535D01*
X591Y5748D02*
Y8938D01*
X394Y5533D02*
Y9019D01*
X197Y5452D02*
Y9101D01*
Y5452D02*
X787Y4862D01*
X197Y9101D02*
X643Y9547D01*
X394Y5533D02*
X868Y5059D01*
X394Y9019D02*
X725Y9350D01*
X591Y5748D02*
X709Y5630D01*
X591Y8938D02*
X806Y9154D01*
X787Y4862D02*
X1658D01*
X868Y5059D02*
X1739D01*
X2146Y4980D02*
X2756D01*
X2126Y4961D02*
X2146Y4980D01*
X2047Y5039D02*
X2126Y4961D01*
X2047Y5039D02*
Y5354D01*
X2087Y3457D02*
Y4712D01*
X1739Y5059D02*
X2087Y4712D01*
X1654Y4024D02*
X1870Y4240D01*
Y4650D01*
X1658Y4862D02*
X1870Y4650D01*
X1654Y3024D02*
X2087Y3457D01*
X9449Y13071D02*
X9758D01*
X10073Y13386D01*
X15358D01*
X9449Y12717D02*
X9682D01*
X10155Y13189D01*
X10354Y12795D02*
X11535D01*
X9961Y12402D02*
X10354Y12795D01*
X9961Y12126D02*
Y12402D01*
X9449Y12205D02*
X10236Y12992D01*
X9449Y11772D02*
X9961Y12283D01*
X8895Y11772D02*
X9449D01*
X8110Y10987D02*
X8895Y11772D01*
X8976Y11575D02*
X9961D01*
X12524Y11063D02*
X13130Y11669D01*
X9528Y11063D02*
X12524D01*
X9449Y11142D02*
X9528Y11063D01*
X9685Y4112D02*
X10179Y4606D01*
X9685Y3425D02*
Y4112D01*
X10179Y4606D02*
X10650D01*
X10965Y4291D01*
X9173Y2913D02*
X9685Y3425D01*
X4373Y2913D02*
X9173D01*
X10965Y4291D02*
X11358D01*
X4057Y2323D02*
X9434D01*
X9828Y2717D02*
X10650D01*
X9434Y2323D02*
X9828Y2717D01*
X9882Y3679D02*
X10179Y3976D01*
X9882Y3328D02*
Y3679D01*
X9271Y2717D02*
X9882Y3328D01*
X4291Y2717D02*
X9271D01*
X10179Y3976D02*
X10650D01*
X10965Y3661D01*
X11358D01*
X11949D02*
X12192D01*
X4173Y2520D02*
X9352D01*
X10179Y3346D01*
X10650D01*
X10965Y3031D01*
X11358D02*
X11358Y3031D01*
X10965Y3031D02*
X11358D01*
X10650Y2717D02*
X10965Y2402D01*
X11358D01*
X3504Y9177D02*
X3862Y8819D01*
X3504Y9177D02*
Y9528D01*
X3862Y8819D02*
X4136D01*
X3390Y9803D02*
X4016D01*
X4173Y9961D01*
X3095Y9508D02*
X3390Y9803D01*
X3999Y9154D02*
X4626D01*
X3976Y9131D02*
X3999Y9154D01*
X3976Y9094D02*
Y9131D01*
X4136Y8819D02*
X4274Y8957D01*
X4626D01*
X2736Y9508D02*
X3095D01*
X2835Y9926D02*
X2930Y9830D01*
X2835Y9926D02*
Y10354D01*
X10315Y7598D02*
X11535D01*
X9961Y7244D02*
X10315Y7598D01*
X9528Y8386D02*
X15376D01*
X8390Y7992D02*
X8744Y7638D01*
X9213Y8031D02*
X9563D01*
X2638Y9606D02*
X2736Y9508D01*
X2638Y9606D02*
Y10354D01*
X2323Y9803D02*
X2441Y9921D01*
Y10354D01*
X4055Y9488D02*
Y9528D01*
X3425Y7323D02*
X3504Y7402D01*
X3425Y6969D02*
Y7323D01*
X5094Y8760D02*
X5433Y9098D01*
Y9213D01*
X4980Y8366D02*
X5394Y7953D01*
X4626Y8366D02*
X4980D01*
X6811Y5138D02*
X7047D01*
X6339D02*
X6811D01*
X6260Y5217D02*
X6339Y5138D01*
X3701Y3585D02*
X4373Y2913D01*
X3701Y3585D02*
Y4134D01*
X3465Y3543D02*
X4291Y2717D01*
X3465Y3543D02*
Y3894D01*
X3189Y3504D02*
X4173Y2520D01*
X3189Y3504D02*
Y3780D01*
X2677Y3703D02*
X4057Y2323D01*
X2677Y3703D02*
Y4252D01*
X5236Y3898D02*
X5630Y3504D01*
X5236Y3898D02*
X5236Y3898D01*
X3264Y4094D02*
X3465Y3894D01*
X4370Y4409D02*
Y4720D01*
X4724Y5075D01*
Y5177D01*
X4882Y5335D01*
Y5925D02*
Y5963D01*
X4449Y5337D02*
Y5394D01*
X3937Y5906D02*
Y5963D01*
X5039Y4921D02*
X5079D01*
X5329Y4739D02*
X5433Y4843D01*
X5433Y4409D02*
X5630Y4606D01*
X5709Y4367D02*
X5827Y4485D01*
X3701Y4980D02*
X4093D01*
X5329Y4710D02*
Y4739D01*
X4724Y4685D02*
Y4724D01*
X5236Y4409D02*
X5433D01*
X5709Y4290D02*
Y4367D01*
X5079Y4921D02*
X5236Y5079D01*
X4724Y4252D02*
Y4685D01*
X3031Y4606D02*
X3701D01*
X4093Y4980D02*
X4449Y5337D01*
X2953Y4094D02*
X3264D01*
X2677Y4252D02*
X3031Y4606D01*
X7520Y3425D02*
Y3524D01*
X7244Y3150D02*
X7520Y3425D01*
X6772Y3150D02*
X7244D01*
X7343Y4114D02*
X7520D01*
X16705Y5901D02*
Y10763D01*
X16508Y5982D02*
Y8440D01*
X15460Y12008D02*
X16705Y10763D01*
X15460Y9488D02*
X16508Y8440D01*
X14213Y8189D02*
X15433Y6969D01*
X7120Y9370D02*
X7159Y9331D01*
X8110Y9142D02*
Y10987D01*
X7748Y8780D02*
X8110Y9142D01*
X8307Y9061D02*
Y10906D01*
X7829Y8583D02*
X8307Y9061D01*
X7120Y11339D02*
X7559D01*
X7441Y11299D02*
X8144D01*
X7244Y8189D02*
X7992D01*
X7019Y8386D02*
X7911D01*
X6940Y8307D02*
X7019Y8386D01*
X7163Y8583D02*
X7829D01*
X7084Y8661D02*
X7163Y8583D01*
X6940Y8661D02*
X7084D01*
X7008Y9016D02*
X7244Y8780D01*
X7748D01*
X9783Y9154D02*
X9961Y8976D01*
X9783Y9350D02*
X9961Y9528D01*
X2520Y1220D02*
X2579Y1161D01*
Y551D02*
Y1161D01*
X9075Y5315D02*
X9111D01*
X7008Y7953D02*
X7244Y8189D01*
X6940Y8661D02*
X7019Y8583D01*
X13076Y9395D02*
Y10113D01*
X12913Y10276D02*
X13076Y10113D01*
X10157Y10276D02*
X12913D01*
X14252Y13189D02*
X14921Y12520D01*
X13543Y12992D02*
X13738Y12797D01*
X11535Y12795D02*
X12165Y12165D01*
X12697D01*
X13130Y11512D02*
Y11929D01*
X13738Y12797D02*
X13917D01*
X13778Y10238D02*
X13957D01*
X13817Y7679D02*
X13996D01*
X13130Y6772D02*
X13253Y6895D01*
X11535Y7598D02*
X12087Y7047D01*
X9961Y6811D02*
Y7244D01*
X9961Y7244D02*
X9961Y7244D01*
X12087Y7047D02*
X12697D01*
X10079Y6378D02*
X10295D01*
X9961Y6260D02*
X10079Y6378D01*
X10354Y10079D02*
X11378D01*
X9961Y9685D02*
X10354Y10079D01*
X9961Y9528D02*
Y9685D01*
X11378Y10079D02*
X11929Y9528D01*
X12697D01*
X10039Y8898D02*
X10295D01*
X9961Y8976D02*
X10039Y8898D01*
X7120Y10354D02*
X7159Y10315D01*
X7520Y11693D02*
X7677Y11850D01*
X8406Y5394D02*
X8484Y5315D01*
X7835Y5394D02*
X8406D01*
X7835Y5906D02*
X7854Y5925D01*
Y6378D01*
X6811Y5906D02*
Y6378D01*
X6329Y5876D02*
X6781D01*
X6811Y5906D01*
X7264Y4685D02*
Y4921D01*
X7047Y5138D02*
X7264Y4921D01*
X7559Y10748D02*
X7677Y10866D01*
X7120Y10748D02*
X7559D01*
X7559Y9764D02*
X7677Y9882D01*
X7120Y9764D02*
X7559D01*
X7480Y11732D02*
X7520Y11693D01*
X7441D02*
X7480Y11732D01*
X13701Y805D02*
Y1398D01*
X13366Y470D02*
X13701Y805D01*
X13031Y561D02*
X13122Y470D01*
X13366D01*
X7598Y6732D02*
X7854Y6476D01*
Y6378D02*
Y6476D01*
X15376Y8386D02*
X15652Y8110D01*
X15358Y13386D02*
X15516Y13228D01*
X13543Y10472D02*
X13778Y10238D01*
X12874Y7795D02*
X13253Y7416D01*
Y6895D02*
Y7416D01*
X13504Y7992D02*
X13817Y7679D01*
X1240Y7579D02*
X1693D01*
X1870Y7756D01*
X1240Y7972D02*
X1614D01*
X1870Y8228D01*
X1240Y8563D02*
X1732D01*
X4626Y9547D02*
X5090D01*
X4626Y9350D02*
X4978D01*
X5116Y9213D01*
X4055Y9528D02*
X4272Y9744D01*
X4626D01*
X888Y8957D02*
X1240D01*
X806Y9154D02*
X1240D01*
X725Y9350D02*
X1240D01*
X643Y9547D02*
X1240D01*
X3228Y10354D02*
Y10888D01*
X2953Y11163D02*
X3228Y10888D01*
X2953Y11163D02*
Y11220D01*
X3819Y10354D02*
Y11142D01*
X3898Y11220D01*
X3425D02*
X3898D01*
X3425Y11220D02*
X3425Y11220D01*
X4626Y8760D02*
X5094D01*
X5157Y11378D02*
X5254D01*
X4016Y10354D02*
Y10669D01*
X3031Y10354D02*
Y10707D01*
X2813Y10925D02*
X3031Y10707D01*
X2719Y10925D02*
X2813D01*
X2618Y11026D02*
X2719Y10925D01*
X2047Y10354D02*
Y11339D01*
X1732Y8563D02*
X1831Y8661D01*
X1929D01*
X1240Y8760D02*
X1593D01*
X1673Y8841D01*
Y9902D01*
X1496Y10079D02*
X1673Y9902D01*
X1850Y10354D02*
Y11146D01*
X1890Y11496D02*
X2047Y11339D01*
X1614Y11382D02*
X1850Y11146D01*
X1240Y11083D02*
X1378Y11220D01*
X1240Y9744D02*
Y11083D01*
X1496Y10079D02*
Y10827D01*
X1535Y10866D01*
X2953Y11772D02*
Y12185D01*
X2894Y12244D02*
X2953Y12185D01*
X1854Y12165D02*
X2283D01*
X1614Y11925D02*
X1854Y12165D01*
X1614Y11382D02*
Y11925D01*
X1969Y11890D02*
X2244Y11614D01*
Y10354D02*
Y11614D01*
X2283Y12165D02*
X2356Y12092D01*
Y12002D02*
Y12092D01*
X2618Y11026D02*
Y11874D01*
X4016Y10669D02*
X4213Y10866D01*
X2618Y12130D02*
Y12358D01*
X2937Y12677D01*
X3465D01*
X3465Y13307D02*
X3503D01*
X4213Y12597D01*
Y10866D02*
Y12597D01*
X3898Y11772D02*
Y12634D01*
X3579Y12953D02*
X3898Y12634D01*
X3350Y12953D02*
X3579D01*
X3348Y12951D02*
X3350Y12953D01*
X3348Y12951D02*
X3348D01*
X3346Y12953D02*
X3348Y12951D01*
X3130Y12953D02*
X3346D01*
X2894Y13189D02*
X3130Y12953D01*
X2618Y11874D02*
X2632Y11888D01*
Y12116D01*
X2618Y12130D02*
X2632Y12116D01*
X2638Y6317D02*
X2992Y5963D01*
Y5906D02*
Y5963D01*
X2520Y5906D02*
Y6157D01*
X2244Y6432D02*
X2520Y6157D01*
X2244Y6432D02*
Y6969D01*
X2047Y5906D02*
Y6616D01*
X2047Y6616D02*
Y6969D01*
X2047Y6616D02*
X2047Y6616D01*
X1575Y5906D02*
X2047D01*
X2047Y5906D01*
X4171Y6201D02*
X4409Y5963D01*
Y5925D02*
Y5963D01*
X3622Y6569D02*
Y6969D01*
Y6569D02*
X3990Y6201D01*
X4171D01*
X3819Y6651D02*
Y6969D01*
Y6651D02*
X3934Y6535D01*
X4115D01*
X4450Y6201D01*
X4644D01*
X4882Y5963D01*
X4626Y7776D02*
X4978D01*
X4626Y8563D02*
X5276D01*
Y8425D02*
Y8563D01*
X3465Y5906D02*
Y5963D01*
X2835Y6535D02*
X3031Y6339D01*
X3089D01*
X3465Y5963D01*
X3031Y6616D02*
Y6969D01*
Y6616D02*
X3112Y6535D01*
X3364D01*
X3937Y5963D01*
X7531Y5394D02*
X7835D01*
Y5650D02*
X8327D01*
X8445Y5768D01*
Y6378D01*
X7466Y5458D02*
X7531Y5394D01*
X12192Y3661D02*
X15460Y6929D01*
X2638Y6317D02*
Y6969D01*
X2835Y6535D02*
Y6969D01*
X7077Y3848D02*
X7343Y4114D01*
X7077Y3425D02*
Y3848D01*
X6654Y3268D02*
X6772Y3150D01*
X6181Y5906D02*
X6260Y5827D01*
X4626Y4154D02*
X4724Y4252D01*
X4370Y4154D02*
X4626D01*
X1575Y5354D02*
X1575Y5354D01*
X807Y8876D02*
X888Y8957D01*
X3465Y5354D02*
X3937D01*
X3465Y5354D02*
X3465Y5354D01*
X2992Y5354D02*
X3465D01*
X2520D02*
X2992D01*
X2047D02*
X2520D01*
X1102Y5354D02*
X1575D01*
X10000Y11614D02*
X10295D01*
X9961Y11575D02*
X10000Y11614D01*
X9961Y12126D02*
X9961Y12126D01*
X8307Y10906D02*
X8976Y11575D01*
X10236Y12992D02*
X13543D01*
X10155Y13189D02*
X14252D01*
X8144Y11299D02*
X9449Y12604D01*
Y12717D01*
X7159Y10315D02*
X7559D01*
X7677D01*
X7159Y9331D02*
X7559D01*
X7677D01*
X9843Y10669D02*
X14291D01*
X9606Y10433D02*
X9843Y10669D01*
X10000Y10472D02*
X13543D01*
X9606Y10079D02*
X10000Y10472D01*
X9449Y10787D02*
X9528Y10866D01*
X9449Y10433D02*
X9606D01*
X9449Y10079D02*
X9606D01*
X9606Y9724D02*
X10157Y10276D01*
X9449Y9724D02*
X9606D01*
Y9724D01*
X7911Y8386D02*
X8875Y9350D01*
X9783D01*
X8957Y9154D02*
X9783D01*
X7992Y8189D02*
X8957Y9154D01*
X9111Y5315D02*
X9269Y5472D01*
X9270D01*
X9350Y5553D01*
Y5554D01*
X9449Y5652D01*
X9075Y5787D02*
X9252Y5965D01*
Y6102D02*
X9961Y6811D01*
X9252Y5965D02*
Y6102D01*
X9449Y5652D02*
Y6021D01*
X9688Y6260D01*
X9961D01*
X14291Y10669D02*
X15236Y9724D01*
X9528Y10866D02*
X15376D01*
X15612Y10630D01*
X11949Y3031D02*
Y3140D01*
X12224Y2677D02*
Y3137D01*
X11949Y2402D02*
X12224Y2677D01*
X16198Y5394D02*
X16705Y5901D01*
X12224Y3137D02*
X14481Y5394D01*
X16198D01*
X11949Y3140D02*
X14400Y5591D01*
X16116D01*
X16508Y5982D01*
X4922Y6201D02*
X5116D01*
X4154Y6969D02*
X4922Y6201D01*
X5116D02*
X5236Y6081D01*
X4016Y6969D02*
X4154D01*
X5236Y5079D02*
Y6081D01*
X5004Y6398D02*
X5198D01*
X4097Y7402D02*
X4213Y7286D01*
X3504Y7402D02*
X4097D01*
X5198Y6398D02*
X5433Y6162D01*
Y4843D02*
Y6162D01*
X4213Y7189D02*
Y7286D01*
Y7189D02*
X5004Y6398D01*
X4626Y7054D02*
Y7579D01*
Y7054D02*
X5085Y6594D01*
X5279D01*
X5630Y6244D01*
Y4606D02*
Y6244D01*
X5167Y6791D02*
X5361D01*
X5827Y6325D01*
Y4485D02*
Y6325D01*
X4978Y6980D02*
X5167Y6791D01*
X4978Y6980D02*
Y7382D01*
X5059Y7463D01*
Y7695D01*
X4978Y7776D02*
X5059Y7695D01*
X5394Y7465D02*
X5567D01*
X6299Y6732D01*
X7598D01*
X7078Y11693D02*
X7441D01*
D30*
X18307Y12205D02*
D03*
Y9449D02*
D03*
Y6693D02*
D03*
D31*
Y3543D02*
D03*
Y1181D02*
D03*
D32*
X6201Y535D02*
D03*
X6701Y1535D02*
D03*
X7201Y535D02*
D03*
X7701Y1535D02*
D03*
X8201Y535D02*
D03*
X8701Y1535D02*
D03*
X654Y4445D02*
D03*
X1654Y3945D02*
D03*
X654Y3445D02*
D03*
X1654Y2945D02*
D03*
X654Y2445D02*
D03*
X1654Y1945D02*
D03*
X654Y1445D02*
D03*
X1654Y945D02*
D03*
D33*
X709Y10394D02*
D03*
X4803Y512D02*
D03*
X3819Y1457D02*
D03*
X5315Y12205D02*
D03*
Y12992D02*
D03*
X6102D02*
D03*
X6496Y12598D02*
D03*
X5709D02*
D03*
X8898Y7087D02*
D03*
X6063Y7835D02*
D03*
X6457Y8268D02*
D03*
X5748Y9449D02*
D03*
X6102Y11417D02*
D03*
X5748Y11024D02*
D03*
X6496Y10236D02*
D03*
X6102Y9843D02*
D03*
X5748Y10236D02*
D03*
X6496Y11024D02*
D03*
X6102Y10630D02*
D03*
X6496Y9449D02*
D03*
X5866Y8976D02*
D03*
X6378D02*
D03*
X5906Y8465D02*
D03*
X6220Y7244D02*
D03*
X6654Y7244D02*
D03*
X5709Y11811D02*
D03*
X6496D02*
D03*
X6102Y12205D02*
D03*
X8543Y3583D02*
D03*
X8780Y4488D02*
D03*
X1417Y6969D02*
D03*
X1575Y4528D02*
D03*
X10551Y12126D02*
D03*
Y12480D02*
D03*
X10374Y4291D02*
D03*
Y3661D02*
D03*
X16132Y6831D02*
D03*
X16142Y11929D02*
D03*
Y12441D02*
D03*
X15669D02*
D03*
Y11929D02*
D03*
Y11417D02*
D03*
X16142D02*
D03*
X15669Y9882D02*
D03*
Y9409D02*
D03*
X16142Y9882D02*
D03*
Y9409D02*
D03*
Y8858D02*
D03*
X15669D02*
D03*
X16142Y6299D02*
D03*
X15669D02*
D03*
Y6811D02*
D03*
X16142Y7283D02*
D03*
X15669D02*
D03*
X14075Y2874D02*
D03*
X9803Y5709D02*
D03*
X10551Y6220D02*
D03*
X10551Y6575D02*
D03*
X10906Y8701D02*
D03*
X10551D02*
D03*
X10906Y7283D02*
D03*
X10551D02*
D03*
X12835Y5236D02*
D03*
X8898Y6732D02*
D03*
X5335Y7953D02*
D03*
X3031Y8071D02*
D03*
X2480Y12756D02*
D03*
X2756Y4980D02*
D03*
X2598Y2953D02*
D03*
X5000Y1575D02*
D03*
X4921Y3504D02*
D03*
X6417Y4724D02*
D03*
X6102Y3228D02*
D03*
X2087Y9252D02*
D03*
X10906Y11417D02*
D03*
X10906Y12480D02*
D03*
Y12126D02*
D03*
Y11772D02*
D03*
X10551D02*
D03*
Y11417D02*
D03*
X10906Y9764D02*
D03*
X10551Y9409D02*
D03*
X10906Y9409D02*
D03*
X10551Y9055D02*
D03*
X10906D02*
D03*
X10551Y9764D02*
D03*
X10551Y6929D02*
D03*
X10906Y6929D02*
D03*
Y6220D02*
D03*
Y6575D02*
D03*
X1811Y12776D02*
D03*
X17323Y5709D02*
D03*
Y6102D02*
D03*
X17008Y6299D02*
D03*
X17323Y6496D02*
D03*
X17008Y6693D02*
D03*
Y5906D02*
D03*
X17323Y6890D02*
D03*
X17008Y7087D02*
D03*
X17323Y7283D02*
D03*
X17008Y7480D02*
D03*
X17323Y7677D02*
D03*
Y8425D02*
D03*
X17008Y8622D02*
D03*
X17323Y8819D02*
D03*
X17008Y9016D02*
D03*
X17323Y9213D02*
D03*
X17008Y9409D02*
D03*
X17323Y9606D02*
D03*
X17008Y9803D02*
D03*
X17323Y10000D02*
D03*
X17008Y10197D02*
D03*
X17323Y10394D02*
D03*
Y11181D02*
D03*
X17008Y11378D02*
D03*
X17323Y11575D02*
D03*
X17008Y11772D02*
D03*
X17323Y11968D02*
D03*
X17008Y12165D02*
D03*
X17323Y12362D02*
D03*
X17008Y12559D02*
D03*
X17323Y12756D02*
D03*
X17008Y12953D02*
D03*
X17323Y13150D02*
D03*
Y1181D02*
D03*
Y1575D02*
D03*
X16929Y1378D02*
D03*
Y1772D02*
D03*
X17323Y1969D02*
D03*
Y787D02*
D03*
X16929Y984D02*
D03*
Y591D02*
D03*
X16535Y1969D02*
D03*
Y1575D02*
D03*
Y1181D02*
D03*
Y787D02*
D03*
X16142Y591D02*
D03*
Y984D02*
D03*
Y1378D02*
D03*
Y1772D02*
D03*
X15748Y1969D02*
D03*
Y1575D02*
D03*
Y1181D02*
D03*
Y787D02*
D03*
Y394D02*
D03*
X15354Y591D02*
D03*
Y984D02*
D03*
Y1378D02*
D03*
Y1772D02*
D03*
X14961Y1969D02*
D03*
Y1575D02*
D03*
Y1181D02*
D03*
Y787D02*
D03*
Y394D02*
D03*
X14567Y591D02*
D03*
Y984D02*
D03*
Y1378D02*
D03*
Y1772D02*
D03*
X14173Y1969D02*
D03*
Y1575D02*
D03*
Y1181D02*
D03*
Y787D02*
D03*
Y394D02*
D03*
X17323Y3543D02*
D03*
Y3937D02*
D03*
Y3150D02*
D03*
Y2756D02*
D03*
X16929Y4134D02*
D03*
Y3740D02*
D03*
Y3346D02*
D03*
Y2953D02*
D03*
X16535Y2756D02*
D03*
Y3150D02*
D03*
Y3543D02*
D03*
Y3937D02*
D03*
X16142Y4134D02*
D03*
Y3740D02*
D03*
Y3346D02*
D03*
Y2953D02*
D03*
X15748Y2756D02*
D03*
Y3150D02*
D03*
Y3543D02*
D03*
Y3937D02*
D03*
Y4331D02*
D03*
X12402Y1969D02*
D03*
Y1575D02*
D03*
Y1181D02*
D03*
Y787D02*
D03*
Y394D02*
D03*
X12008Y591D02*
D03*
Y984D02*
D03*
Y1378D02*
D03*
Y1772D02*
D03*
X11614Y1969D02*
D03*
Y1575D02*
D03*
Y1181D02*
D03*
Y787D02*
D03*
Y394D02*
D03*
X11220Y591D02*
D03*
Y984D02*
D03*
Y1378D02*
D03*
Y1772D02*
D03*
X10827Y1969D02*
D03*
Y1575D02*
D03*
Y1181D02*
D03*
Y787D02*
D03*
Y394D02*
D03*
X10433Y591D02*
D03*
Y984D02*
D03*
Y1378D02*
D03*
Y1772D02*
D03*
X10039Y1969D02*
D03*
Y1181D02*
D03*
Y787D02*
D03*
Y394D02*
D03*
Y1575D02*
D03*
X5354Y7087D02*
D03*
X6260Y6299D02*
D03*
X6102Y11024D02*
D03*
X6496Y10630D02*
D03*
X5748D02*
D03*
X6102Y10236D02*
D03*
X5748Y9843D02*
D03*
X6496D02*
D03*
X6102Y9449D02*
D03*
X5709Y11417D02*
D03*
X6496D02*
D03*
X6102Y11811D02*
D03*
X8701Y12717D02*
D03*
X8110Y12362D02*
D03*
X6990Y13524D02*
D03*
X10374Y3031D02*
D03*
Y2402D02*
D03*
D34*
X8661Y8110D02*
D03*
X8268Y7992D02*
D03*
X9055Y8189D02*
D03*
X9449Y8307D02*
D03*
X5130Y9588D02*
D03*
X5157Y9961D02*
D03*
X5157Y9213D02*
D03*
X866Y6535D02*
D03*
X709Y5630D02*
D03*
X9449Y12205D02*
D03*
X4055Y9488D02*
D03*
X3976Y9094D02*
D03*
X3504Y9528D02*
D03*
X3504Y10118D02*
D03*
X2930Y9830D02*
D03*
X2323Y9803D02*
D03*
X5630Y3504D02*
D03*
X4882Y5925D02*
D03*
X4449Y5394D02*
D03*
X3937Y5906D02*
D03*
X5039Y4921D02*
D03*
X3701Y4980D02*
D03*
X5329Y4710D02*
D03*
X4724Y4685D02*
D03*
X5709Y4290D02*
D03*
X3701Y4606D02*
D03*
X3701Y4134D02*
D03*
X2953Y4094D02*
D03*
X3189Y3780D02*
D03*
X7120Y9370D02*
D03*
X9449Y13071D02*
D03*
X9449Y11142D02*
D03*
X3110Y2283D02*
D03*
X3504D02*
D03*
X7008Y9016D02*
D03*
X6940Y8661D02*
D03*
X6940Y8307D02*
D03*
X7008Y7953D02*
D03*
X7120Y11339D02*
D03*
Y10354D02*
D03*
X6811Y5522D02*
D03*
X7120Y10748D02*
D03*
Y9764D02*
D03*
X13366Y470D02*
D03*
X7362Y6378D02*
D03*
X15516Y13228D02*
D03*
X15652Y8110D02*
D03*
X15612Y10630D02*
D03*
X1870Y7756D02*
D03*
Y8228D02*
D03*
X5157Y10433D02*
D03*
Y11378D02*
D03*
X5157Y10976D02*
D03*
X1929Y8661D02*
D03*
X1378Y11220D02*
D03*
X1890Y11496D02*
D03*
X1535Y10866D02*
D03*
X2894Y12244D02*
D03*
X1969Y11890D02*
D03*
X2356Y12002D02*
D03*
X3465Y13307D02*
D03*
X3465Y12677D02*
D03*
X2894Y13189D02*
D03*
X2520Y5906D02*
D03*
X2992D02*
D03*
X3465D02*
D03*
X7466Y5458D02*
D03*
X7077Y3425D02*
D03*
X6654Y3268D02*
D03*
X6260Y5827D02*
D03*
X1575Y5354D02*
D03*
X9449Y12717D02*
D03*
X9449Y10787D02*
D03*
X9449Y10433D02*
D03*
X9449Y10079D02*
D03*
X9449Y9724D02*
D03*
X5394Y7465D02*
D03*
X7078Y11693D02*
D03*
D35*
X2894Y1220D02*
D03*
X2520D02*
D03*
X3268Y2256D02*
D03*
X2520D02*
D03*
D36*
X3268Y1220D02*
D03*
D37*
X4370Y3898D02*
D03*
D38*
Y4409D02*
D03*
Y4154D02*
D03*
X5236Y4409D02*
D03*
Y3898D02*
D03*
D39*
X6811Y5394D02*
D03*
Y5138D02*
D03*
Y5650D02*
D03*
Y5906D02*
D03*
X7835Y5138D02*
D03*
Y5394D02*
D03*
Y5650D02*
D03*
D40*
Y5906D02*
D03*
D41*
X10728Y6772D02*
D03*
X13130D02*
D03*
X10728Y9213D02*
D03*
X13130D02*
D03*
X10728Y11929D02*
D03*
X13130D02*
D03*
D42*
X4016Y6969D02*
D03*
D43*
X3819D02*
D03*
X3622D02*
D03*
X3425D02*
D03*
X3228D02*
D03*
X3031D02*
D03*
X2835D02*
D03*
X2638D02*
D03*
X2441D02*
D03*
X2244Y6969D02*
D03*
X2047Y6969D02*
D03*
X1850D02*
D03*
Y10354D02*
D03*
X2047D02*
D03*
X2244D02*
D03*
X2441D02*
D03*
X2638D02*
D03*
X2835D02*
D03*
X3031D02*
D03*
X3228D02*
D03*
X3425D02*
D03*
X3622D02*
D03*
X3819D02*
D03*
X4016D02*
D03*
D44*
X1240Y7579D02*
D03*
Y7776D02*
D03*
X1240Y7972D02*
D03*
Y8169D02*
D03*
Y8366D02*
D03*
Y8563D02*
D03*
Y8760D02*
D03*
X1240Y8957D02*
D03*
Y9154D02*
D03*
Y9350D02*
D03*
Y9547D02*
D03*
Y9744D02*
D03*
X4626D02*
D03*
Y9547D02*
D03*
Y9350D02*
D03*
Y9154D02*
D03*
Y8957D02*
D03*
Y8760D02*
D03*
Y8563D02*
D03*
Y8366D02*
D03*
Y8169D02*
D03*
Y7972D02*
D03*
Y7776D02*
D03*
Y7579D02*
D03*
D45*
X13031Y1880D02*
D03*
Y561D02*
D03*
D46*
X10295Y8898D02*
D03*
X10492D02*
D03*
X10295Y11614D02*
D03*
X10492D02*
D03*
X12697Y12165D02*
D03*
X12894D02*
D03*
X12697Y9528D02*
D03*
X12894D02*
D03*
X12697Y7047D02*
D03*
X12894D02*
D03*
X10295Y6378D02*
D03*
X10492D02*
D03*
D47*
X3169Y551D02*
X3622D01*
X3169D02*
X3268Y650D01*
Y1220D01*
X3571Y500D02*
X3622Y551D01*
M02*
